<?xml version='1.0' encoding='utf-8'?>
<svg xmlns="http://www.w3.org/2000/svg" height="620" width="746"><g><text style="font-size:24px;font-weight:normal;text-align:left;text-anchor:left;font-family:Sans-serif" x="10.0" y="260">Opposition</text><text style="font-size:28px;font-weight:bold;text-centre:left;text-anchor:middle;font-family:Sans-serif" x="373.0" y="320">UK Parliament: House of Commons</text><text style="font-size:24px;font-weight:normal;text-align:left;text-anchor:left;font-family:Sans-serif" x="10.0" y="380">Government</text><g data-cv-view="Conservative" id="Conservative" style="fill:#DC241F; stroke:none"><circle cx="10.0" cy="400" data-cv-key="Aberconwy" r="10" /><circle cx="32.0" cy="400" data-cv-key="Clwyd West" r="10" /><circle cx="54.0" cy="400" data-cv-key="Banbury" r="10" /><circle cx="76.0" cy="400" data-cv-key="Aylesbury" r="10" /><circle cx="98.0" cy="400" data-cv-key="Ashford" r="10" /><circle cx="120.0" cy="400" data-cv-key="Amber Valley" r="10" /><circle cx="142.0" cy="400" data-cv-key="Aldridge-Brownhills" r="10" /><circle cx="164.0" cy="400" data-cv-key="Aldershot" r="10" /><circle cx="186.0" cy="400" data-cv-key="Hornchurch and Upminster" r="10" /><circle cx="208.0" cy="400" data-cv-key="Huntingdon" r="10" /><circle cx="230.0" cy="400" data-cv-key="Taunton Deane" r="10" /><circle cx="252.0" cy="400" data-cv-key="Telford" r="10" /><circle cx="274.0" cy="400" data-cv-key="Tamworth" r="10" /><circle cx="296.0" cy="400" data-cv-key="Sutton and Cheam" r="10" /><circle cx="318.0" cy="400" data-cv-key="Sutton Coldfield" r="10" /><circle cx="340.0" cy="400" data-cv-key="Surrey Heath" r="10" /><circle cx="362.0" cy="400" data-cv-key="Suffolk Coastal" r="10" /><circle cx="384.0" cy="400" data-cv-key="Chatham and Aylesford" r="10" /><circle cx="406.0" cy="400" data-cv-key="Charnwood" r="10" /><circle cx="428.0" cy="400" data-cv-key="Central Suffolk and North Ipswich" r="10" /><circle cx="450.0" cy="400" data-cv-key="Central Devon" r="10" /><circle cx="472.0" cy="400" data-cv-key="Castle Point" r="10" /><circle cx="494.0" cy="400" data-cv-key="Carlisle" r="10" /><circle cx="516.0" cy="400" data-cv-key="Chelmsford" r="10" /><circle cx="538.0" cy="400" data-cv-key="South Holland and The Deepings" r="10" /><circle cx="560.0" cy="400" data-cv-key="South East Cornwall" r="10" /><circle cx="582.0" cy="400" data-cv-key="South Basildon and East Thurrock" r="10" /><circle cx="604.0" cy="400" data-cv-key="Somerton and Frome" r="10" /><circle cx="626.0" cy="400" data-cv-key="Solihull" r="10" /><circle cx="648.0" cy="400" data-cv-key="South Dorset" r="10" /><circle cx="670.0" cy="400" data-cv-key="South Derbyshire" r="10" /><circle cx="692.0" cy="400" data-cv-key="Blackpool North and Cleveleys" r="10" /><circle cx="714.0" cy="400" data-cv-key="Bognor Regis and Littlehampton" r="10" /><circle cx="736.0" cy="400" data-cv-key="Torridge and West Devon" r="10" /><circle cx="10.0" cy="422" data-cv-key="Totnes" r="10" /><circle cx="32.0" cy="422" data-cv-key="Uxbridge and South Ruislip" r="10" /><circle cx="54.0" cy="422" data-cv-key="Maidstone and The Weald" r="10" /><circle cx="76.0" cy="422" data-cv-key="Daventry" r="10" /><circle cx="98.0" cy="422" data-cv-key="Devizes" r="10" /><circle cx="120.0" cy="422" data-cv-key="Derbyshire Dales" r="10" /><circle cx="142.0" cy="422" data-cv-key="Faversham and Mid Kent" r="10" /><circle cx="164.0" cy="422" data-cv-key="Folkestone and Hythe" r="10" /><circle cx="186.0" cy="422" data-cv-key="Forest of Dean" r="10" /><circle cx="208.0" cy="422" data-cv-key="Fylde" r="10" /><circle cx="230.0" cy="422" data-cv-key="Gainsborough" r="10" /><circle cx="252.0" cy="422" data-cv-key="North Cornwall" r="10" /><circle cx="274.0" cy="422" data-cv-key="North Shropshire" r="10" /><circle cx="296.0" cy="422" data-cv-key="North East Derbyshire" r="10" /><circle cx="318.0" cy="422" data-cv-key="North East Cambridgeshire" r="10" /><circle cx="340.0" cy="422" data-cv-key="North East Bedfordshire" r="10" /><circle cx="362.0" cy="422" data-cv-key="North Herefordshire" r="10" /><circle cx="384.0" cy="422" data-cv-key="North East Somerset" r="10" /><circle cx="406.0" cy="422" data-cv-key="North East Hertfordshire" r="10" /><circle cx="428.0" cy="422" data-cv-key="Elmet and Rothwell" r="10" /><circle cx="450.0" cy="422" data-cv-key="St Austell and Newquay" r="10" /><circle cx="472.0" cy="422" data-cv-key="St Ives" r="10" /><circle cx="494.0" cy="422" data-cv-key="Stafford" r="10" /><circle cx="516.0" cy="422" data-cv-key="Staffordshire Moorlands" r="10" /><circle cx="538.0" cy="422" data-cv-key="Stevenage" r="10" /><circle cx="560.0" cy="422" data-cv-key="East Yorkshire" r="10" /><circle cx="582.0" cy="422" data-cv-key="East Worthing and Shoreham" r="10" /><circle cx="604.0" cy="422" data-cv-key="Eastleigh" r="10" /><circle cx="626.0" cy="422" data-cv-key="Eddisbury" r="10" /><circle cx="648.0" cy="422" data-cv-key="Yeovil" r="10" /><circle cx="670.0" cy="422" data-cv-key="Montgomeryshire" r="10" /><circle cx="692.0" cy="422" data-cv-key="Carmarthen West and South Pembrokeshire" r="10" /><circle cx="714.0" cy="422" data-cv-key="Preseli Pembrokeshire" r="10" /><circle cx="736.0" cy="422" data-cv-key="Brecon and Radnorshire" r="10" /><circle cx="10.0" cy="444" data-cv-key="Old Bexley and Sidcup" r="10" /><circle cx="32.0" cy="444" data-cv-key="South Swindon" r="10" /><circle cx="54.0" cy="444" data-cv-key="Weston-Super-Mare" r="10" /><circle cx="76.0" cy="444" data-cv-key="West Dorset" r="10" /><circle cx="98.0" cy="444" data-cv-key="West Worcestershire" r="10" /><circle cx="120.0" cy="444" data-cv-key="West Suffolk" r="10" /><circle cx="142.0" cy="444" data-cv-key="Hertsmere" r="10" /><circle cx="164.0" cy="444" data-cv-key="Hereford and South Herefordshire" r="10" /><circle cx="186.0" cy="444" data-cv-key="Christchurch" r="10" /><circle cx="208.0" cy="444" data-cv-key="Portsmouth North" r="10" /><circle cx="230.0" cy="444" data-cv-key="Chichester" r="10" /><circle cx="252.0" cy="444" data-cv-key="Chippenham" r="10" /><circle cx="274.0" cy="444" data-cv-key="Hastings and Rye" r="10" /><circle cx="296.0" cy="444" data-cv-key="Harwich and North Essex" r="10" /><circle cx="318.0" cy="444" data-cv-key="Havant" r="10" /><circle cx="340.0" cy="444" data-cv-key="Hemel Hempstead" r="10" /><circle cx="362.0" cy="444" data-cv-key="Hazel Grove" r="10" /><circle cx="384.0" cy="444" data-cv-key="Rayleigh and Wickford" r="10" /><circle cx="406.0" cy="444" data-cv-key="Skipton and Ripon" r="10" /><circle cx="428.0" cy="444" data-cv-key="Sleaford and North Hykeham" r="10" /><circle cx="450.0" cy="444" data-cv-key="Poole" r="10" /><circle cx="472.0" cy="444" data-cv-key="Sherwood" r="10" /><circle cx="494.0" cy="444" data-cv-key="Shipley" r="10" /><circle cx="516.0" cy="444" data-cv-key="Shrewsbury and Atcham" r="10" /><circle cx="538.0" cy="444" data-cv-key="Sittingbourne and Sheppey" r="10" /><circle cx="560.0" cy="444" data-cv-key="Mansfield" r="10" /><circle cx="582.0" cy="444" data-cv-key="Meon Valley" r="10" /><circle cx="604.0" cy="444" data-cv-key="Meriden" r="10" /><circle cx="626.0" cy="444" data-cv-key="Mid Bedfordshire" r="10" /><circle cx="648.0" cy="444" data-cv-key="Mid Derbyshire" r="10" /><circle cx="670.0" cy="444" data-cv-key="Mid Dorset and North Poole" r="10" /><circle cx="692.0" cy="444" data-cv-key="Mid Norfolk" r="10" /><circle cx="714.0" cy="444" data-cv-key="Mid Worcestershire" r="10" /><circle cx="736.0" cy="444" data-cv-key="South West Devon" r="10" /><circle cx="10.0" cy="466" data-cv-key="South West Norfolk" r="10" /><circle cx="32.0" cy="466" data-cv-key="Southampton, Itchen" r="10" /><circle cx="54.0" cy="466" data-cv-key="South West Wiltshire" r="10" /><circle cx="76.0" cy="466" data-cv-key="Southend West" r="10" /><circle cx="98.0" cy="466" data-cv-key="Morecambe and Lunesdale" r="10" /><circle cx="120.0" cy="466" data-cv-key="Berwick-upon-Tweed" r="10" /><circle cx="142.0" cy="466" data-cv-key="Dover" r="10" /><circle cx="164.0" cy="466" data-cv-key="Dudley South" r="10" /><circle cx="186.0" cy="466" data-cv-key="Kingswood" r="10" /><circle cx="208.0" cy="466" data-cv-key="Broadland" r="10" /><circle cx="230.0" cy="466" data-cv-key="Bromsgrove" r="10" /><circle cx="252.0" cy="466" data-cv-key="Broxtowe" r="10" /><circle cx="274.0" cy="466" data-cv-key="Broxbourne" r="10" /><circle cx="296.0" cy="466" data-cv-key="Wealden" r="10" /><circle cx="318.0" cy="466" data-cv-key="Watford" r="10" /><circle cx="340.0" cy="466" data-cv-key="North West Leicestershire" r="10" /><circle cx="362.0" cy="466" data-cv-key="North West Norfolk" r="10" /><circle cx="384.0" cy="466" data-cv-key="North Warwickshire" r="10" /><circle cx="406.0" cy="466" data-cv-key="North West Cambridgeshire" r="10" /><circle cx="428.0" cy="466" data-cv-key="North West Hampshire" r="10" /><circle cx="450.0" cy="466" data-cv-key="North Swindon" r="10" /><circle cx="472.0" cy="466" data-cv-key="North Thanet" r="10" /><circle cx="494.0" cy="466" data-cv-key="Selby and Ainsty" r="10" /><circle cx="516.0" cy="466" data-cv-key="Fareham" r="10" /><circle cx="538.0" cy="466" data-cv-key="Saffron Walden" r="10" /><circle cx="560.0" cy="466" data-cv-key="Scarborough and Whitby" r="10" /><circle cx="582.0" cy="466" data-cv-key="Epping Forest" r="10" /><circle cx="604.0" cy="466" data-cv-key="Wellingborough" r="10" /><circle cx="626.0" cy="466" data-cv-key="Sevenoaks" r="10" /><circle cx="648.0" cy="466" data-cv-key="Erewash" r="10" /><circle cx="670.0" cy="466" data-cv-key="Vale of Glamorgan" r="10" /><circle cx="692.0" cy="466" data-cv-key="Spelthorne" r="10" /><circle cx="714.0" cy="466" data-cv-key="Bexhill and Battle" r="10" /><circle cx="736.0" cy="466" data-cv-key="Beverley and Holderness" r="10" /><circle cx="10.0" cy="488" data-cv-key="Bexleyheath and Crayford" r="10" /><circle cx="32.0" cy="488" data-cv-key="Newark" r="10" /><circle cx="54.0" cy="488" data-cv-key="New Forest West" r="10" /><circle cx="76.0" cy="488" data-cv-key="Waveney" r="10" /><circle cx="98.0" cy="488" data-cv-key="Middlesbrough South and East Cleveland" r="10" /><circle cx="120.0" cy="488" data-cv-key="Milton Keynes South" r="10" /><circle cx="142.0" cy="488" data-cv-key="Wells" r="10" /><circle cx="164.0" cy="488" data-cv-key="Welwyn Hatfield" r="10" /><circle cx="186.0" cy="488" data-cv-key="New Forest East" r="10" /><circle cx="208.0" cy="488" data-cv-key="Morley and Outwood" r="10" /><circle cx="230.0" cy="488" data-cv-key="Witham" r="10" /><circle cx="252.0" cy="488" data-cv-key="Corby" r="10" /><circle cx="274.0" cy="488" data-cv-key="Colchester" r="10" /><circle cx="296.0" cy="488" data-cv-key="Copeland" r="10" /><circle cx="318.0" cy="488" data-cv-key="Congleton" r="10" /><circle cx="340.0" cy="488" data-cv-key="Cleethorpes" r="10" /><circle cx="362.0" cy="488" data-cv-key="Clacton" r="10" /><circle cx="384.0" cy="488" data-cv-key="Halesowen and Rowley Regis" r="10" /><circle cx="406.0" cy="488" data-cv-key="Banff and Buchan" r="10" /><circle cx="428.0" cy="488" data-cv-key="Haltemprice and Howden" r="10" /><circle cx="450.0" cy="488" data-cv-key="Harborough" r="10" /><circle cx="472.0" cy="488" data-cv-key="Harlow" r="10" /><circle cx="494.0" cy="488" data-cv-key="Rochester and Strood" r="10" /><circle cx="516.0" cy="488" data-cv-key="Rochford and Southend East" r="10" /><circle cx="538.0" cy="488" data-cv-key="Reading West" r="10" /><circle cx="560.0" cy="488" data-cv-key="Redditch" r="10" /><circle cx="582.0" cy="488" data-cv-key="Ribble Valley" r="10" /><circle cx="604.0" cy="488" data-cv-key="Richmond (Yorks)" r="10" /><circle cx="626.0" cy="488" data-cv-key="Ludlow" r="10" /><circle cx="648.0" cy="488" data-cv-key="Louth and Horncastle" r="10" /><circle cx="670.0" cy="488" data-cv-key="Loughborough" r="10" /><circle cx="692.0" cy="488" data-cv-key="Lichfield" r="10" /><circle cx="714.0" cy="488" data-cv-key="Braintree" r="10" /><circle cx="736.0" cy="488" data-cv-key="Bridgwater and West Somerset" r="10" /><circle cx="10.0" cy="510" data-cv-key="Brentwood and Ongar" r="10" /><circle cx="32.0" cy="510" data-cv-key="Brigg and Goole" r="10" /><circle cx="54.0" cy="510" data-cv-key="East Surrey" r="10" /><circle cx="76.0" cy="510" data-cv-key="South Thanet" r="10" /><circle cx="98.0" cy="510" data-cv-key="South West Bedfordshire" r="10" /><circle cx="120.0" cy="510" data-cv-key="Northampton North" r="10" /><circle cx="142.0" cy="510" data-cv-key="North Wiltshire" r="10" /><circle cx="164.0" cy="510" data-cv-key="Norwich North" r="10" /><circle cx="186.0" cy="510" data-cv-key="Northampton South" r="10" /><circle cx="208.0" cy="510" data-cv-key="South Northamptonshire" r="10" /><circle cx="230.0" cy="510" data-cv-key="South Ribble" r="10" /><circle cx="252.0" cy="510" data-cv-key="South Leicestershire" r="10" /><circle cx="274.0" cy="510" data-cv-key="South Norfolk" r="10" /><circle cx="296.0" cy="510" data-cv-key="South Suffolk" r="10" /><circle cx="318.0" cy="510" data-cv-key="Nuneaton" r="10" /><circle cx="340.0" cy="510" data-cv-key="South Staffordshire" r="10" /><circle cx="362.0" cy="510" data-cv-key="Kettering" r="10" /><circle cx="384.0" cy="510" data-cv-key="Isle of Wight" r="10" /><circle cx="406.0" cy="510" data-cv-key="Torbay" r="10" /><circle cx="428.0" cy="510" data-cv-key="Thurrock" r="10" /><circle cx="450.0" cy="510" data-cv-key="Thornbury and Yate" r="10" /><circle cx="472.0" cy="510" data-cv-key="Tonbridge and Malling" r="10" /><circle cx="494.0" cy="510" data-cv-key="Tiverton and Honiton" r="10" /><circle cx="516.0" cy="510" data-cv-key="Tewkesbury" r="10" /><circle cx="538.0" cy="510" data-cv-key="Thirsk and Malton" r="10" /><circle cx="560.0" cy="510" data-cv-key="The Wrekin" r="10" /><circle cx="582.0" cy="510" data-cv-key="Bury St Edmunds" r="10" /><circle cx="604.0" cy="510" data-cv-key="Burton" r="10" /><circle cx="626.0" cy="510" data-cv-key="Camborne and Redruth" r="10" /><circle cx="648.0" cy="510" data-cv-key="Calder Valley" r="10" /><circle cx="670.0" cy="510" data-cv-key="Cannock Chase" r="10" /><circle cx="692.0" cy="510" data-cv-key="Maldon" r="10" /><circle cx="714.0" cy="510" data-cv-key="Rugby" r="10" /><circle cx="736.0" cy="510" data-cv-key="Rossendale and Darwen" r="10" /><circle cx="10.0" cy="532" data-cv-key="Romford" r="10" /><circle cx="32.0" cy="532" data-cv-key="Rutland and Melton" r="10" /><circle cx="54.0" cy="532" data-cv-key="Basildon and Billericay" r="10" /><circle cx="76.0" cy="532" data-cv-key="Basingstoke" r="10" /><circle cx="98.0" cy="532" data-cv-key="North Devon" r="10" /><circle cx="120.0" cy="532" data-cv-key="North Dorset" r="10" /><circle cx="142.0" cy="532" data-cv-key="Walsall North" r="10" /><circle cx="164.0" cy="532" data-cv-key="Newton Abbot" r="10" /><circle cx="186.0" cy="532" data-cv-key="East Devon" r="10" /><circle cx="208.0" cy="532" data-cv-key="Dartford" r="10" /><circle cx="230.0" cy="532" data-cv-key="Crawley" r="10" /><circle cx="252.0" cy="532" data-cv-key="Great Yarmouth" r="10" /><circle cx="274.0" cy="532" data-cv-key="Gravesham" r="10" /><circle cx="296.0" cy="532" data-cv-key="Grantham and Stamford" r="10" /><circle cx="318.0" cy="532" data-cv-key="Gosport" r="10" /><circle cx="340.0" cy="532" data-cv-key="Gloucester" r="10" /><circle cx="362.0" cy="532" data-cv-key="Gillingham and Rainham" r="10" /><circle cx="384.0" cy="532" data-cv-key="Boston and Skegness" r="10" /><circle cx="406.0" cy="532" data-cv-key="Bosworth" r="10" /><circle cx="428.0" cy="532" data-cv-key="Bolton West" r="10" /><circle cx="450.0" cy="532" data-cv-key="Bracknell" r="10" /><circle cx="472.0" cy="532" data-cv-key="Bournemouth East" r="10" /><circle cx="494.0" cy="532" data-cv-key="Bournemouth West" r="10" /><circle cx="516.0" cy="532" data-cv-key="Wyre Forest" r="10" /><circle cx="538.0" cy="532" data-cv-key="Worcester" r="10" /><circle cx="560.0" cy="532" data-cv-key="Wyre and Preston North" r="10" /><circle cx="582.0" cy="532" data-cv-key="Worthing West" r="10" /><circle cx="604.0" cy="532" data-cv-key="Penrith and The Border" r="10" /><circle cx="626.0" cy="532" data-cv-key="Pendle" r="10" /><circle cx="648.0" cy="532" data-cv-key="Orpington" r="10" /><circle cx="670.0" cy="532" data-cv-key="Stratford-on-Avon" r="10" /><circle cx="692.0" cy="532" data-cv-key="Stourbridge" r="10" /><circle cx="714.0" cy="532" data-cv-key="Stone" r="10" /><circle cx="736.0" cy="532" data-cv-key="Stoke-on-Trent South" r="10" /><circle cx="10.0" cy="554" data-cv-key="Plymouth, Moor View" r="10" /><circle cx="32.0" cy="554" data-cv-key="Monmouth" r="10" /><circle cx="54.0" cy="554" data-cv-key="Arundel and South Downs" r="10" /><circle cx="76.0" cy="554" data-cv-key="Altrincham and Sale West" r="10" /><circle cx="98.0" cy="554" data-cv-key="Horsham" r="10" /><circle cx="120.0" cy="554" data-cv-key="Tatton" r="10" /><circle cx="142.0" cy="554" data-cv-key="Filton and Bradley Stoke" r="10" /><circle cx="164.0" cy="554" data-cv-key="Cheadle" r="10" /><circle cx="186.0" cy="554" data-cv-key="Chelsea and Fulham" r="10" /><circle cx="208.0" cy="554" data-cv-key="Finchley and Golders Green" r="10" /><circle cx="230.0" cy="554" data-cv-key="South East Cambridgeshire" r="10" /><circle cx="252.0" cy="554" data-cv-key="South Cambridgeshire" r="10" /><circle cx="274.0" cy="554" data-cv-key="Chesham and Amersham" r="10" /><circle cx="296.0" cy="554" data-cv-key="Truro and Falmouth" r="10" /><circle cx="318.0" cy="554" data-cv-key="Tunbridge Wells" r="10" /><circle cx="340.0" cy="554" data-cv-key="Maidenhead" r="10" /><circle cx="362.0" cy="554" data-cv-key="Macclesfield" r="10" /><circle cx="384.0" cy="554" data-cv-key="Ochil and South Perthshire" r="10" /><circle cx="406.0" cy="554" data-cv-key="Windsor" r="10" /><circle cx="428.0" cy="554" data-cv-key="Wantage" r="10" /><circle cx="450.0" cy="554" data-cv-key="Wokingham" r="10" /><circle cx="472.0" cy="554" data-cv-key="East Hampshire" r="10" /><circle cx="494.0" cy="554" data-cv-key="Hertford and Stortford" r="10" /><circle cx="516.0" cy="554" data-cv-key="Hexham" r="10" /><circle cx="538.0" cy="554" data-cv-key="Hendon" r="10" /><circle cx="560.0" cy="554" data-cv-key="Henley" r="10" /><circle cx="582.0" cy="554" data-cv-key="Hitchin and Harpenden" r="10" /><circle cx="604.0" cy="554" data-cv-key="Cities of London and Westminster" r="10" /><circle cx="626.0" cy="554" data-cv-key="Cheltenham" r="10" /><circle cx="648.0" cy="554" data-cv-key="Chingford and Woodford Green" r="10" /><circle cx="670.0" cy="554" data-cv-key="Chipping Barnet" r="10" /><circle cx="692.0" cy="554" data-cv-key="Harrow East" r="10" /><circle cx="714.0" cy="554" data-cv-key="Harrogate and Knaresborough" r="10" /><circle cx="736.0" cy="554" data-cv-key="Esher and Walton" r="10" /><circle cx="10.0" cy="576" data-cv-key="Putney" r="10" /><circle cx="32.0" cy="576" data-cv-key="Pudsey" r="10" /><circle cx="54.0" cy="576" data-cv-key="Mid Sussex" r="10" /><circle cx="76.0" cy="576" data-cv-key="South West Surrey" r="10" /><circle cx="98.0" cy="576" data-cv-key="North East Hampshire" r="10" /><circle cx="120.0" cy="576" data-cv-key="Southport" r="10" /><circle cx="142.0" cy="576" data-cv-key="Mole Valley" r="10" /><circle cx="164.0" cy="576" data-cv-key="Bromley and Chislehurst" r="10" /><circle cx="186.0" cy="576" data-cv-key="Moray" r="10" /><circle cx="208.0" cy="576" data-cv-key="St Albans" r="10" /><circle cx="230.0" cy="576" data-cv-key="Dumfriesshire, Clydesdale and Tweeddale" r="10" /><circle cx="252.0" cy="576" data-cv-key="Milton Keynes North" r="10" /><circle cx="274.0" cy="576" data-cv-key="Dumfries and Galloway" r="10" /><circle cx="296.0" cy="576" data-cv-key="North Somerset" r="10" /><circle cx="318.0" cy="576" data-cv-key="Salisbury" r="10" /><circle cx="340.0" cy="576" data-cv-key="Epsom and Ewell" r="10" /><circle cx="362.0" cy="576" data-cv-key="Beckenham" r="10" /><circle cx="384.0" cy="576" data-cv-key="Beaconsfield" r="10" /><circle cx="406.0" cy="576" data-cv-key="South West Hertfordshire" r="10" /><circle cx="428.0" cy="576" data-cv-key="Witney" r="10" /><circle cx="450.0" cy="576" data-cv-key="Woking" r="10" /><circle cx="472.0" cy="576" data-cv-key="Wimbledon" r="10" /><circle cx="494.0" cy="576" data-cv-key="Winchester" r="10" /><circle cx="516.0" cy="576" data-cv-key="Ayr, Carrick and Cumnock" r="10" /><circle cx="538.0" cy="576" data-cv-key="Berwickshire, Roxburgh and Selkirk" r="10" /><circle cx="560.0" cy="576" data-cv-key="Reigate" r="10" /><circle cx="582.0" cy="576" data-cv-key="Richmond Park" r="10" /><circle cx="604.0" cy="576" data-cv-key="Kenilworth and Southam" r="10" /><circle cx="626.0" cy="576" data-cv-key="West Aberdeenshire and Kincardine" r="10" /><circle cx="648.0" cy="576" data-cv-key="The Cotswolds" r="10" /><circle cx="670.0" cy="576" data-cv-key="Stirling" r="10" /><circle cx="692.0" cy="576" data-cv-key="East Renfrewshire" r="10" /><circle cx="714.0" cy="576" data-cv-key="Ruislip, Northwood and Pinner" r="10" /><circle cx="736.0" cy="576" data-cv-key="Runnymede and Weybridge" r="10" /><circle cx="10.0" cy="598" data-cv-key="Romsey and Southampton North" r="10" /><circle cx="32.0" cy="598" data-cv-key="Rushcliffe" r="10" /><circle cx="54.0" cy="598" data-cv-key="Angus" r="10" /><circle cx="76.0" cy="598" data-cv-key="Aberdeen South" r="10" /><circle cx="98.0" cy="598" data-cv-key="Newbury" r="10" /><circle cx="120.0" cy="598" data-cv-key="Gordon" r="10" /><circle cx="142.0" cy="598" data-cv-key="York Outer" r="10" /><circle cx="164.0" cy="598" data-cv-key="Croydon South" r="10" /><circle cx="186.0" cy="598" data-cv-key="Guildford" r="10" /><circle cx="208.0" cy="598" data-cv-key="Lewes" r="10" /><circle cx="230.0" cy="598" data-cv-key="Wycombe" r="10" /></g><g data-cv-view="DUP" id="DUP" style="fill:#0087DC; stroke:none"><circle cx="252.0" cy="598" data-cv-key="Belfast East" r="10" /><circle cx="274.0" cy="598" data-cv-key="East Antrim" r="10" /><circle cx="296.0" cy="598" data-cv-key="Lagan Valley" r="10" /><circle cx="318.0" cy="598" data-cv-key="North Antrim" r="10" /><circle cx="340.0" cy="598" data-cv-key="Strangford" r="10" /><circle cx="362.0" cy="598" data-cv-key="Upper Bann" r="10" /><circle cx="384.0" cy="598" data-cv-key="Belfast South" r="10" /><circle cx="406.0" cy="598" data-cv-key="Belfast North" r="10" /><circle cx="428.0" cy="598" data-cv-key="East Londonderry" r="10" /><circle cx="450.0" cy="598" data-cv-key="South Antrim" r="10" /></g><g data-cv-view="Labour" id="Labour" style="fill:#008142; stroke:none"><circle cx="10.0" cy="220" data-cv-key="Newport West" r="10" /><circle cx="32.0" cy="220" data-cv-key="Newport East" r="10" /><circle cx="54.0" cy="220" data-cv-key="Rhondda" r="10" /><circle cx="76.0" cy="220" data-cv-key="Torfaen" r="10" /><circle cx="98.0" cy="220" data-cv-key="Ashton-under-Lyne" r="10" /><circle cx="120.0" cy="220" data-cv-key="Ashfield" r="10" /><circle cx="142.0" cy="220" data-cv-key="Huddersfield" r="10" /><circle cx="164.0" cy="220" data-cv-key="Houghton and Sunderland South" r="10" /><circle cx="186.0" cy="220" data-cv-key="Ilford North" r="10" /><circle cx="208.0" cy="220" data-cv-key="Hyndburn" r="10" /><circle cx="230.0" cy="220" data-cv-key="Stockton North" r="10" /><circle cx="252.0" cy="220" data-cv-key="Sunderland Central" r="10" /><circle cx="274.0" cy="220" data-cv-key="Slough" r="10" /><circle cx="296.0" cy="220" data-cv-key="Bolton South East" r="10" /><circle cx="318.0" cy="220" data-cv-key="Bolton North East" r="10" /><circle cx="340.0" cy="220" data-cv-key="Blackpool South" r="10" /><circle cx="362.0" cy="220" data-cv-key="Blackburn" r="10" /><circle cx="384.0" cy="220" data-cv-key="Bolsover" r="10" /><circle cx="406.0" cy="220" data-cv-key="Blyth Valley" r="10" /><circle cx="428.0" cy="220" data-cv-key="Blaydon" r="10" /><circle cx="450.0" cy="220" data-cv-key="Wakefield" r="10" /><circle cx="472.0" cy="220" data-cv-key="Makerfield" r="10" /><circle cx="494.0" cy="220" data-cv-key="Luton South" r="10" /><circle cx="516.0" cy="220" data-cv-key="Luton North" r="10" /><circle cx="538.0" cy="220" data-cv-key="Gateshead" r="10" /><circle cx="560.0" cy="220" data-cv-key="Derby South" r="10" /><circle cx="582.0" cy="220" data-cv-key="Derby North" r="10" /><circle cx="604.0" cy="220" data-cv-key="Denton and Reddish" r="10" /><circle cx="626.0" cy="220" data-cv-key="Don Valley" r="10" /><circle cx="648.0" cy="220" data-cv-key="Dewsbury" r="10" /><circle cx="670.0" cy="220" data-cv-key="Feltham and Heston" r="10" /><circle cx="692.0" cy="220" data-cv-key="Doncaster North" r="10" /><circle cx="714.0" cy="220" data-cv-key="Doncaster Central" r="10" /><circle cx="736.0" cy="220" data-cv-key="Warley" r="10" /><circle cx="10.0" cy="198" data-cv-key="Newcastle-under-Lyme" r="10" /><circle cx="32.0" cy="198" data-cv-key="Wolverhampton North East" r="10" /><circle cx="54.0" cy="198" data-cv-key="North Durham" r="10" /><circle cx="76.0" cy="198" data-cv-key="Weaver Vale" r="10" /><circle cx="98.0" cy="198" data-cv-key="St Helens North" r="10" /><circle cx="120.0" cy="198" data-cv-key="St Helens South and Whiston" r="10" /><circle cx="142.0" cy="198" data-cv-key="Stalybridge and Hyde" r="10" /><circle cx="164.0" cy="198" data-cv-key="Clwyd South" r="10" /><circle cx="186.0" cy="198" data-cv-key="Vale of Clwyd" r="10" /><circle cx="208.0" cy="198" data-cv-key="Neath" r="10" /><circle cx="230.0" cy="198" data-cv-key="Wigan" r="10" /><circle cx="252.0" cy="198" data-cv-key="West Bromwich West" r="10" /><circle cx="274.0" cy="198" data-cv-key="West Lancashire" r="10" /><circle cx="296.0" cy="198" data-cv-key="Heywood and Middleton" r="10" /><circle cx="318.0" cy="198" data-cv-key="Hemsworth" r="10" /><circle cx="340.0" cy="198" data-cv-key="High Peak" r="10" /><circle cx="362.0" cy="198" data-cv-key="Chesterfield" r="10" /><circle cx="384.0" cy="198" data-cv-key="Chorley" r="10" /><circle cx="406.0" cy="198" data-cv-key="Hartlepool" r="10" /><circle cx="428.0" cy="198" data-cv-key="Hayes and Harlington" r="10" /><circle cx="450.0" cy="198" data-cv-key="Preston" r="10" /><circle cx="472.0" cy="198" data-cv-key="Portsmouth South" r="10" /><circle cx="494.0" cy="198" data-cv-key="Plymouth, Sutton and Devonport" r="10" /><circle cx="516.0" cy="198" data-cv-key="Sheffield South East" r="10" /><circle cx="538.0" cy="198" data-cv-key="Sheffield, Brightside and Hillsborough" r="10" /><circle cx="560.0" cy="198" data-cv-key="Sheffield, Heeley" r="10" /><circle cx="582.0" cy="198" data-cv-key="Birmingham, Yardley" r="10" /><circle cx="604.0" cy="198" data-cv-key="Bishop Auckland" r="10" /><circle cx="626.0" cy="198" data-cv-key="Birmingham, Northfield" r="10" /><circle cx="648.0" cy="198" data-cv-key="Birmingham, Perry Barr" r="10" /><circle cx="670.0" cy="198" data-cv-key="Birmingham, Erdington" r="10" /><circle cx="692.0" cy="198" data-cv-key="Birmingham, Hodge Hill" r="10" /><circle cx="714.0" cy="198" data-cv-key="Easington" r="10" /><circle cx="736.0" cy="198" data-cv-key="Leeds East" r="10" /><circle cx="10.0" cy="176" data-cv-key="Knowsley" r="10" /><circle cx="32.0" cy="176" data-cv-key="Lancaster and Fleetwood" r="10" /><circle cx="54.0" cy="176" data-cv-key="Kingston upon Hull East" r="10" /><circle cx="76.0" cy="176" data-cv-key="Kingston upon Hull West and Hessle" r="10" /><circle cx="98.0" cy="176" data-cv-key="Kingston upon Hull North" r="10" /><circle cx="120.0" cy="176" data-cv-key="Burnley" r="10" /><circle cx="142.0" cy="176" data-cv-key="North West Durham" r="10" /><circle cx="164.0" cy="176" data-cv-key="North Tyneside" r="10" /><circle cx="186.0" cy="176" data-cv-key="Sedgefield" r="10" /><circle cx="208.0" cy="176" data-cv-key="Scunthorpe" r="10" /><circle cx="230.0" cy="176" data-cv-key="Salford and Eccles" r="10" /><circle cx="252.0" cy="176" data-cv-key="Eltham" r="10" /><circle cx="274.0" cy="176" data-cv-key="Erith and Thamesmead" r="10" /><circle cx="296.0" cy="176" data-cv-key="Ogmore" r="10" /><circle cx="318.0" cy="176" data-cv-key="Caerphilly" r="10" /><circle cx="340.0" cy="176" data-cv-key="Islwyn" r="10" /><circle cx="362.0" cy="176" data-cv-key="Cynon Valley" r="10" /><circle cx="384.0" cy="176" data-cv-key="Merthyr Tydfil and Rhymney" r="10" /><circle cx="406.0" cy="176" data-cv-key="Blaenau Gwent" r="10" /><circle cx="428.0" cy="176" data-cv-key="Bridgend" r="10" /><circle cx="450.0" cy="176" data-cv-key="Bedford" r="10" /><circle cx="472.0" cy="176" data-cv-key="Birkenhead" r="10" /><circle cx="494.0" cy="176" data-cv-key="Wentworth and Dearne" r="10" /><circle cx="516.0" cy="176" data-cv-key="West Bromwich East" r="10" /><circle cx="538.0" cy="176" data-cv-key="Washington and Sunderland West" r="10" /><circle cx="560.0" cy="176" data-cv-key="Ellesmere Port and Neston" r="10" /><circle cx="582.0" cy="176" data-cv-key="Middlesbrough" r="10" /><circle cx="604.0" cy="176" data-cv-key="Coventry North East" r="10" /><circle cx="626.0" cy="176" data-cv-key="Colne Valley" r="10" /><circle cx="648.0" cy="176" data-cv-key="Halifax" r="10" /><circle cx="670.0" cy="176" data-cv-key="Halton" r="10" /><circle cx="692.0" cy="176" data-cv-key="Redcar" r="10" /><circle cx="714.0" cy="176" data-cv-key="Rochdale" r="10" /><circle cx="736.0" cy="176" data-cv-key="Liverpool, Walton" r="10" /><circle cx="10.0" cy="154" data-cv-key="Lincoln" r="10" /><circle cx="32.0" cy="154" data-cv-key="South Shields" r="10" /><circle cx="54.0" cy="154" data-cv-key="Aberavon" r="10" /><circle cx="76.0" cy="154" data-cv-key="Swansea East" r="10" /><circle cx="98.0" cy="154" data-cv-key="Llanelli" r="10" /><circle cx="120.0" cy="154" data-cv-key="Wrexham" r="10" /><circle cx="142.0" cy="154" data-cv-key="Ynys Mon" r="10" /><circle cx="164.0" cy="154" data-cv-key="Alyn and Deeside" r="10" /><circle cx="186.0" cy="154" data-cv-key="Delyn" r="10" /><circle cx="208.0" cy="154" data-cv-key="Keighley" r="10" /><circle cx="230.0" cy="154" data-cv-key="Jarrow" r="10" /><circle cx="252.0" cy="154" data-cv-key="Ipswich" r="10" /><circle cx="274.0" cy="154" data-cv-key="Bury South" r="10" /><circle cx="296.0" cy="154" data-cv-key="Bury North" r="10" /><circle cx="318.0" cy="154" data-cv-key="Rotherham" r="10" /><circle cx="340.0" cy="154" data-cv-key="Rother Valley" r="10" /><circle cx="362.0" cy="154" data-cv-key="Bassetlaw" r="10" /><circle cx="384.0" cy="154" data-cv-key="Barnsley East" r="10" /><circle cx="406.0" cy="154" data-cv-key="Barrow and Furness" r="10" /><circle cx="428.0" cy="154" data-cv-key="Barking" r="10" /><circle cx="450.0" cy="154" data-cv-key="Barnsley Central" r="10" /><circle cx="472.0" cy="154" data-cv-key="Batley and Spen" r="10" /><circle cx="494.0" cy="154" data-cv-key="Warrington South" r="10" /><circle cx="516.0" cy="154" data-cv-key="Warrington North" r="10" /><circle cx="538.0" cy="154" data-cv-key="Newcastle upon Tyne North" r="10" /><circle cx="560.0" cy="154" data-cv-key="Wansbeck" r="10" /><circle cx="582.0" cy="154" data-cv-key="Normanton, Pontefract and Castleford" r="10" /><circle cx="604.0" cy="154" data-cv-key="Walsall South" r="10" /><circle cx="626.0" cy="154" data-cv-key="Nottingham North" r="10" /><circle cx="648.0" cy="154" data-cv-key="Darlington" r="10" /><circle cx="670.0" cy="154" data-cv-key="Dagenham and Rainham" r="10" /><circle cx="692.0" cy="154" data-cv-key="Croydon Central" r="10" /><circle cx="714.0" cy="154" data-cv-key="Crewe and Nantwich" r="10" /><circle cx="736.0" cy="154" data-cv-key="Coventry North West" r="10" /><circle cx="10.0" cy="132" data-cv-key="Coventry South" r="10" /><circle cx="32.0" cy="132" data-cv-key="Great Grimsby" r="10" /><circle cx="54.0" cy="132" data-cv-key="Gedling" r="10" /><circle cx="76.0" cy="132" data-cv-key="Dudley North" r="10" /><circle cx="98.0" cy="132" data-cv-key="Leeds West" r="10" /><circle cx="120.0" cy="132" data-cv-key="Leicester East" r="10" /><circle cx="142.0" cy="132" data-cv-key="Leicester West" r="10" /><circle cx="164.0" cy="132" data-cv-key="Leigh" r="10" /><circle cx="186.0" cy="132" data-cv-key="Bootle" r="10" /><circle cx="208.0" cy="132" data-cv-key="Bradford East" r="10" /><circle cx="230.0" cy="132" data-cv-key="Bradford South" r="10" /><circle cx="252.0" cy="132" data-cv-key="Workington" r="10" /><circle cx="274.0" cy="132" data-cv-key="Wolverhampton South West" r="10" /><circle cx="296.0" cy="132" data-cv-key="Wolverhampton South East" r="10" /><circle cx="318.0" cy="132" data-cv-key="Worsley and Eccles South" r="10" /><circle cx="340.0" cy="132" data-cv-key="Penistone and Stocksbridge" r="10" /><circle cx="362.0" cy="132" data-cv-key="Peterborough" r="10" /><circle cx="384.0" cy="132" data-cv-key="Oldham East and Saddleworth" r="10" /><circle cx="406.0" cy="132" data-cv-key="Oldham West and Royton" r="10" /><circle cx="428.0" cy="132" data-cv-key="Stoke-on-Trent North" r="10" /><circle cx="450.0" cy="132" data-cv-key="Stoke-on-Trent Central" r="10" /><circle cx="472.0" cy="132" data-cv-key="Stockton South" r="10" /><circle cx="494.0" cy="132" data-cv-key="Cardiff Central" r="10" /><circle cx="516.0" cy="132" data-cv-key="Cardiff North" r="10" /><circle cx="538.0" cy="132" data-cv-key="Hornsey and Wood Green" r="10" /><circle cx="560.0" cy="132" data-cv-key="Holborn and St Pancras" r="10" /><circle cx="582.0" cy="132" data-cv-key="Hove" r="10" /><circle cx="604.0" cy="132" data-cv-key="Poplar and Limehouse" r="10" /><circle cx="626.0" cy="132" data-cv-key="Bristol North West" r="10" /><circle cx="648.0" cy="132" data-cv-key="Nottingham South" r="10" /><circle cx="670.0" cy="132" data-cv-key="Kirkcaldy and Cowdenbeath" r="10" /><circle cx="692.0" cy="132" data-cv-key="Blackley and Broughton" r="10" /><circle cx="714.0" cy="132" data-cv-key="Tottenham" r="10" /><circle cx="736.0" cy="132" data-cv-key="Tynemouth" r="10" /><circle cx="10.0" cy="110" data-cv-key="Manchester Central" r="10" /><circle cx="32.0" cy="110" data-cv-key="Harrow West" r="10" /><circle cx="54.0" cy="110" data-cv-key="Garston and Halewood" r="10" /><circle cx="76.0" cy="110" data-cv-key="East Lothian" r="10" /><circle cx="98.0" cy="110" data-cv-key="Newcastle upon Tyne East" r="10" /><circle cx="120.0" cy="110" data-cv-key="Wirral South" r="10" /><circle cx="142.0" cy="110" data-cv-key="Newcastle upon Tyne Central" r="10" /><circle cx="164.0" cy="110" data-cv-key="Walthamstow" r="10" /><circle cx="186.0" cy="110" data-cv-key="Wallasey" r="10" /><circle cx="208.0" cy="110" data-cv-key="Edmonton" r="10" /><circle cx="230.0" cy="110" data-cv-key="York Central" r="10" /><circle cx="252.0" cy="110" data-cv-key="West Ham" r="10" /><circle cx="274.0" cy="110" data-cv-key="Westminster North" r="10" /><circle cx="296.0" cy="110" data-cv-key="Exeter" r="10" /><circle cx="318.0" cy="110" data-cv-key="Sefton Central" r="10" /><circle cx="340.0" cy="110" data-cv-key="Enfield North" r="10" /><circle cx="362.0" cy="110" data-cv-key="Cardiff South and Penarth" r="10" /><circle cx="384.0" cy="110" data-cv-key="Sheffield, Hallam" r="10" /><circle cx="406.0" cy="110" data-cv-key="Reading East" r="10" /><circle cx="428.0" cy="110" data-cv-key="Sheffield Central" r="10" /><circle cx="450.0" cy="110" data-cv-key="Birmingham, Ladywood" r="10" /><circle cx="472.0" cy="110" data-cv-key="Birmingham, Selly Oak" r="10" /><circle cx="494.0" cy="110" data-cv-key="Birmingham, Edgbaston" r="10" /><circle cx="516.0" cy="110" data-cv-key="Birmingham, Hall Green" r="10" /><circle cx="538.0" cy="110" data-cv-key="Southampton, Test" r="10" /><circle cx="560.0" cy="110" data-cv-key="Stroud" r="10" /><circle cx="582.0" cy="110" data-cv-key="Ealing Central and Acton" r="10" /><circle cx="604.0" cy="110" data-cv-key="Ealing, Southall" r="10" /><circle cx="626.0" cy="110" data-cv-key="Dulwich and West Norwood" r="10" /><circle cx="648.0" cy="110" data-cv-key="East Ham" r="10" /><circle cx="670.0" cy="110" data-cv-key="Bristol South" r="10" /><circle cx="692.0" cy="110" data-cv-key="Bristol West" r="10" /><circle cx="714.0" cy="110" data-cv-key="Midlothian" r="10" /><circle cx="736.0" cy="110" data-cv-key="Mitcham and Morden" r="10" /><circle cx="10.0" cy="88" data-cv-key="Enfield, Southgate" r="10" /><circle cx="32.0" cy="88" data-cv-key="Pontypridd" r="10" /><circle cx="54.0" cy="88" data-cv-key="Greenwich and Woolwich" r="10" /><circle cx="76.0" cy="88" data-cv-key="Cardiff West" r="10" /><circle cx="98.0" cy="88" data-cv-key="Vauxhall" r="10" /><circle cx="120.0" cy="88" data-cv-key="Bethnal Green and Bow" r="10" /><circle cx="142.0" cy="88" data-cv-key="Bermondsey and Old Southwark" r="10" /><circle cx="164.0" cy="88" data-cv-key="Wirral West" r="10" /><circle cx="186.0" cy="88" data-cv-key="City of Durham" r="10" /><circle cx="208.0" cy="88" data-cv-key="City of Chester" r="10" /><circle cx="230.0" cy="88" data-cv-key="Hampstead and Kilburn" r="10" /><circle cx="252.0" cy="88" data-cv-key="Ealing North" r="10" /><circle cx="274.0" cy="88" data-cv-key="Stockport" r="10" /><circle cx="296.0" cy="88" data-cv-key="Liverpool, West Derby" r="10" /><circle cx="318.0" cy="88" data-cv-key="Liverpool, Wavertree" r="10" /><circle cx="340.0" cy="88" data-cv-key="Leeds North East" r="10" /><circle cx="362.0" cy="88" data-cv-key="Leyton and Wanstead" r="10" /><circle cx="384.0" cy="88" data-cv-key="Liverpool, Riverside" r="10" /><circle cx="406.0" cy="88" data-cv-key="Brent Central" r="10" /><circle cx="428.0" cy="88" data-cv-key="Brentford and Isleworth" r="10" /><circle cx="450.0" cy="88" data-cv-key="Brent North" r="10" /><circle cx="472.0" cy="88" data-cv-key="Brighton, Kemptown" r="10" /><circle cx="494.0" cy="88" data-cv-key="Bristol East" r="10" /><circle cx="516.0" cy="88" data-cv-key="Nottingham East" r="10" /><circle cx="538.0" cy="88" data-cv-key="Norwich South" r="10" /><circle cx="560.0" cy="88" data-cv-key="Swansea West" r="10" /><circle cx="582.0" cy="88" data-cv-key="Gower" r="10" /><circle cx="604.0" cy="88" data-cv-key="Kensington" r="10" /><circle cx="626.0" cy="88" data-cv-key="Islington South and Finsbury" r="10" /><circle cx="648.0" cy="88" data-cv-key="Islington North" r="10" /><circle cx="670.0" cy="88" data-cv-key="Ilford South" r="10" /><circle cx="692.0" cy="88" data-cv-key="Manchester, Gorton" r="10" /><circle cx="714.0" cy="88" data-cv-key="Tooting" r="10" /><circle cx="736.0" cy="88" data-cv-key="Cambridge" r="10" /><circle cx="10.0" cy="66" data-cv-key="Camberwell and Peckham" r="10" /><circle cx="32.0" cy="66" data-cv-key="Canterbury" r="10" /><circle cx="54.0" cy="66" data-cv-key="Rutherglen and Hamilton West" r="10" /><circle cx="76.0" cy="66" data-cv-key="Coatbridge, Chryston and Bellshill" r="10" /><circle cx="98.0" cy="66" data-cv-key="Hackney North and Stoke Newington" r="10" /><circle cx="120.0" cy="66" data-cv-key="Hackney South and Shoreditch" r="10" /><circle cx="142.0" cy="66" data-cv-key="Hammersmith" r="10" /><circle cx="164.0" cy="66" data-cv-key="Battersea" r="10" /><circle cx="186.0" cy="66" data-cv-key="Warwick and Leamington" r="10" /><circle cx="208.0" cy="66" data-cv-key="Leeds Central" r="10" /><circle cx="230.0" cy="66" data-cv-key="Glasgow North East" r="10" /><circle cx="252.0" cy="66" data-cv-key="Manchester, Withington" r="10" /><circle cx="274.0" cy="66" data-cv-key="Croydon North" r="10" /><circle cx="296.0" cy="66" data-cv-key="Leeds North West" r="10" /><circle cx="318.0" cy="66" data-cv-key="Leicester South" r="10" /><circle cx="340.0" cy="66" data-cv-key="Lewisham East" r="10" /><circle cx="362.0" cy="66" data-cv-key="Lewisham West and Penge" r="10" /><circle cx="384.0" cy="66" data-cv-key="Lewisham, Deptford" r="10" /><circle cx="406.0" cy="66" data-cv-key="Oxford East" r="10" /><circle cx="428.0" cy="66" data-cv-key="Stretford and Urmston" r="10" /><circle cx="450.0" cy="66" data-cv-key="Edinburgh South" r="10" /><circle cx="472.0" cy="66" data-cv-key="Streatham" r="10" /><circle cx="494.0" cy="66" data-cv-key="Bradford West" r="10" /><circle cx="516.0" cy="66" data-cv-key="Wythenshawe and Sale East" r="10" /></g><g data-cv-view="Plaid Cymru" id="Plaid Cymru" style="fill:#12B6CF; stroke:none"><circle cx="538.0" cy="66" data-cv-key="Carmarthen East and Dinefwr" r="10" /><circle cx="560.0" cy="66" data-cv-key="Arfon" r="10" /><circle cx="582.0" cy="66" data-cv-key="Dwyfor Meirionnydd" r="10" /><circle cx="604.0" cy="66" data-cv-key="Ceredigion" r="10" /></g><g data-cv-view="Liberal Democrats" id="Liberal Democrats" style="fill:#DDDDDD; stroke:none"><circle cx="626.0" cy="66" data-cv-key="Carshalton and Wallington" r="10" /><circle cx="648.0" cy="66" data-cv-key="North Norfolk" r="10" /><circle cx="670.0" cy="66" data-cv-key="Eastbourne" r="10" /><circle cx="692.0" cy="66" data-cv-key="Caithness, Sutherland and Easter Ross" r="10" /><circle cx="714.0" cy="66" data-cv-key="Twickenham" r="10" /><circle cx="736.0" cy="66" data-cv-key="Edinburgh West" r="10" /><circle cx="10.0" cy="44" data-cv-key="East Dunbartonshire" r="10" /><circle cx="32.0" cy="44" data-cv-key="Westmorland and Lonsdale" r="10" /><circle cx="54.0" cy="44" data-cv-key="Orkney and Shetland" r="10" /><circle cx="76.0" cy="44" data-cv-key="Bath" r="10" /><circle cx="98.0" cy="44" data-cv-key="Kingston and Surbiton" r="10" /><circle cx="120.0" cy="44" data-cv-key="Oxford West and Abingdon" r="10" /></g><g data-cv-view="SNP" id="SNP" style="fill:#70147A; stroke:none"><circle cx="142.0" cy="44" data-cv-key="North East Fife" r="10" /><circle cx="164.0" cy="44" data-cv-key="Central Ayrshire" r="10" /><circle cx="186.0" cy="44" data-cv-key="Kilmarnock and Loudoun" r="10" /><circle cx="208.0" cy="44" data-cv-key="Glasgow Central" r="10" /><circle cx="230.0" cy="44" data-cv-key="Falkirk" r="10" /><circle cx="252.0" cy="44" data-cv-key="Na h-Eileanan an Iar" r="10" /><circle cx="274.0" cy="44" data-cv-key="Edinburgh South West" r="10" /><circle cx="296.0" cy="44" data-cv-key="Inverclyde" r="10" /><circle cx="318.0" cy="44" data-cv-key="Inverness, Nairn, Badenoch and Strathspey" r="10" /><circle cx="340.0" cy="44" data-cv-key="Glasgow East" r="10" /><circle cx="362.0" cy="44" data-cv-key="Glasgow North" r="10" /><circle cx="384.0" cy="44" data-cv-key="Airdrie and Shotts" r="10" /><circle cx="406.0" cy="44" data-cv-key="Glenrothes" r="10" /><circle cx="428.0" cy="44" data-cv-key="North Ayrshire and Arran" r="10" /><circle cx="450.0" cy="44" data-cv-key="Linlithgow and East Falkirk" r="10" /><circle cx="472.0" cy="44" data-cv-key="Lanark and Hamilton East" r="10" /><circle cx="494.0" cy="44" data-cv-key="Livingston" r="10" /><circle cx="516.0" cy="44" data-cv-key="Motherwell and Wishaw" r="10" /><circle cx="538.0" cy="44" data-cv-key="Dundee West" r="10" /><circle cx="560.0" cy="44" data-cv-key="Dunfermline and West Fife" r="10" /><circle cx="582.0" cy="44" data-cv-key="Dundee East" r="10" /><circle cx="604.0" cy="44" data-cv-key="Cumbernauld, Kilsyth and Kirkintilloch East" r="10" /><circle cx="626.0" cy="44" data-cv-key="Edinburgh North and Leith" r="10" /><circle cx="648.0" cy="44" data-cv-key="Edinburgh East" r="10" /><circle cx="670.0" cy="44" data-cv-key="Aberdeen North" r="10" /><circle cx="692.0" cy="44" data-cv-key="West Dunbartonshire" r="10" /><circle cx="714.0" cy="44" data-cv-key="Paisley and Renfrewshire North" r="10" /><circle cx="736.0" cy="44" data-cv-key="Paisley and Renfrewshire South" r="10" /><circle cx="10.0" cy="22" data-cv-key="Perth and North Perthshire" r="10" /><circle cx="32.0" cy="22" data-cv-key="Ross, Skye and Lochaber" r="10" /><circle cx="54.0" cy="22" data-cv-key="Argyll and Bute" r="10" /><circle cx="76.0" cy="22" data-cv-key="Glasgow South" r="10" /><circle cx="98.0" cy="22" data-cv-key="Glasgow South West" r="10" /><circle cx="120.0" cy="22" data-cv-key="Glasgow North West" r="10" /><circle cx="142.0" cy="22" data-cv-key="East Kilbride, Strathaven and Lesmahagow" r="10" /></g><g data-cv-view="Sinn FÈin" id="Sinn FÈin" style="fill:#FAA61A; stroke:none"><circle cx="164.0" cy="22" data-cv-key="Belfast West" r="10" /><circle cx="186.0" cy="22" data-cv-key="Fermanagh and South Tyrone" r="10" /><circle cx="208.0" cy="22" data-cv-key="Foyle" r="10" /><circle cx="230.0" cy="22" data-cv-key="Mid Ulster" r="10" /><circle cx="252.0" cy="22" data-cv-key="Newry and Armagh" r="10" /><circle cx="274.0" cy="22" data-cv-key="South Down" r="10" /><circle cx="296.0" cy="22" data-cv-key="West Tyrone" r="10" /></g><g data-cv-view="Green Party" id="Green Party" style="fill:#DC241F; stroke:none"><circle cx="318.0" cy="22" data-cv-key="Brighton, Pavilion" r="10" /></g><g data-cv-view="Independent" id="Independent" style="fill:#0087DC; stroke:none"><circle cx="340.0" cy="22" data-cv-key="North Down" r="10" /></g><g data-cv-view="Speaker" id="Speaker" style="fill:#008142; stroke:none"><circle cx="10" cy="310" data-cv-key="Buckingham" r="10" /></g></g></svg>