<svg xmlns="http://www.w3.org/2000/svg" style="enable-background:new 0 0 32 32" viewBox="0 0 32 32"><style/><path d="M30 8.4V2s-9.6-.1-13.9 8c-.4.7-.8 1.4-1.3 1.9-2.2-2.4-2.7-5.4-4.3-7C8.1 2.3 4.4 2 2.8 2H2v13.9c2.8 0 5 .1 6.7.3C5.2 17.4 2 17 2 17v5s6.9.4 11.9-4.1c.6.5 1.2 1.1 1.8 1.8C10.9 25.5 2 24.9 2 24.9v5s8.5.5 13.5-5.8c.6-.7 1.2-1.4 1.7-2.1.2.4.4.8.7 1.2 3.5 6.4 10.4 6.8 11.8 6.8h.2V16h-.6c-1.8 0-3.7 0-5.3-.2 1.8-1 3.7-1.5 5.9-1.5V9.9s-6.4-.3-10.9 4.8c-.6-.2-1.2-.5-1.7-.8C21.2 9.6 24 8.4 30 8.4zM18.1 16c.7.3 1.5.6 2.4.8.5.1 1 .2 1.6.3 1.6.2 3.7.4 6.4.4v10.9c-2.3-.3-6.7-1.4-9.3-5.9-.3-.6-.7-1.2-1-1.7-.6-.9-1.1-1.7-1.6-2.4-.5-.6-1.1-1.2-1.6-1.6-1-.8-2.3-1.4-3.8-1.7-1.9-.4-4.4-.6-7.7-.6V3.6c1.6.1 4.2.6 6 2.5.6.6 1 1.5 1.5 2.5.7 1.4 1.5 3 2.9 4.5.7.7 1.5 1.4 2.5 2 .5.3 1.1.6 1.7.9z" id="icon"/></svg>