<svg xmlns="http://www.w3.org/2000/svg" viewBox="0 0 32 32"><path d="M26.9 23.6l3.1-3.1-2-2-2.5 2.5-.2.2-.3.3-1.2-1.3L22 22l1.3 1.3-.3.3-.3.2-.7.6-.2.2-.9.9-1 1 2 2 1-1 2.1-2.1 1.7 1.7 1.8-1.8-1.6-1.7zM22.5 27l-1-1 .9-.9.5.5.2-.2-.5-.5.4-.4.5.5.2-.2-.5-.5.3-.3 1 1-2 2zm3.9-3.9L25.3 22l.3-.3.5.5.2-.2-.4-.5 2-2 1 1-2.5 2.6zm-6.484-2.805l1.839-1.839.919.92-1.839 1.838zM28.3 27.8l1.7.7-.7-1.7z"/><path d="M28 20.2c-.2 0-.3.1-.3.3s.1.3.3.3.3-.1.3-.3-.2-.3-.3-.3zm-6.3-9.7l4.3 4.3 1.4-1.4-5.7-5.7-10 10-4.3-4.3L6 14.8l5.7 5.7zM2 5.5h2v22H2z"/><path d="M2 25.5h16v2H2z"/></svg>