<svg xmlns="http://www.w3.org/2000/svg" xmlns:svg="http://www.w3.org/2000/svg" viewBox="0 0 278.24 176.94"><g id="layer1" transform="translate(4.9458694,-6.1444266)"><path style="fill:none;stroke:#000;stroke-width:.26458332px;stroke-linecap:butt;stroke-linejoin:miter;stroke-opacity:1" id="path80" d="m 13.229167,10.494047 9.82738,3.779762 1.889881,6.803572 c 0,0 1.511905,-3.02381 2.267857,-5.669643 0.755954,-2.645834 -1.88988,-9.0714287 -1.88988,-9.0714287 l 24.190476,6.0476187 -10.205357,27.970237 -22.678572,-6.80357 1.133929,-6.425597 -7.559524,-2.267856 z" data-cv-key="WA"/><path style="fill:none;stroke:#000;stroke-width:.26458332px;stroke-linecap:butt;stroke-linejoin:miter;stroke-opacity:1" id="path82" d="m 51.499256,13.612351 -9.921875,27.686755 0.850445,2.55134 -5.764136,15.68601 24.284969,5.858632 5.858632,-19.938243 -6.04762,-0.897694 -2.173362,-12.945686 -3.118305,0.897695 3.68527,-8.88244 -6.236608,-6.331102 1.228423,-3.401785 z" data-cv-key="ID"/><path style="fill:none;stroke:#000;stroke-width:.26458332px;stroke-linecap:butt;stroke-linejoin:miter;stroke-opacity:1" id="path84" d="m 56.176711,14.462797 -1.27567,2.976562 6.331101,5.669643 -2.882069,6.614583 1.748141,-1.228423 2.175584,13.930614 5.100458,0.904951 0.755951,-2.031621 23.718007,5.10268 6.047618,-25.702382 z" data-cv-key="MT"/><path style="fill:none;stroke:#000;stroke-width:.26458332px;stroke-linecap:butt;stroke-linejoin:miter;stroke-opacity:1" id="path86" d="m 62.649552,69.080355 7.107793,-25.184599 22.941314,4.679391 -7.039805,25.749627 z" data-cv-key="WY"/><path style="fill:none;stroke:#000;stroke-width:.26458332px;stroke-linecap:butt;stroke-linejoin:miter;stroke-opacity:1" id="path88" d="M 99.454981,20.982886 119.0625,22.211309 V 47.535713 L 93.410698,46.301183 Z" data-cv-key="ND"/><path style="fill:none;stroke:#000;stroke-width:.26458332px;stroke-linecap:butt;stroke-linejoin:miter;stroke-opacity:1" id="path90" d="m 94.813865,48.372521 -4.440982,17.109997 18.801967,0.648605 7.33631,5.500573 2.4096,-22.158855 z" data-cv-key="SD"/><path style="fill:none;stroke:#000;stroke-width:.26458332px;stroke-linecap:butt;stroke-linejoin:miter;stroke-opacity:1" id="path92" d="m 119.60311,67.28184 1.93771,-19.109772 -0.46773,-25.925143 11.96032,-0.534539 1.60361,-3.0736 1.46998,2.605878 1.93771,1.135896 2.40542,-0.26727 16.59898,7.279566 -10.01637,9.260416 -0.56697,6.614584 -3.59077,1.322916 -0.75595,12.284226 5.10267,8.126489 z" data-cv-key="MN"/><path style="fill:none;stroke:#000;stroke-width:.26458332px;stroke-linecap:butt;stroke-linejoin:miter;stroke-opacity:1" id="path94" d="m 144.65963,58.729215 0.33409,-10.623962 3.4745,-2.071341 0.26727,-6.280833 5.34539,-2.33861 0.60136,2.204974 13.63074,5.746295 -2.47224,7.684 3.67496,-4.075861 -3.14042,6.080382 -0.26727,20.3793 -16.70435,0.935445 0.0668,-10.356693 z" data-cv-key="WI"/><path style="fill:none;stroke:#000;stroke-width:.26458332px;stroke-linecap:butt;stroke-linejoin:miter;stroke-opacity:1" id="path96" d="m 156.01859,36.47428 5.67947,-6.008817 -0.60135,2.939966 c 0,0 6.48128,2.472243 7.14946,2.271789 0.66817,-0.200451 8.21853,-2.605876 8.21853,-2.605876 l -0.13363,1.870885 4.47676,0.133635 0.33409,3.942225 -2.60588,0.467722 -8.35217,4.900598 -13.59832,-5.691517 z" data-cv-key="MI"/><path style="fill:none;stroke:#000;stroke-width:.26458332px;stroke-linecap:butt;stroke-linejoin:miter;stroke-opacity:1" id="path98" d="m 149.77306,78.624254 16.63096,-0.755951 1.5119,4.441219 -0.75595,17.386905 -5.00819,7.181553 -3.1183,0.18898 -0.18899,-3.2128 -5.95312,-4.724698 1.70089,-2.55134 -8.12649,-5.008184 -0.28348,-6.142111 3.30729,-2.834823 z" data-cv-key="IL"/><path style="fill:none;stroke:#000;stroke-width:.26458332px;stroke-linecap:butt;stroke-linejoin:miter;stroke-opacity:1" id="path100" d="m 115.61347,88.309896 26.41108,0.42522 v 0 0 l 1.6064,4.913693 6.80357,3.118303 -1.5119,2.456844 6.80357,5.008184 0.94494,4.8192 4.15774,0.0945 v 4.15774 l -3.59078,1.88988 -2.36235,-1.98437 -2.92931,-5.29167 -40.20722,-0.14174 z" data-cv-key="MO"/><path style="fill:none;stroke:#000;stroke-width:.26458332px;stroke-linecap:butt;stroke-linejoin:miter;stroke-opacity:1" id="path102" d="m 89.816592,67.946428 18.568078,1.039434 7.27604,5.480656 -3.96875,18.804313 -27.26153,-5.575148 z" data-cv-key="NE"/><path style="fill:none;stroke:#000;stroke-width:.26458332px;stroke-linecap:butt;stroke-linejoin:miter;stroke-opacity:1" id="path104" d="m 9.7553377,27.057776 5.0781213,1.670436 -0.868626,6.214015 24.922884,7.015826 0.935442,2.338607 c 0,0 -5.011303,15.234364 -5.679477,14.566191 C 33.475509,58.194675 5.3453905,50.44386 5.3453905,50.44386 L 4.5435818,47.236625 Z" data-cv-key="OR"/><path style="fill:none;stroke:#000;stroke-width:.26458332px;stroke-linecap:butt;stroke-linejoin:miter;stroke-opacity:1" id="path106" d="m 5.1449385,52.448383 14.3657365,4.075858 -5.078121,12.695304 13.630745,24.889474 2.33861,7.784221 -8.485808,6.1472 2.138156,4.27632 L 8.2853553,108.84225 2.6726951,94.409698 -4.8108515,81.31349 -3.4745038,63.940972 -0.26726951,60.466467 -4.2763125,55.655617 Z" data-cv-key="CA"/><path style="fill:none;stroke:#000;stroke-width:.26458332px;stroke-linecap:butt;stroke-linejoin:miter;stroke-opacity:1" id="path108" d="M 21.916101,57.793772 47.841246,65.143683 39.154986,95.34514 36.482289,92.405175 33.67596,92.538811 31.805073,99.354184 30.067821,92.939715 17.10525,69.152727 Z" data-cv-key="NV"/><path style="fill:none;stroke:#000;stroke-width:.26458332px;stroke-linecap:butt;stroke-linejoin:miter;stroke-opacity:1" id="path110" d="m 50.034598,65.631323 c 2.07887,0.566964 10.158108,2.126116 10.158108,2.126116 l -0.897692,3.212798 7.843007,1.74814 -7.134303,23.670759 -17.386903,-3.874257 z" data-cv-key="UT"/><path style="fill:none;stroke:#000;stroke-width:.26458332px;stroke-linecap:butt;stroke-linejoin:miter;stroke-opacity:1" id="path112" d="m 34.962798,94.720667 -2.529394,9.188853 -7.44407,4.56339 2.062657,4.16346 9.706193,6.52583 15.780506,3.40179 c 0.472469,-0.66146 6.898066,-23.71801 6.898066,-23.71801 l -17.103423,-4.157737 -0.755952,3.212796 -2.362351,0.188989 -2.929315,-3.118302 z" data-cv-key="AZ"/><path style="fill:none;stroke:#000;stroke-width:.26458332px;stroke-linecap:butt;stroke-linejoin:miter;stroke-opacity:1" id="path114" d="m 69.169642,73.049105 15.827754,3.590774 -6.945314,22.962055 -15.68601,-2.834822 z" data-cv-key="UT"/><path style="fill:none;stroke:#000;stroke-width:.26458332px;stroke-linecap:butt;stroke-linejoin:miter;stroke-opacity:1" id="path116" d="m 55.007,121.82227 6.697613,-22.787301 13.890625,2.456841 -5.535315,20.67197 -7.587895,-2.0424 -0.496093,1.37017 -4.606585,-1.08669 -0.661458,1.88988 z" data-cv-key="NM"/><path style="fill:none;stroke:#000;stroke-width:.26458332px;stroke-linecap:butt;stroke-linejoin:miter;stroke-opacity:1" id="path118" d="m 52.633185,124.7846 18.568078,0.10931 5.905877,-21.51222 10.42363,1.98606 -2.138157,10.69078 2.138157,1.46998 12.428032,3.34087 9.119588,-2.24748 6.78295,3.71746 -0.33466,14.93885 3.04928,4.95791 -1.85468,11.48449 -8.20985,-1.17979 -12.428036,8.81989 -0.534538,-2.13815 -7.349913,6.1472 -2.271792,7.34991 2.004523,6.5481 -1.336349,1.06908 -9.621703,-5.7463 v -7.88445 l -5.34539,-19.2434 -8.285356,-6.28084 -6.013563,6.1472 -7.082642,-6.81537 0.668173,-5.07812 -6.147199,-12.02713 z" data-cv-key="TX"/><path style="fill:none;stroke:#000;stroke-width:.26458332px;stroke-linecap:butt;stroke-linejoin:miter;stroke-opacity:1" id="path120" d="m 83.645864,90.038889 27.538256,5.306251 -1.5449,7.98983 -28.841608,-5.340639 z" data-cv-key="KS"/><path style="fill:none;stroke:#000;stroke-width:.26458332px;stroke-linecap:butt;stroke-linejoin:miter;stroke-opacity:1" id="path122" d="m 79.48304,102.16387 0.546002,-2.29472 29.284198,6.16677 0.3471,10.38595 -9.78013,2.59859 -11.197546,-2.88207 -1.370165,-0.85045 2.645834,-11.15029 z" data-cv-key="OK"/><path style="fill:none;stroke:#000;stroke-width:.26458332px;stroke-linecap:butt;stroke-linejoin:miter;stroke-opacity:1" id="path124" d="m 112.08715,117.53522 -0.0472,-6.79105 36.96286,-0.2983 6.28083,7.34991 4.27632,0.93544 -3.0736,5.21176 -3.4745,2.00452 -1.60362,2.80633 -2.6727,6.1472 -31.40417,-0.26727 v 0 l 0.42105,-13.89802 v 0 z" data-cv-key="AR"/><path style="fill:none;stroke:#000;stroke-width:.26458332px;stroke-linecap:butt;stroke-linejoin:miter;stroke-opacity:1" id="path126" d="m 116.18043,86.467261 3.1183,-15.875 26.88356,-1.13393 0.37798,11.433781 -4.53572,5.102677 z" data-cv-key="IA"/><path style="fill:none;stroke:#000;stroke-width:.26458332px;stroke-linecap:butt;stroke-linejoin:miter;stroke-opacity:1" id="path130" d="m 118.68452,153.93601 1.79539,-12.28423 -3.16555,-4.7247 30.66332,1.7009 -5.29167,10.77232 h 10.96131 c 0,0 3.77976,5.10268 2.83482,5.10268 -0.94494,0 -6.61458,1.70089 -6.61458,1.70089 l 3.40178,5.48065 4.72471,-1.13393 0.75595,4.53572 -8.31548,0.75595 -14.55208,-10.01637 z" data-cv-key="LA"/><path style="fill:none;stroke:#000;stroke-width:.26458332px;stroke-linecap:butt;stroke-linejoin:miter;stroke-opacity:1" id="path132" d="m 147.97768,146.56548 c 1.13393,-0.56697 7.9375,-17.19792 7.9375,-17.19792 l 12.85119,0.18899 3.59077,24.75744 -10.39434,2.45684 -4.34673,-9.07143 z" data-cv-key="MS"/><path style="fill:none;stroke:#000;stroke-width:.26458332px;stroke-linecap:butt;stroke-linejoin:miter;stroke-opacity:1" id="path134" d="m 157.95629,127.41748 4.40995,-8.55262 42.62948,-9.2208 -0.26726,4.81085 -5.87993,2.6727 -3.20724,4.81085 -6.94901,5.61266 -0.26727,0.53454 z" data-cv-key="TN"/><path style="fill:none;stroke:#000;stroke-width:.26458332px;stroke-linecap:butt;stroke-linejoin:miter;stroke-opacity:1" id="path136" d="m 190.22908,129.08792 c 0.33409,0.0668 6.81538,-5.27858 6.81538,-5.27858 l 2.80633,-4.6104 6.48128,-3.07359 0.80181,-6.61493 50.2679,-8.30209 0.51331,3.09034 -12.2944,8.81989 1.06908,1.87089 17.90705,-5.87993 -3.47449,10.95805 -5.87993,2.27179 -4.27631,6.28084 -4.27632,6.41446 -4.81085,0.53454 -14.43255,-8.01808 -11.75987,2.67269 -2.13815,-5.07812 -9.6217,2.40543 -12.16077,2.27179 z" data-cv-key="NC"/><path style="fill:none;stroke:#000;stroke-width:.26458332px;stroke-linecap:butt;stroke-linejoin:miter;stroke-opacity:1" id="path138" d="m 174.32655,154.21125 -3.94223,-24.52198 17.03843,0.80181 4.2095,21.31475 -11.42577,1.33635 -0.60136,1.80406 1.26953,2.60588 -1.26953,0.13364 -1.80407,-3.00679 -1.00226,0.0668 -1.1359,2.53906 z" data-cv-key="AL"/><path style="fill:none;stroke:#000;stroke-width:.26458332px;stroke-linecap:butt;stroke-linejoin:miter;stroke-opacity:1" id="path142" d="m 190.12202,132.01339 10.67783,-1.41741 10.29985,12.85119 -0.75595,8.97693 -15.49703,2.55134 z" data-cv-key="GA"/><path style="fill:none;stroke:#000;stroke-width:.26458332px;stroke-linecap:butt;stroke-linejoin:miter;stroke-opacity:1" id="path144" d="m 213.55655,142.40774 v 0 l -10.11087,-11.81176 7.9375,-1.41741 2.26786,3.87426 13.60714,-3.11831 12.7567,7.46503 z" data-cv-key="SC"/><path style="fill:none;stroke:#000;stroke-width:.26458332px;stroke-linecap:butt;stroke-linejoin:miter;stroke-opacity:1" id="path146" d="m 182.01055,155.01306 c 1.40316,0 9.95579,-1.26953 9.95579,-1.26953 l 1.00226,4.27631 17.43933,-2.60588 5.51244,17.30571 -0.70158,2.27179 v 0 0 l -2.33862,7.55036 -3.67495,0.4009 -2.47224,-5.47902 c 0,0 -0.40091,1.26953 -0.60136,1.00226 -0.20045,-0.26727 -2.60588,-4.34313 -2.60588,-4.34313 l 1.00226,-6.74855 -4.54358,-6.48129 -3.74177,0.66817 -0.66817,1.46999 -7.41674,1.13589 -0.53453,-1.9377 -3.00679,-5.14494 -2.07133,0.20045 z" data-cv-key="FL"/><path style="fill:none;stroke:#000;stroke-width:.26458332px;stroke-linecap:butt;stroke-linejoin:miter;stroke-opacity:1" id="path150" d="m 181.33407,41.582587 7.55953,4.346729 -5.76414,9.921873 0.94494,4.535715 c 0,0 3.59078,0.944941 3.59078,-0.188989 0,-1.133928 3.21279,-5.858629 3.21279,-5.858629 h 2.26786 l 3.40179,11.71726 c 0,0 -3.59078,10.016368 -4.34673,10.016368 -0.75595,0 -19.56305,3.203301 -19.56305,3.203301 l 5.19996,-13.97562 -0.0945,-14.835567 z" data-cv-key="MI"/><path style="fill:none;stroke:#000;stroke-width:.26458332px;stroke-linecap:butt;stroke-linejoin:miter;stroke-opacity:1" id="path152" d="m 169.98342,82.382568 c 0.86862,0 12.22758,-2.873147 12.22758,-2.873147 l 3.54132,16.236624 -2.80633,7.483545 -2.6727,-1.06908 -1.80407,2.6727 -1.80407,-1.20271 -4.61039,2.73951 -1.00226,-2.00452 -2.00452,-5.078124 z" data-cv-key="IN"/><path style="fill:none;stroke:#000;stroke-width:.26458332px;stroke-linecap:butt;stroke-linejoin:miter;stroke-opacity:1" id="path154" d="m 188.23214,95.255206 -3.96875,-15.969493 5.57515,-0.566965 5.38616,1.322916 8.40997,-4.346725 2.55134,10.488839 -3.40179,8.315476 -1.70089,-1.039434 -2.45684,4.441219 -3.02381,-2.173361 z" data-cv-key="OH"/><path style="fill:none;stroke:#000;stroke-width:.26458332px;stroke-linecap:butt;stroke-linejoin:miter;stroke-opacity:1" id="path156" d="m 163.83622,114.98945 0.80181,-6.1472 3.0889,-2.34225 2.07887,3.1183 5.76414,-2.55134 3.40178,1.70089 2.17337,-2.92931 3.02381,0.66146 3.49628,-7.181548 6.52009,0.377975 4.06324,2.362353 5.57515,1.22842 0.47247,4.15774 z" data-cv-key="KY"/><path style="fill:none;stroke:#000;stroke-width:.26458332px;stroke-linecap:butt;stroke-linejoin:miter;stroke-opacity:1" id="path158" d="m 206.53253,75.16629 2.27179,-2.071338 1.26953,2.405425 23.32645,-8.49889 3.30729,4.252233 -1.41741,9.921874 2.83482,3.874257 -26.64732,5.291667 z" data-cv-key="PA"/><path style="fill:none;stroke:#000;stroke-width:.26458332px;stroke-linecap:butt;stroke-linejoin:miter;stroke-opacity:1" id="path160" d="m 239.06994,72.671129 2.92931,2.362351 -1.32291,5.10268 3.02381,1.133928 0.28348,3.685267 -2.64583,7.276042 -4.63021,-1.984375 -1.79539,-1.606399 5.95312,-2.929314 -3.49627,-4.91369 z" data-cv-key="NJ"/><path style="fill:none;stroke:#000;stroke-width:.26458332px;stroke-linecap:butt;stroke-linejoin:miter;stroke-opacity:1" id="path162" d="m 233.77352,89.968289 2.64584,1.606399 2.07886,3.401785 -1.36959,1.428875 z" data-cv-key="DE"/><path style="fill:none;stroke:#000;stroke-width:.26458332px;stroke-linecap:butt;stroke-linejoin:miter;stroke-opacity:1" id="path164" d="m 240.77001,99.866422 -4.25223,0.755948 -1.88988,-5.858628 -1.41741,-0.661458 2.15912,7.423926 4.44596,1.67322 z" data-cv-key="MD"/><path style="fill:none;stroke:#000;stroke-width:.26458332px;stroke-linecap:butt;stroke-linejoin:miter;stroke-opacity:1" id="path168" d="m 208.26488,89.396577 c 0,0.188986 1.79538,3.118302 1.79538,3.118302 l 4.96094,-1.370163 0.75596,4.535715 5.48065,-3.071059 1.79539,1.511906 0.18898,1.748139 -2.12611,-1.937128 -4.11049,2.315104 -0.56697,3.779767 -1.88988,5.76413 -8.26823,1.84264 -0.89769,-5.85863 -5.95313,-1.6064 2.31511,-4.204989 2.12612,0.755954 3.49627,-10.536087 z" data-cv-key="WV"/><path style="fill:none;stroke:#000;stroke-width:.26458332px;stroke-linecap:butt;stroke-linejoin:miter;stroke-opacity:1" id="path170" d="m 216.48831,106.30319 2.20498,-8.418989 2.33861,-1.336347 4.20949,2.004519 -0.80181,-4.744029 6.61493,-1.67044 3.4745,11.225326 z" data-cv-key="VA"/><path style="fill:none;stroke:#000;stroke-width:.26458332px;stroke-linecap:butt;stroke-linejoin:miter;stroke-opacity:1" id="path172" d="m 211.67746,72.760866 c 0.93545,-0.400905 23.11882,-9.087165 23.11882,-9.087165 l 2.40542,3.875407 5.07812,3.741775 1.33635,-2.672697 -2.40542,-23.118812 -10.82442,2.672694 -5.07812,7.750818 1.60362,4.009043 -2.53906,2.539061 -10.02261,3.340867 0.66817,2.138156 -3.74177,2.539061 z" data-cv-key="NY"/><path style="fill:none;stroke:#000;stroke-width:.26458332px;stroke-linecap:butt;stroke-linejoin:miter;stroke-opacity:1" id="path174" d="m 243.88344,45.365738 7.21628,-2.138156 1.06908,2.939965 -4.27632,14.031651 c 0,0 -2.93996,0.935442 -2.93996,0.400904 0,-0.53454 -1.06908,-15.234364 -1.06908,-15.234364 z" data-cv-key="VT"/><path style="fill:none;stroke:#000;stroke-width:.26458332px;stroke-linecap:butt;stroke-linejoin:miter;stroke-opacity:1" id="path176" d="m 246.0216,63.406432 11.75986,-4.677217 2.80633,7.216278 -2.13816,0.935442 -3.0736,-2.539061 -9.15398,3.34087 z" data-cv-key="MA"/><path style="fill:none;stroke:#000;stroke-width:.26458332px;stroke-linecap:butt;stroke-linejoin:miter;stroke-opacity:1" id="path178" d="m 245.15297,73.562675 0.93545,-4.142679 6.81537,-2.338607 0.26727,3.808589 z" data-cv-key="CT"/><path style="fill:none;stroke:#000;stroke-width:.26458332px;stroke-linecap:butt;stroke-linejoin:miter;stroke-opacity:1" id="path180" d="m 255.2424,68.952273 -0.20046,-1.937702 3.00678,1.336347 -1.33634,1.937705 z" data-cv-key="RI"/><path style="fill:none;stroke:#000;stroke-width:.26458332px;stroke-linecap:butt;stroke-linejoin:miter;stroke-opacity:1" id="path182" d="m 251.09972,59.330571 3.34087,-12.695301 -1.73726,-3.674957 1.1359,-4.142676 h 1.1359 l 1.60361,13.764379 1.60362,1.135896 1.00226,1.804069 -1.26953,1.737252 z" data-cv-key="NH"/><path style="fill:none;stroke:#000;stroke-width:.26458332px;stroke-linecap:butt;stroke-linejoin:miter;stroke-opacity:1" id="path184" d="m 258.51645,51.847024 -1.80407,-13.697563 3.87541,-15.902536 7.75082,-3.741773 4.81084,19.777944 -10.82441,12.561668 0.4009,5.479026 -1.13392,0.09449 z" data-cv-key="ME"/></g></svg>