<svg xmlns="http://www.w3.org/2000/svg" id="svg8" width="1281.625" height="819.31" version="1.1" viewBox="0 0 339.097 216.776"><metadata id="metadata5"/><g id="layer1" transform="translate(13.021207,-23.348742)"><g id="Widwest" data-cv-view="MIDWEST" title="Midwest region"><path style="fill:#ccc;stroke:#000;stroke-width:.26458332" id="use3947" d="m 113.63481,114.11957 -12.97233,7.34969 -12.851192,-7.55952 0.121145,-14.90922 12.972337,-7.349695 12.85119,7.559523 z" data-cv-key="ND"/><path style="fill:#ccc;stroke:#000;stroke-width:.26458332" id="use3963" d="m 139.45833,114.32939 -12.97233,7.3497 -12.85119,-7.55953 0.12114,-14.909217 12.97233,-7.349695 12.85119,7.559524 z" data-cv-key="MN"/><path style="fill:#ccc;stroke:#000;stroke-width:.26458332" id="use3965" d="m 126.36485,136.5883 -12.97234,7.3497 -12.85119,-7.55953 0.12115,-14.90922 12.97233,-7.34969 12.85119,7.55952 z" data-cv-key="SD"/><path style="fill:#ccc;stroke:#000;stroke-width:.26458332" id="use3967" d="m 139.0949,159.05705 -12.97233,7.3497 -12.85119,-7.55953 0.12114,-14.90922 12.97234,-7.34969 12.85119,7.55952 z" data-cv-key="NE"/><path style="fill:#ccc;stroke:#000;stroke-width:.26458332" id="use3979" d="m 165.28185,114.53922 -12.97233,7.3497 -12.85119,-7.55953 0.12114,-14.909215 12.97234,-7.349696 12.85119,7.559524 z" data-cv-key="WI"/><path style="fill:#ccc;stroke:#000;stroke-width:.26458332" id="use3981" d="m 152.18838,136.79814 -12.97234,7.3497 -12.85119,-7.55953 0.12115,-14.90922 12.97233,-7.34969 12.85119,7.55952 z" data-cv-key="IA"/><path style="fill:#ccc;stroke:#000;stroke-width:.26458332" id="use3983" d="m 164.91842,159.26688 -12.97233,7.34969 -12.85119,-7.55952 0.12114,-14.90922 12.97233,-7.3497 12.85119,7.55953 z" data-cv-key="MO"/><path style="fill:#ccc;stroke:#000;stroke-width:.26458332" id="use3985" d="m 151.82494,181.52579 -12.97233,7.34969 -12.85119,-7.55952 0.12114,-14.90922 12.97234,-7.3497 12.85119,7.55953 z" data-cv-key="KS"/><path style="fill:#ccc;stroke:#000;stroke-width:.26458332" id="use3997" d="m 178.0119,137.00796 -12.97234,7.3497 -12.85119,-7.55952 0.12115,-14.90922 12.97233,-7.3497 12.85119,7.55953 z" data-cv-key="IL"/><path style="fill:#ccc;stroke:#000;stroke-width:.26458332" id="use4011" d="m 216.9289,114.95888 -12.97233,7.3497 -12.85119,-7.55952 0.12114,-14.909223 12.97234,-7.349695 12.85119,7.559528 z" data-cv-key="MI"/><path style="fill:#ccc;stroke:#000;stroke-width:.26458332" id="use4013" d="m 203.83541,137.21779 -12.97233,7.34969 -12.85119,-7.55952 0.12114,-14.90922 12.97234,-7.34969 12.85119,7.55952 z" data-cv-key="IN"/><path style="fill:#ccc;stroke:#000;stroke-width:.26458332" id="use4029" d="m 229.65894,137.42763 -12.97233,7.34969 -12.85119,-7.55952 0.12114,-14.90922 12.97234,-7.3497 12.85119,7.55953 z" data-cv-key="OH"/><text id="text10500" x="92.544" y="110.418" xml:space="preserve" style="font-style:normal;font-weight:400;font-size:10.58333302px;line-height:1.25;font-family:sans-serif;letter-spacing:0;word-spacing:0;fill:#000;fill-opacity:1;stroke:none;stroke-width:.26458332"><tspan style="stroke-width:.26458332" id="tspan10498" x="92.544" y="110.418">ND</tspan></text><text id="text10504" x="118.081" y="110.628" xml:space="preserve" style="font-style:normal;font-weight:400;font-size:10.58333302px;line-height:1.25;font-family:sans-serif;letter-spacing:0;word-spacing:0;fill:#000;fill-opacity:1;stroke:none;stroke-width:.26458332"><tspan style="stroke-width:.26458332" id="tspan10502" x="118.081" y="110.628">MN</tspan></text><text id="text10508" x="106.044" y="132.881" xml:space="preserve" style="font-style:normal;font-weight:400;font-size:10.58333302px;line-height:1.25;font-family:sans-serif;letter-spacing:0;word-spacing:0;fill:#000;fill-opacity:1;stroke:none;stroke-width:.26458332"><tspan style="stroke-width:.26458332" id="tspan10506" x="106.044" y="132.881">SD</tspan></text><text id="text10512" x="133.681" y="133.096" xml:space="preserve" style="font-style:normal;font-weight:400;font-size:10.58333302px;line-height:1.25;font-family:sans-serif;letter-spacing:0;word-spacing:0;fill:#000;fill-opacity:1;stroke:none;stroke-width:.26458332"><tspan style="stroke-width:.26458332" id="tspan10510" x="133.681" y="133.096">IA</tspan></text><text id="text10516" x="145.984" y="110.837" xml:space="preserve" style="font-style:normal;font-weight:400;font-size:10.58333302px;line-height:1.25;font-family:sans-serif;letter-spacing:0;word-spacing:0;fill:#000;fill-opacity:1;stroke:none;stroke-width:.26458332"><tspan style="stroke-width:.26458332" id="tspan10514" x="145.984" y="110.837">WI</tspan></text><text id="text10520" x="197.949" y="111.257" xml:space="preserve" style="font-style:normal;font-weight:400;font-size:10.58333302px;line-height:1.25;font-family:sans-serif;letter-spacing:0;word-spacing:0;fill:#000;fill-opacity:1;stroke:none;stroke-width:.26458332"><tspan style="stroke-width:.26458332" id="tspan10518" x="197.949" y="111.257">MI</tspan></text><text id="text10524" x="160.161" y="133.306" xml:space="preserve" style="font-style:normal;font-weight:400;font-size:10.58333302px;line-height:1.25;font-family:sans-serif;letter-spacing:0;word-spacing:0;fill:#000;fill-opacity:1;stroke:none;stroke-width:.26458332"><tspan style="stroke-width:.26458332" id="tspan10522" x="160.161" y="133.306">IL</tspan></text><text id="text10528" x="185.465" y="133.516" xml:space="preserve" style="font-style:normal;font-weight:400;font-size:10.58333302px;line-height:1.25;font-family:sans-serif;letter-spacing:0;word-spacing:0;fill:#000;fill-opacity:1;stroke:none;stroke-width:.26458332"><tspan style="stroke-width:.26458332" id="tspan10526" x="185.465" y="133.516">IN</tspan></text><text id="text10532" x="208.886" y="133.721" xml:space="preserve" style="font-style:normal;font-weight:400;font-size:10.58333302px;line-height:1.25;font-family:sans-serif;letter-spacing:0;word-spacing:0;fill:#000;fill-opacity:1;stroke:none;stroke-width:.26458332"><tspan style="stroke-width:.26458332" id="tspan10530" x="208.886" y="133.721">OH</tspan></text><text id="text10536" x="118.761" y="155.355" xml:space="preserve" style="font-style:normal;font-weight:400;font-size:10.58333302px;line-height:1.25;font-family:sans-serif;letter-spacing:0;word-spacing:0;fill:#000;fill-opacity:1;stroke:none;stroke-width:.26458332"><tspan style="stroke-width:.26458332" id="tspan10534" x="118.761" y="155.355">NE</tspan></text><text id="text10540" x="131.917" y="177.819" xml:space="preserve" style="font-style:normal;font-weight:400;font-size:10.58333302px;line-height:1.25;font-family:sans-serif;letter-spacing:0;word-spacing:0;fill:#000;fill-opacity:1;stroke:none;stroke-width:.26458332"><tspan style="stroke-width:.26458332" id="tspan10538" x="131.917" y="177.819">KS</tspan></text><text id="text10544" x="143.112" y="155.56" xml:space="preserve" style="font-style:normal;font-weight:400;font-size:10.58333302px;line-height:1.25;font-family:sans-serif;letter-spacing:0;word-spacing:0;fill:#000;fill-opacity:1;stroke:none;stroke-width:.26458332"><tspan style="stroke-width:.26458332" id="tspan10542" x="143.112" y="155.56">MO</tspan></text></g><g id="South" data-cv-view="SOUTH" title="South region"><path style="fill:#b3b3b3;stroke:#000;stroke-width:.26458332" id="use3971" d="m 138.73147,203.7847 -12.97233,7.34969 -12.85119,-7.55952 0.12114,-14.90922 12.97233,-7.34969 12.85119,7.55952 z" data-cv-key="OK"/><path style="fill:#b3b3b3;stroke:#000;stroke-width:.26458332" id="use3987" d="m 164.55499,203.99454 -12.97234,7.34969 -12.85119,-7.55952 0.12115,-14.90922 12.97233,-7.3497 12.85119,7.55953 z" data-cv-key="LA"/><path style="fill:#b3b3b3;stroke:#000;stroke-width:.26458332" id="use3989" d="m 151.46151,226.25345 -12.97233,7.34969 -12.85119,-7.55952 0.12114,-14.90922 12.97234,-7.34969 12.85119,7.55952 z" data-cv-key="TX"/><path style="fill:#b3b3b3;stroke:#000;stroke-width:.26458332" id="use3999" d="m 190.74194,159.4767 -12.97234,7.34969 -12.85119,-7.55952 0.12115,-14.90922 12.97233,-7.34969 12.85119,7.55952 z" data-cv-key="KY"/><path style="fill:#b3b3b3;stroke:#000;stroke-width:.26458332" id="use4001" d="m 177.64848,181.73561 -12.97234,7.3497 -12.85119,-7.55953 0.12115,-14.90922 12.97233,-7.34969 12.85119,7.55952 z" data-cv-key="AR"/><path style="fill:#b3b3b3;stroke:#000;stroke-width:.26458332" id="use4003" d="m 190.3785,204.20436 -12.97233,7.3497 -12.85119,-7.55953 0.12114,-14.90922 12.97234,-7.34969 12.85119,7.55952 z" data-cv-key="MS"/><path style="fill:#b3b3b3;stroke:#000;stroke-width:.26458332" id="use4015" d="m 216.56547,159.68654 -12.97234,7.34969 -12.85119,-7.55952 0.12115,-14.90922 12.97233,-7.34969 12.85119,7.55952 z" data-cv-key="WV"/><path style="fill:#b3b3b3;stroke:#000;stroke-width:.26458332" id="use4017" d="m 203.47199,181.94545 -12.97233,7.34969 -12.85119,-7.55952 0.12114,-14.90922 12.97234,-7.34969 12.85119,7.55952 z" data-cv-key="TN"/><path style="fill:#b3b3b3;stroke:#000;stroke-width:.26458332" id="use4019" d="m 216.20204,204.4142 -12.97234,7.34969 -12.85119,-7.55952 0.12115,-14.90922 12.97233,-7.34969 12.85119,7.55952 z" data-cv-key="AL"/><path style="fill:#b3b3b3;stroke:#000;stroke-width:.26458332" id="use4031" d="m 242.51138,159.81885 -12.97234,7.34969 -12.85119,-7.55952 0.12115,-14.90922 12.97233,-7.3497 12.85119,7.55953 z" data-cv-key="VA"/><path style="fill:#b3b3b3;stroke:#000;stroke-width:.26458332" id="use4033" d="m 229.29551,182.15529 -12.97233,7.34969 -12.85119,-7.55952 0.12114,-14.90922 12.97234,-7.34969 12.85119,7.55952 z" data-cv-key="NC"/><path style="fill:#b3b3b3;stroke:#000;stroke-width:.26458332" id="use4035" d="m 242.02557,204.62404 -12.97234,7.34969 -12.85119,-7.55952 0.12115,-14.90922 12.97233,-7.34969 12.85119,7.55952 z" data-cv-key="GA"/><path style="fill:#b3b3b3;stroke:#000;stroke-width:.26458332" id="use4037" d="m 228.93209,226.88295 -12.97233,7.34969 -12.85119,-7.55952 0.12114,-14.90922 12.97234,-7.34969 12.85119,7.55952 z" data-cv-key="FL"/><path style="fill:#b3b3b3;stroke:#000;stroke-width:.26458332" id="use4047" d="m 268.4573,160.21571 -12.97233,7.3497 -12.85119,-7.55953 0.12114,-14.90921 12.97233,-7.3497 12.85119,7.55952 z" data-cv-key="MD"/><path style="fill:#b3b3b3;stroke:#000;stroke-width:.26458332" id="use4049" d="m 255.36382,182.47462 -12.97233,7.3497 -12.85119,-7.55952 0.12114,-14.90922 12.97234,-7.3497 12.85119,7.55952 z" data-cv-key="SC"/><path style="fill:#b3b3b3;stroke:#000;stroke-width:.26458332" id="use4063" d="m 294.28082,160.42554 -12.97234,7.34969 -12.85119,-7.55952 0.12115,-14.90922 12.97233,-7.3497 12.85119,7.55953 z" data-cv-key="DE"/><path style="fill:#b3b3b3;stroke:#000;stroke-width:.26458332" id="use4065" d="m 281.18734,182.68445 -12.97233,7.34969 -12.85119,-7.55952 0.12114,-14.90922 12.97234,-7.3497 12.85119,7.55953 z" data-cv-key="DC"/><text id="text10646" x="273.833" y="156.724" xml:space="preserve" style="font-style:normal;font-weight:400;font-size:10.58333302px;line-height:1.25;font-family:sans-serif;letter-spacing:0;word-spacing:0;fill:#000;fill-opacity:1;stroke:none;stroke-width:.26458332"><tspan style="stroke-width:.26458332" id="tspan10644" x="273.833" y="156.724">DE</tspan></text><text id="text10698" x="131.931" y="222.552" xml:space="preserve" style="font-style:normal;font-weight:400;font-size:10.58333302px;line-height:1.25;font-family:sans-serif;letter-spacing:0;word-spacing:0;fill:#000;fill-opacity:1;stroke:none;stroke-width:.26458332"><tspan style="stroke-width:.26458332" id="tspan10696" x="131.931" y="222.552">TX</tspan></text><text id="text10702" x="209.593" y="223.181" xml:space="preserve" style="font-style:normal;font-weight:400;font-size:10.58333302px;line-height:1.25;font-family:sans-serif;letter-spacing:0;word-spacing:0;fill:#000;fill-opacity:1;stroke:none;stroke-width:.26458332"><tspan style="stroke-width:.26458332" id="tspan10700" x="209.593" y="223.181">FL</tspan></text><text id="text10694" x="221.198" y="200.917" xml:space="preserve" style="font-style:normal;font-weight:400;font-size:10.58333302px;line-height:1.25;font-family:sans-serif;letter-spacing:0;word-spacing:0;fill:#000;fill-opacity:1;stroke:none;stroke-width:.26458332"><tspan style="stroke-width:.26458332" id="tspan10692" x="221.198" y="200.917">GA</tspan></text><text id="text10690" x="196.772" y="200.712" xml:space="preserve" style="font-style:normal;font-weight:400;font-size:10.58333302px;line-height:1.25;font-family:sans-serif;letter-spacing:0;word-spacing:0;fill:#000;fill-opacity:1;stroke:none;stroke-width:.26458332"><tspan style="stroke-width:.26458332" id="tspan10688" x="196.772" y="200.712">AL</tspan></text><text id="text10686" x="169.375" y="200.497" xml:space="preserve" style="font-style:normal;font-weight:400;font-size:10.58333302px;line-height:1.25;font-family:sans-serif;letter-spacing:0;word-spacing:0;fill:#000;fill-opacity:1;stroke:none;stroke-width:.26458332"><tspan style="stroke-width:.26458332" id="tspan10684" x="169.375" y="200.497">MS</tspan></text><text id="text10682" x="144.539" y="200.293" xml:space="preserve" style="font-style:normal;font-weight:400;font-size:10.58333302px;line-height:1.25;font-family:sans-serif;letter-spacing:0;word-spacing:0;fill:#000;fill-opacity:1;stroke:none;stroke-width:.26458332"><tspan style="stroke-width:.26458332" id="tspan10680" x="144.539" y="200.293">LA</tspan></text><text id="text10678" x="117.837" y="200.078" xml:space="preserve" style="font-style:normal;font-weight:400;font-size:10.58333302px;line-height:1.25;font-family:sans-serif;letter-spacing:0;word-spacing:0;fill:#000;fill-opacity:1;stroke:none;stroke-width:.26458332"><tspan style="stroke-width:.26458332" id="tspan10676" x="117.837" y="200.078">OK</tspan></text><text id="text10674" x="235.397" y="178.768" xml:space="preserve" style="font-style:normal;font-weight:400;font-size:10.58333302px;line-height:1.25;font-family:sans-serif;letter-spacing:0;word-spacing:0;fill:#000;fill-opacity:1;stroke:none;stroke-width:.26458332"><tspan style="stroke-width:.26458332" id="tspan10672" x="235.397" y="178.768">SC</tspan></text><text id="text10670" x="208.559" y="178.448" xml:space="preserve" style="font-style:normal;font-weight:400;font-size:10.58333302px;line-height:1.25;font-family:sans-serif;letter-spacing:0;word-spacing:0;fill:#000;fill-opacity:1;stroke:none;stroke-width:.26458332"><tspan style="stroke-width:.26458332" id="tspan10668" x="208.559" y="178.448">NC</tspan></text><text id="text10666" x="183.962" y="178.244" xml:space="preserve" style="font-style:normal;font-weight:400;font-size:10.58333302px;line-height:1.25;font-family:sans-serif;letter-spacing:0;word-spacing:0;fill:#000;fill-opacity:1;stroke:none;stroke-width:.26458332"><tspan style="stroke-width:.26458332" id="tspan10664" x="183.962" y="178.244">TN</tspan></text><text id="text10662" x="157.614" y="178.034" xml:space="preserve" style="font-style:normal;font-weight:400;font-size:10.58333302px;line-height:1.25;font-family:sans-serif;letter-spacing:0;word-spacing:0;fill:#000;fill-opacity:1;stroke:none;stroke-width:.26458332"><tspan style="stroke-width:.26458332" id="tspan10660" x="157.614" y="178.034">AR</tspan></text><text id="text10626" x="170.842" y="155.775" xml:space="preserve" style="font-style:normal;font-weight:400;font-size:10.58333302px;line-height:1.25;font-family:sans-serif;letter-spacing:0;word-spacing:0;fill:#000;fill-opacity:1;stroke:none;stroke-width:.26458332"><tspan style="stroke-width:.26458332" id="tspan10624" x="170.842" y="155.775">KY</tspan></text><text id="text10630" x="194.733" y="155.985" xml:space="preserve" style="font-style:normal;font-weight:400;font-size:10.58333302px;line-height:1.25;font-family:sans-serif;letter-spacing:0;word-spacing:0;fill:#000;fill-opacity:1;stroke:none;stroke-width:.26458332"><tspan style="stroke-width:.26458332" id="tspan10628" x="194.733" y="155.985">WV</tspan></text><text id="text10634" x="222.761" y="156.117" xml:space="preserve" style="font-style:normal;font-weight:400;font-size:10.58333302px;line-height:1.25;font-family:sans-serif;letter-spacing:0;word-spacing:0;fill:#000;fill-opacity:1;stroke:none;stroke-width:.26458332"><tspan style="stroke-width:.26458332" id="tspan10632" x="222.761" y="156.117">VA</tspan></text><text id="text10638" x="246.757" y="156.514" xml:space="preserve" style="font-style:normal;font-weight:400;font-size:10.58333302px;line-height:1.25;font-family:sans-serif;letter-spacing:0;word-spacing:0;fill:#000;fill-opacity:1;stroke:none;stroke-width:.26458332"><tspan style="stroke-width:.26458332" id="tspan10636" x="246.757" y="156.514">MD</tspan></text><text id="text10642" x="260.337" y="178.977" xml:space="preserve" style="font-style:normal;font-weight:400;font-size:10.58333302px;line-height:1.25;font-family:sans-serif;letter-spacing:0;word-spacing:0;fill:#000;fill-opacity:1;stroke:none;stroke-width:.26458332"><tspan style="stroke-width:.26458332" id="tspan10640" x="260.337" y="178.977">DC</tspan></text></g><g id="Northeast" data-cv-view="NORTHEAST" title="Northeast region"><path style="fill:#999;stroke:#000;stroke-width:.26458332" id="use4043" d="m 268.69833,115.30102 -12.97234,7.34969 -12.85119,-7.55952 0.12115,-14.90922 12.97233,-7.349695 12.85119,7.559525 z" data-cv-key="NY"/><path style="fill:#999;stroke:#000;stroke-width:.26458332" id="use4045" d="m 255.60485,137.55994 -12.97233,7.34969 -12.85119,-7.55952 0.12114,-14.90922 12.97234,-7.3497 12.85119,7.55953 z" data-cv-key="PA"/><path style="fill:#999;stroke:#000;stroke-width:.26458332" id="use4057" d="m 281.90429,93.019317 -12.97233,7.349693 -12.85119,-7.559522 0.12114,-14.909218 12.97234,-7.349696 12.85118,7.559524 z" data-cv-key="VT"/><path style="fill:#999;stroke:#000;stroke-width:.26458332" id="use4059" d="m 294.64425,115.69789 -12.97233,7.3497 -12.85119,-7.55953 0.12114,-14.90922 12.97233,-7.349692 12.85119,7.559522 z" data-cv-key="MA"/><path style="fill:#999;stroke:#000;stroke-width:.26458332" id="use4061" d="m 281.55077,137.9568 -12.97233,7.3497 -12.85119,-7.55952 0.12115,-14.90922 12.97233,-7.3497 12.85119,7.55953 z" data-cv-key="NJ"/><path style="fill:#999;stroke:#000;stroke-width:.26458332" id="use4071" d="m 320.82128,70.970237 -12.97233,7.349695 -12.85119,-7.559524 0.12114,-14.909218 12.97234,-7.349696 12.85119,7.559524 z" data-cv-key="ME"/><path style="fill:#999;stroke:#000;stroke-width:.26458332" id="use4073" d="m 307.72781,93.229148 -12.97234,7.349692 -12.85119,-7.55952 0.12115,-14.909219 12.97233,-7.349695 12.85119,7.559523 z" data-cv-key="NH"/><path style="fill:#999;stroke:#000;stroke-width:.26458332" id="use4077" d="m 307.36437,137.9568 -12.97233,7.3497 -12.85119,-7.55952 0.12114,-14.90922 12.97233,-7.3497 12.85119,7.55953 z" data-cv-key="CT"/><path style="fill:#999;stroke:#000;stroke-width:.26458332" id="use4075" d="m 320.45785,115.69789 -12.97234,7.3497 -12.85119,-7.55953 0.12115,-14.90922 12.97233,-7.349692 12.85119,7.559522 z" data-cv-key="RI"/><text id="text10572" x="299.878" y="67.268" xml:space="preserve" style="font-style:normal;font-weight:400;font-size:10.58333302px;line-height:1.25;font-family:sans-serif;letter-spacing:0;word-spacing:0;fill:#000;fill-opacity:1;stroke:none;stroke-width:.26458332"><tspan style="stroke-width:.26458332" id="tspan10570" x="299.878" y="67.268">ME</tspan></text><text id="text10576" x="286.939" y="89.527" xml:space="preserve" style="font-style:normal;font-weight:400;font-size:10.58333302px;line-height:1.25;font-family:sans-serif;letter-spacing:0;word-spacing:0;fill:#000;fill-opacity:1;stroke:none;stroke-width:.26458332"><tspan style="stroke-width:.26458332" id="tspan10574" x="286.939" y="89.527">NH</tspan></text><text id="text10580" x="302.367" y="111.996" xml:space="preserve" style="font-style:normal;font-weight:400;font-size:10.58333302px;line-height:1.25;font-family:sans-serif;letter-spacing:0;word-spacing:0;fill:#000;fill-opacity:1;stroke:none;stroke-width:.26458332"><tspan style="stroke-width:.26458332" id="tspan10578" x="302.367" y="111.996">RI</tspan></text><text id="text10584" x="287.268" y="134.25" xml:space="preserve" style="font-style:normal;font-weight:400;font-size:10.58333302px;line-height:1.25;font-family:sans-serif;letter-spacing:0;word-spacing:0;fill:#000;fill-opacity:1;stroke:none;stroke-width:.26458332"><tspan style="stroke-width:.26458332" id="tspan10582" x="287.268" y="134.25">CT</tspan></text><text id="text10588" x="263.181" y="133.196" xml:space="preserve" style="font-style:normal;font-weight:400;font-size:10.58333302px;line-height:1.25;font-family:sans-serif;letter-spacing:0;word-spacing:0;fill:#000;fill-opacity:1;stroke:none;stroke-width:.26458332"><tspan style="stroke-width:.26458332" id="tspan10586" x="263.181" y="133.196">NJ</tspan></text><text id="text10592" x="262.147" y="89.317" xml:space="preserve" style="font-style:normal;font-weight:400;font-size:10.58333302px;line-height:1.25;font-family:sans-serif;letter-spacing:0;word-spacing:0;fill:#000;fill-opacity:1;stroke:none;stroke-width:.26458332"><tspan style="stroke-width:.26458332" id="tspan10590" x="262.147" y="89.317">VT</tspan></text><text id="text10596" x="248.127" y="111.599" xml:space="preserve" style="font-style:normal;font-weight:400;font-size:10.58333302px;line-height:1.25;font-family:sans-serif;letter-spacing:0;word-spacing:0;fill:#000;fill-opacity:1;stroke:none;stroke-width:.26458332"><tspan style="stroke-width:.26458332" id="tspan10594" x="248.127" y="111.599">NY</tspan></text><text id="text10600" x="273.13" y="111.996" xml:space="preserve" style="font-style:normal;font-weight:400;font-size:10.58333302px;line-height:1.25;font-family:sans-serif;letter-spacing:0;word-spacing:0;fill:#000;fill-opacity:1;stroke:none;stroke-width:.26458332"><tspan style="stroke-width:.26458332" id="tspan10598" x="273.13" y="111.996">MA</tspan></text><text id="text10604" x="235.801" y="133.858" xml:space="preserve" style="font-style:normal;font-weight:400;font-size:10.58333302px;line-height:1.25;font-family:sans-serif;letter-spacing:0;word-spacing:0;fill:#000;fill-opacity:1;stroke:none;stroke-width:.26458332"><tspan style="stroke-width:.26458332" id="tspan10602" x="235.801" y="133.858">PA</tspan></text></g><g id="West" data-cv-view="WEST" title="West region"><path id="use3935" d="m 87.447854,158.63739 -12.972334,7.34969 -12.85119,-7.55952 0.121145,-14.90922 12.972334,-7.34969 12.85119,7.55952 z" data-cv-key="NV" style="fill:#ececec;stroke:#000;stroke-width:.26458332"/><path style="fill:#e6e6e6;stroke:#000;stroke-width:.26458332" id="use3915" d="m 61.987764,113.6999 -12.972335,7.3497 -12.85119,-7.55952 0.121145,-14.909223 12.972334,-7.349695 12.85119,7.559524 z" data-cv-key="WA"/><path style="fill:#e6e6e6;stroke:#000;stroke-width:.26458332" id="use3919" d="m 61.62433,158.42757 -12.972335,7.34969 -12.851189,-7.55952 0.121144,-14.90922 12.972334,-7.3497 12.85119,7.55953 z" data-cv-key="OR"/><path style="fill:#e6e6e6;stroke:#000;stroke-width:.26458332" id="use3931" d="m 87.811288,113.90974 -12.972334,7.34969 -12.85119,-7.55952 0.121144,-14.909221 12.972335,-7.349696 12.85119,7.559524 z" data-cv-key="MT"/><path style="fill:#e6e6e6;stroke:#000;stroke-width:.26458332" id="use3933" d="m 74.717809,136.16865 -12.972334,7.3497 -12.85119,-7.55952 0.121144,-14.90922 12.972335,-7.3497 12.851189,7.55953 z" data-cv-key="ID"/><path style="fill:#e6e6e6;stroke:#000;stroke-width:.26458332" id="use3937" d="m 74.354375,180.8963 -12.972334,7.3497 -12.85119,-7.55953 0.121144,-14.90922 12.972335,-7.34969 12.85119,7.55952 z" data-cv-key="CA"/><path style="fill:#e6e6e6;stroke:#000;stroke-width:.26458332" id="use3949" d="m 100.54134,136.37848 -12.972337,7.34969 -12.85119,-7.55952 0.121144,-14.90922 12.972335,-7.34969 12.851188,7.55952 z" data-cv-key="WY"/><path style="fill:#e6e6e6;stroke:#000;stroke-width:.26458332" id="use3953" d="m 100.1779,181.10614 -12.972331,7.34969 -12.85119,-7.55952 0.121145,-14.90922 12.972334,-7.34969 12.851192,7.55952 z" data-cv-key="UT"/><path style="fill:#e6e6e6;stroke:#000;stroke-width:.26458332" id="use3955" d="m 112.90795,203.57489 -12.972332,7.34969 -12.85119,-7.55952 0.121145,-14.90922 12.972337,-7.34969 12.85119,7.55952 z" data-cv-key="AZ"/><path style="fill:#e6e6e6;stroke:#000;stroke-width:.26458332" id="use3969" d="m 126.00142,181.31595 -12.97233,7.34969 -12.85119,-7.55952 0.12114,-14.90922 12.97233,-7.34969 12.85119,7.55952 z" data-cv-key="NM"/><path style="fill:#e6e6e6;stroke:#000;stroke-width:.26458332" id="use3895" d="M 32.50595,70.970237 19.533616,78.319932 6.682426,70.760408 6.8035704,55.85119 19.775905,48.501494 l 12.85119,7.559524 z" data-cv-key="AK"/><path id="use3951" d="m 113.27137,158.84721 -12.97233,7.3497 -12.851193,-7.55953 0.121144,-14.90921 12.972339,-7.3497 12.85119,7.55952 z" data-cv-key="CO" style="fill:#ececec;stroke:#000;stroke-width:.26458332"/><path style="fill:#e6e6e6;stroke:#000;stroke-width:.26458332" id="use3909" d="M 17.935225,226.88295 4.9628909,234.23264 -7.888299,226.67312 -7.7671545,211.7639 5.2051799,204.41421 18.05637,211.97373 Z" data-cv-key="HI"/><text id="text6759" x="12.415" y="67.268" xml:space="preserve" style="font-style:normal;font-weight:400;font-size:10.58333302px;line-height:1.25;font-family:sans-serif;letter-spacing:0;word-spacing:0;fill:#000;fill-opacity:1;stroke:none;stroke-width:.26458332"><tspan style="stroke-width:.26458332" id="tspan6757" x="12.415" y="67.268">AK</tspan></text><text id="text10496" x="104.624" y="177.614" xml:space="preserve" style="font-style:normal;font-weight:400;font-size:10.58333302px;line-height:1.25;font-family:sans-serif;letter-spacing:0;word-spacing:0;fill:#000;fill-opacity:1;stroke:none;stroke-width:.26458332"><tspan style="stroke-width:.26458332" id="tspan10494" x="104.624" y="177.614">NM</tspan></text><text id="text10492" x="93.011" y="199.873" xml:space="preserve" style="font-style:normal;font-weight:400;font-size:10.58333302px;line-height:1.25;font-family:sans-serif;letter-spacing:0;word-spacing:0;fill:#000;fill-opacity:1;stroke:none;stroke-width:.26458332"><tspan style="stroke-width:.26458332" id="tspan10490" x="93.011" y="199.873">AZ</tspan></text><text id="text10488" x="92.555" y="155.14" xml:space="preserve" style="font-style:normal;font-weight:400;font-size:10.58333302px;line-height:1.25;font-family:sans-serif;letter-spacing:0;word-spacing:0;fill:#000;fill-opacity:1;stroke:none;stroke-width:.26458332"><tspan style="stroke-width:.26458332" id="tspan10486" x="92.555" y="155.14">CO</tspan></text><text id="text10484" x="79.743" y="177.329" xml:space="preserve" style="font-style:normal;font-weight:400;font-size:10.58333302px;line-height:1.25;font-family:sans-serif;letter-spacing:0;word-spacing:0;fill:#000;fill-opacity:1;stroke:none;stroke-width:.26458332"><tspan style="stroke-width:.26458332" id="tspan10482" x="79.743" y="177.329">UT</tspan></text><text id="text10480" x="66.543" y="154.936" xml:space="preserve" style="font-style:normal;font-weight:400;font-size:10.58333302px;line-height:1.25;font-family:sans-serif;letter-spacing:0;word-spacing:0;fill:#000;fill-opacity:1;stroke:none;stroke-width:.26458332"><tspan style="stroke-width:.26458332" id="tspan10478" x="66.543" y="154.936">NV</tspan></text><text id="text10476" x="79.042" y="132.677" xml:space="preserve" style="font-style:normal;font-weight:400;font-size:10.58333302px;line-height:1.25;font-family:sans-serif;letter-spacing:0;word-spacing:0;fill:#000;fill-opacity:1;stroke:none;stroke-width:.26458332"><tspan style="stroke-width:.26458332" id="tspan10474" x="79.042" y="132.677">WY</tspan></text><text id="text10472" x="66.625" y="110.208" xml:space="preserve" style="font-style:normal;font-weight:400;font-size:10.58333302px;line-height:1.25;font-family:sans-serif;letter-spacing:0;word-spacing:0;fill:#000;fill-opacity:1;stroke:none;stroke-width:.26458332"><tspan style="stroke-width:.26458332" id="tspan10470" x="66.625" y="110.208">MT</tspan></text><text id="text10468" x="-.456" y="223.92" xml:space="preserve" style="font-style:normal;font-weight:400;font-size:10.58333302px;line-height:1.25;font-family:sans-serif;letter-spacing:0;word-spacing:0;fill:#000;fill-opacity:1;stroke:none;stroke-width:.26458332"><tspan style="stroke-width:.26458332" id="tspan10466" x="-.456" y="223.92">HI</tspan></text><text id="text10464" x="53.93" y="177.189" xml:space="preserve" style="font-style:normal;font-weight:400;font-size:10.58333302px;line-height:1.25;font-family:sans-serif;letter-spacing:0;word-spacing:0;fill:#000;fill-opacity:1;stroke:none;stroke-width:.26458332"><tspan style="stroke-width:.26458332" id="tspan10462" x="53.93" y="177.189">CA</tspan></text><text id="text10460" x="40.787" y="154.721" xml:space="preserve" style="font-style:normal;font-weight:400;font-size:10.58333302px;line-height:1.25;font-family:sans-serif;letter-spacing:0;word-spacing:0;fill:#000;fill-opacity:1;stroke:none;stroke-width:.26458332"><tspan style="stroke-width:.26458332" id="tspan10458" x="40.787" y="154.721">OR</tspan></text><text id="text10456" x="56.025" y="132.467" xml:space="preserve" style="font-style:normal;font-weight:400;font-size:10.58333302px;line-height:1.25;font-family:sans-serif;letter-spacing:0;word-spacing:0;fill:#000;fill-opacity:1;stroke:none;stroke-width:.26458332"><tspan style="stroke-width:.26458332" id="tspan10454" x="56.025" y="132.467">ID</tspan></text><text id="text10452" x="40.445" y="109.998" xml:space="preserve" style="font-style:normal;font-weight:400;font-size:10.58333302px;line-height:1.25;font-family:sans-serif;letter-spacing:0;word-spacing:0;fill:#000;fill-opacity:1;stroke:none;stroke-width:.26458332"><tspan style="stroke-width:.26458332" id="tspan10450" x="40.445" y="109.998">WA</tspan></text></g></g></svg>