<svg xmlns="http://www.w3.org/2000/svg" xmlns:svg="http://www.w3.org/2000/svg" viewBox="0 0 409.213 174.425"><g id="layer1" transform="translate(65.498009,-25.636377)"><g id="Widwest" data-cv-view="MIDWEST" title="Midwest region" transform="translate(-12.971824,-0.15303492)"><path style="fill:#ccc;stroke:#000;stroke-width:.49462894;stroke-miterlimit:4;stroke-dasharray:none" id="use3947" d="M 113.63481,114.11957 93.224099,119.41123 87.932433,99.00052 108.34315,93.708853 Z" data-cv-key="ND" transform="matrix(0.85938343,-0.50485116,0.50542063,0.85971841,-56.836096,49.823758)"/><path style="fill:#ccc;stroke:#000;stroke-width:.49462894;stroke-miterlimit:4;stroke-dasharray:none" id="use3963" d="m 139.45833,114.32939 -20.41071,5.29167 -5.29167,-20.410717 20.41071,-5.291666 z" data-cv-key="MN" transform="matrix(0.85938343,-0.50485116,0.50542063,0.85971841,-49.40477,62.702648)"/><path style="fill:#ccc;stroke:#000;stroke-width:.49462894;stroke-miterlimit:4;stroke-dasharray:none" id="use3965" d="m 126.36485,136.5883 -20.41072,5.29167 -5.29166,-20.41072 20.41071,-5.29166 z" data-cv-key="SD" transform="matrix(0.85938343,-0.50485116,0.50542063,0.85971841,-64.268672,51.809707)"/><path style="fill:#ccc;stroke:#000;stroke-width:.49462894;stroke-miterlimit:4;stroke-dasharray:none" id="use3967" d="m 139.0949,159.05705 -20.41071,5.29167 -5.29167,-20.41072 20.41072,-5.29166 z" data-cv-key="NE" transform="matrix(0.85938343,-0.50485116,0.50542063,0.85971841,-71.701276,53.795655)"/><path style="fill:#ccc;stroke:#000;stroke-width:.49462894;stroke-miterlimit:4;stroke-dasharray:none" id="use3979" d="m 165.28185,114.53922 -20.41071,5.29167 -5.29167,-20.410715 20.41072,-5.291667 z" data-cv-key="WI" transform="matrix(0.85938343,-0.50485116,0.50542063,0.85971841,-41.973454,75.581535)"/><path style="fill:#ccc;stroke:#000;stroke-width:.49462894;stroke-miterlimit:4;stroke-dasharray:none" id="use3981" d="m 152.18838,136.79814 -20.41071,5.29167 -5.29167,-20.41072 20.41071,-5.29166 z" data-cv-key="IA" transform="matrix(0.85938343,-0.50485116,0.50542063,0.85971841,-56.837367,64.688592)"/><path style="fill:#ccc;stroke:#000;stroke-width:.49462894;stroke-miterlimit:4;stroke-dasharray:none" id="use3983" d="m 164.91842,159.26688 -20.41071,5.29166 -5.29167,-20.41071 20.41071,-5.29167 z" data-cv-key="MO" transform="matrix(0.85938343,-0.50485116,0.50542063,0.85971841,-64.26995,66.674546)"/><path style="fill:#ccc;stroke:#000;stroke-width:.49462894;stroke-miterlimit:4;stroke-dasharray:none" id="use3985" d="m 151.82494,181.52579 -20.41071,5.29166 -5.29167,-20.41071 20.41072,-5.29167 z" data-cv-key="KS" transform="matrix(0.85938343,-0.50485116,0.50542063,0.85971841,-79.133859,55.781609)"/><path style="fill:#ccc;stroke:#000;stroke-width:.49462894;stroke-miterlimit:4;stroke-dasharray:none" id="use3997" d="m 178.0119,137.00796 -20.41072,5.29167 -5.29166,-20.41071 20.41071,-5.29167 z" data-cv-key="IL" transform="matrix(0.85938343,-0.50485116,0.50542063,0.85971841,-49.406041,77.567482)"/><path style="fill:#ccc;stroke:#000;stroke-width:.49462894;stroke-miterlimit:4;stroke-dasharray:none" id="use4011" d="m 216.9289,114.95888 -20.41071,5.29167 -5.29167,-20.410713 20.41072,-5.291666 z" data-cv-key="MI" transform="matrix(0.85938343,-0.50485116,0.50542063,0.85971841,-27.110823,101.33931)"/><path style="fill:#ccc;stroke:#000;stroke-width:.49462894;stroke-miterlimit:4;stroke-dasharray:none" id="use4013" d="m 203.83541,137.21779 -20.41071,5.29166 -5.29167,-20.41071 20.41072,-5.29167 z" data-cv-key="IN" transform="matrix(0.85938343,-0.50485116,0.50542063,0.85971841,-41.974715,90.446372)"/><path style="fill:#ccc;stroke:#000;stroke-width:.49462894;stroke-miterlimit:4;stroke-dasharray:none" id="use4029" d="m 229.65894,137.42763 -20.41071,5.29166 -5.29167,-20.41071 20.41072,-5.29167 z" data-cv-key="OH" transform="matrix(0.85938343,-0.50485116,0.50542063,0.85971841,-34.54341,103.32526)"/><text id="text10500" x="75.394" y="94.412" xml:space="preserve" style="font-style:normal;font-weight:400;font-size:10.58333302px;line-height:1.25;font-family:sans-serif;letter-spacing:0;word-spacing:0;fill:#000;fill-opacity:1;stroke:none;stroke-width:.26458332"><tspan style="stroke-width:.26458332" id="tspan10498" x="75.394" y="94.412">ND</tspan></text><text id="text10504" x="104.836" y="94.435" xml:space="preserve" style="font-style:normal;font-weight:400;font-size:10.58333302px;line-height:1.25;font-family:sans-serif;letter-spacing:0;word-spacing:0;fill:#000;fill-opacity:1;stroke:none;stroke-width:.26458332"><tspan style="stroke-width:.26458332" id="tspan10502" x="104.836" y="94.435">MN</tspan></text><text id="text10508" x="91.027" y="109.283" xml:space="preserve" style="font-style:normal;font-weight:400;font-size:10.58333302px;line-height:1.25;font-family:sans-serif;letter-spacing:0;word-spacing:0;fill:#000;fill-opacity:1;stroke:none;stroke-width:.26458332"><tspan style="stroke-width:.26458332" id="tspan10506" x="91.027" y="109.283">SD</tspan></text><text id="text10512" x="122.7" y="109.36" xml:space="preserve" style="font-style:normal;font-weight:400;font-size:10.58333302px;line-height:1.25;font-family:sans-serif;letter-spacing:0;word-spacing:0;fill:#000;fill-opacity:1;stroke:none;stroke-width:.26458332"><tspan style="stroke-width:.26458332" id="tspan10510" x="122.7" y="109.36">IA</tspan></text><text id="text10516" x="136.646" y="94.457" xml:space="preserve" style="font-style:normal;font-weight:400;font-size:10.58333302px;line-height:1.25;font-family:sans-serif;letter-spacing:0;word-spacing:0;fill:#000;fill-opacity:1;stroke:none;stroke-width:.26458332"><tspan style="stroke-width:.26458332" id="tspan10514" x="136.646" y="94.457">WI</tspan></text><text id="text10520" x="196.423" y="94.501" xml:space="preserve" style="font-style:normal;font-weight:400;font-size:10.58333302px;line-height:1.25;font-family:sans-serif;letter-spacing:0;word-spacing:0;fill:#000;fill-opacity:1;stroke:none;stroke-width:.26458332"><tspan style="stroke-width:.26458332" id="tspan10518" x="196.423" y="94.501">MI</tspan></text><text id="text10524" x="153.02" y="109.382" xml:space="preserve" style="font-style:normal;font-weight:400;font-size:10.58333302px;line-height:1.25;font-family:sans-serif;letter-spacing:0;word-spacing:0;fill:#000;fill-opacity:1;stroke:none;stroke-width:.26458332"><tspan style="stroke-width:.26458332" id="tspan10522" x="153.02" y="109.382">IL</tspan></text><text id="text10528" x="182.167" y="109.355" xml:space="preserve" style="font-style:normal;font-weight:400;font-size:10.58333302px;line-height:1.25;font-family:sans-serif;letter-spacing:0;word-spacing:0;fill:#000;fill-opacity:1;stroke:none;stroke-width:.26458332"><tspan style="stroke-width:.26458332" id="tspan10526" x="182.167" y="109.355">IN</tspan></text><text id="text10532" x="209.494" y="109.372" xml:space="preserve" style="font-style:normal;font-weight:400;font-size:10.58333302px;line-height:1.25;font-family:sans-serif;letter-spacing:0;word-spacing:0;fill:#000;fill-opacity:1;stroke:none;stroke-width:.26458332"><tspan style="stroke-width:.26458332" id="tspan10530" x="209.494" y="109.372">OH</tspan></text><text id="text10536" x="105.878" y="124.164" xml:space="preserve" style="font-style:normal;font-weight:400;font-size:10.58333302px;line-height:1.25;font-family:sans-serif;letter-spacing:0;word-spacing:0;fill:#000;fill-opacity:1;stroke:none;stroke-width:.26458332"><tspan style="stroke-width:.26458332" id="tspan10534" x="105.878" y="124.164">NE</tspan></text><text id="text10540" x="121.168" y="139.035" xml:space="preserve" style="font-style:normal;font-weight:400;font-size:10.58333302px;line-height:1.25;font-family:sans-serif;letter-spacing:0;word-spacing:0;fill:#000;fill-opacity:1;stroke:none;stroke-width:.26458332"><tspan style="stroke-width:.26458332" id="tspan10538" x="121.168" y="139.035">KS</tspan></text><text id="text10544" x="134.135" y="124.181" xml:space="preserve" style="font-style:normal;font-weight:400;font-size:10.58333302px;line-height:1.25;font-family:sans-serif;letter-spacing:0;word-spacing:0;fill:#000;fill-opacity:1;stroke:none;stroke-width:.26458332"><tspan style="stroke-width:.26458332" id="tspan10542" x="134.135" y="124.181">MO</tspan></text></g><g id="South" data-cv-view="SOUTH" title="South region"><path style="fill:#b3b3b3;stroke:#000;stroke-width:.49462894;stroke-miterlimit:4;stroke-dasharray:none" id="use3971" d="m 138.73147,203.7847 -20.41071,5.29166 -5.29167,-20.41071 20.41071,-5.29167 z" data-cv-key="OK" transform="matrix(0.85938343,-0.50485116,0.50542063,0.85971841,-77.239914,44.757885)"/><path style="fill:#b3b3b3;stroke:#000;stroke-width:.49462894;stroke-miterlimit:4;stroke-dasharray:none" id="use3987" d="m 164.55499,203.99454 -20.41072,5.29166 -5.29166,-20.41071 20.41071,-5.29167 z" data-cv-key="LA" transform="matrix(0.85938343,-0.50485116,0.50542063,0.85971841,-69.808596,57.636761)"/><path style="fill:#b3b3b3;stroke:#000;stroke-width:.49462894;stroke-miterlimit:4;stroke-dasharray:none" id="use3989" d="m 151.46151,226.25345 -20.41071,5.29166 -5.29167,-20.41071 20.41071,-5.29167 z" data-cv-key="TX" transform="matrix(0.85938343,-0.50485116,0.50542063,0.85971841,-84.672504,46.743825)"/><path style="fill:#b3b3b3;stroke:#000;stroke-width:.49462894;stroke-miterlimit:4;stroke-dasharray:none" id="use3999" d="m 190.74194,159.4767 -20.41072,5.29167 -5.29166,-20.41072 20.41071,-5.29166 z" data-cv-key="KY" transform="matrix(0.85938343,-0.50485116,0.50542063,0.85971841,-69.810448,79.400401)"/><path style="fill:#b3b3b3;stroke:#000;stroke-width:.49462894;stroke-miterlimit:4;stroke-dasharray:none" id="use4001" d="m 177.64848,181.73561 -20.41072,5.29167 -5.29166,-20.41072 20.41071,-5.29166 z" data-cv-key="AR" transform="matrix(0.85938343,-0.50485116,0.50542063,0.85971841,-84.67437,68.507472)"/><path style="fill:#b3b3b3;stroke:#000;stroke-width:.49462894;stroke-miterlimit:4;stroke-dasharray:none" id="use4003" d="m 190.3785,204.20436 -20.41071,5.29167 -5.29167,-20.41072 20.41072,-5.29166 z" data-cv-key="MS" transform="matrix(0.85938343,-0.50485116,0.50542063,0.85971841,-62.37727,70.515651)"/><path style="fill:#b3b3b3;stroke:#000;stroke-width:.49462894;stroke-miterlimit:4;stroke-dasharray:none" id="use4015" d="m 216.56547,159.68654 -20.41071,5.29166 -5.29167,-20.41071 20.41071,-5.29167 z" data-cv-key="WV" transform="matrix(0.85938343,-0.50485116,0.50542063,0.85971841,-62.379143,92.279285)"/><path style="fill:#b3b3b3;stroke:#000;stroke-width:.49462894;stroke-miterlimit:4;stroke-dasharray:none" id="use4017" d="m 203.47199,181.94545 -20.41071,5.29167 -5.29167,-20.41072 20.41072,-5.29166 z" data-cv-key="TN" transform="matrix(0.85938343,-0.50485116,0.50542063,0.85971841,-77.243052,81.386348)"/><path style="fill:#b3b3b3;stroke:#000;stroke-width:.49462894;stroke-miterlimit:4;stroke-dasharray:none" id="use4019" d="m 216.20204,204.4142 -20.41072,5.29167 -5.29166,-20.41072 20.41071,-5.29166 z" data-cv-key="AL" transform="matrix(0.85938343,-0.50485116,0.50542063,0.85971841,-54.945964,83.394541)"/><path style="fill:#b3b3b3;stroke:#000;stroke-width:.49462894;stroke-miterlimit:4;stroke-dasharray:none" id="use4031" d="m 242.51138,159.81885 -20.41072,5.29166 -5.29166,-20.41071 20.41071,-5.29167 z" data-cv-key="VA" transform="matrix(0.85938343,-0.50485116,0.50542063,0.85971841,-55.01382,105.28661)"/><path style="fill:#b3b3b3;stroke:#000;stroke-width:.49462894;stroke-miterlimit:4;stroke-dasharray:none" id="use4033" d="m 229.29551,182.15529 -20.41071,5.29166 -5.29167,-20.41071 20.41071,-5.29167 z" data-cv-key="NC" transform="matrix(0.85938343,-0.50485116,0.50542063,0.85971841,-69.811733,94.265229)"/><path style="fill:#b3b3b3;stroke:#000;stroke-width:.49462894;stroke-miterlimit:4;stroke-dasharray:none" id="use4035" d="m 242.02557,204.62404 -20.41072,5.29166 -5.29166,-20.41071 20.41071,-5.29167 z" data-cv-key="GA" transform="matrix(0.85938343,-0.50485116,0.50542063,0.85971841,-47.514659,96.273422)"/><path style="fill:#b3b3b3;stroke:#000;stroke-width:.49462894;stroke-miterlimit:4;stroke-dasharray:none" id="use4037" d="m 228.93209,226.88295 -20.41071,5.29167 -5.29167,-20.41072 20.41072,-5.29166 z" data-cv-key="FL" transform="matrix(0.85938343,-0.50485116,0.50542063,0.85971841,-62.378568,85.380482)"/><path style="fill:#b3b3b3;stroke:#000;stroke-width:.49462894;stroke-miterlimit:4;stroke-dasharray:none" id="use4047" d="m 268.4573,160.21571 -20.41071,5.29167 -5.29167,-20.41071 20.41071,-5.29167 z" data-cv-key="MD" transform="matrix(0.85938343,-0.50485116,0.50542063,0.85971841,-47.782222,118.06649)"/><path style="fill:#b3b3b3;stroke:#000;stroke-width:.49462894;stroke-miterlimit:4;stroke-dasharray:none" id="use4049" d="m 255.36382,182.47462 -20.41071,5.29167 -5.29167,-20.41071 20.41072,-5.29167 z" data-cv-key="SC" transform="matrix(0.85938343,-0.50485116,0.50542063,0.85971841,-62.646131,107.17355)"/><path style="fill:#b3b3b3;stroke:#000;stroke-width:.49462894;stroke-miterlimit:4;stroke-dasharray:none" id="use4063" d="m 294.28082,160.42554 -20.41072,5.29166 -5.29166,-20.41071 20.41071,-5.29167 z" data-cv-key="DE" transform="matrix(0.85938343,-0.50485116,0.50542063,0.85971841,-40.350895,130.94537)"/><path style="fill:#b3b3b3;stroke:#000;stroke-width:.49462894;stroke-miterlimit:4;stroke-dasharray:none" id="use4065" d="m 281.18734,182.68445 -20.41071,5.29166 -5.29167,-20.41071 20.41071,-5.29167 z" data-cv-key="DC" transform="matrix(0.85938343,-0.50485116,0.50542063,0.85971841,-55.214805,120.05244)"/><text id="text10646" x="271.17" y="124.145" xml:space="preserve" style="font-style:normal;font-weight:400;font-size:10.58333302px;line-height:1.25;font-family:sans-serif;letter-spacing:0;word-spacing:0;fill:#000;fill-opacity:1;stroke:none;stroke-width:.26458332"><tspan style="stroke-width:.26458332" id="tspan10644" x="271.17" y="124.145">DE</tspan></text><text id="text10698" x="138.3" y="168.639" xml:space="preserve" style="font-style:normal;font-weight:400;font-size:10.58333302px;line-height:1.25;font-family:sans-serif;letter-spacing:0;word-spacing:0;fill:#000;fill-opacity:1;stroke:none;stroke-width:.26458332"><tspan style="stroke-width:.26458332" id="tspan10696" x="138.3" y="168.639">TX</tspan></text><text id="text10702" x="227.68" y="168.706" xml:space="preserve" style="font-style:normal;font-weight:400;font-size:10.58333302px;line-height:1.25;font-family:sans-serif;letter-spacing:0;word-spacing:0;fill:#000;fill-opacity:1;stroke:none;stroke-width:.26458332"><tspan style="stroke-width:.26458332" id="tspan10700" x="227.68" y="168.706">FL</tspan></text><text id="text10694" x="241.058" y="153.847" xml:space="preserve" style="font-style:normal;font-weight:400;font-size:10.58333302px;line-height:1.25;font-family:sans-serif;letter-spacing:0;word-spacing:0;fill:#000;fill-opacity:1;stroke:none;stroke-width:.26458332"><tspan style="stroke-width:.26458332" id="tspan10692" x="241.058" y="153.847">GA</tspan></text><text id="text10690" x="212.726" y="153.83" xml:space="preserve" style="font-style:normal;font-weight:400;font-size:10.58333302px;line-height:1.25;font-family:sans-serif;letter-spacing:0;word-spacing:0;fill:#000;fill-opacity:1;stroke:none;stroke-width:.26458332"><tspan style="stroke-width:.26458332" id="tspan10688" x="212.726" y="153.83">AL</tspan></text><text id="text10686" x="181.423" y="153.802" xml:space="preserve" style="font-style:normal;font-weight:400;font-size:10.58333302px;line-height:1.25;font-family:sans-serif;letter-spacing:0;word-spacing:0;fill:#000;fill-opacity:1;stroke:none;stroke-width:.26458332"><tspan style="stroke-width:.26458332" id="tspan10684" x="181.423" y="153.802">MS</tspan></text><text id="text10682" x="152.68" y="153.785" xml:space="preserve" style="font-style:normal;font-weight:400;font-size:10.58333302px;line-height:1.25;font-family:sans-serif;letter-spacing:0;word-spacing:0;fill:#000;fill-opacity:1;stroke:none;stroke-width:.26458332"><tspan style="stroke-width:.26458332" id="tspan10680" x="152.68" y="153.785">LA</tspan></text><text id="text10678" x="122.072" y="153.758" xml:space="preserve" style="font-style:normal;font-weight:400;font-size:10.58333302px;line-height:1.25;font-family:sans-serif;letter-spacing:0;word-spacing:0;fill:#000;fill-opacity:1;stroke:none;stroke-width:.26458332"><tspan style="stroke-width:.26458332" id="tspan10676" x="122.072" y="153.758">OK</tspan></text><text id="text10674" x="227.055" y="138.971" xml:space="preserve" style="font-style:normal;font-weight:400;font-size:10.58333302px;line-height:1.25;font-family:sans-serif;letter-spacing:0;word-spacing:0;fill:#000;fill-opacity:1;stroke:none;stroke-width:.26458332"><tspan style="stroke-width:.26458332" id="tspan10672" x="227.055" y="138.971">SC</tspan></text><text id="text10670" x="196.555" y="138.949" xml:space="preserve" style="font-style:normal;font-weight:400;font-size:10.58333302px;line-height:1.25;font-family:sans-serif;letter-spacing:0;word-spacing:0;fill:#000;fill-opacity:1;stroke:none;stroke-width:.26458332"><tspan style="stroke-width:.26458332" id="tspan10668" x="196.555" y="138.949">NC</tspan></text><text id="text10666" x="168.053" y="138.932" xml:space="preserve" style="font-style:normal;font-weight:400;font-size:10.58333302px;line-height:1.25;font-family:sans-serif;letter-spacing:0;word-spacing:0;fill:#000;fill-opacity:1;stroke:none;stroke-width:.26458332"><tspan style="stroke-width:.26458332" id="tspan10664" x="168.053" y="138.932">TN</tspan></text><text id="text10662" x="137.799" y="138.909" xml:space="preserve" style="font-style:normal;font-weight:400;font-size:10.58333302px;line-height:1.25;font-family:sans-serif;letter-spacing:0;word-spacing:0;fill:#000;fill-opacity:1;stroke:none;stroke-width:.26458332"><tspan style="stroke-width:.26458332" id="tspan10660" x="137.799" y="138.909">AR</tspan></text><text id="text10626" x="152.799" y="124.056" xml:space="preserve" style="font-style:normal;font-weight:400;font-size:10.58333302px;line-height:1.25;font-family:sans-serif;letter-spacing:0;word-spacing:0;fill:#000;fill-opacity:1;stroke:none;stroke-width:.26458332"><tspan style="stroke-width:.26458332" id="tspan10624" x="152.799" y="124.056">KY</tspan></text><text id="text10630" x="180.596" y="124.078" xml:space="preserve" style="font-style:normal;font-weight:400;font-size:10.58333302px;line-height:1.25;font-family:sans-serif;letter-spacing:0;word-spacing:0;fill:#000;fill-opacity:1;stroke:none;stroke-width:.26458332"><tspan style="stroke-width:.26458332" id="tspan10628" x="180.596" y="124.078">WV</tspan></text><text id="text10634" x="212.409" y="124.1" xml:space="preserve" style="font-style:normal;font-weight:400;font-size:10.58333302px;line-height:1.25;font-family:sans-serif;letter-spacing:0;word-spacing:0;fill:#000;fill-opacity:1;stroke:none;stroke-width:.26458332"><tspan style="stroke-width:.26458332" id="tspan10632" x="212.409" y="124.1">VA</tspan></text><text id="text10638" x="240.187" y="124.122" xml:space="preserve" style="font-style:normal;font-weight:400;font-size:10.58333302px;line-height:1.25;font-family:sans-serif;letter-spacing:0;word-spacing:0;fill:#000;fill-opacity:1;stroke:none;stroke-width:.26458332"><tspan style="stroke-width:.26458332" id="tspan10636" x="240.187" y="124.122">MD</tspan></text><text id="text10642" x="255.901" y="138.993" xml:space="preserve" style="font-style:normal;font-weight:400;font-size:10.58333302px;line-height:1.25;font-family:sans-serif;letter-spacing:0;word-spacing:0;fill:#000;fill-opacity:1;stroke:none;stroke-width:.26458332"><tspan style="stroke-width:.26458332" id="tspan10640" x="255.901" y="138.993">DC</tspan></text></g><g id="Northeast" data-cv-view="NORTHEAST" title="Northeast region"><path style="fill:#999;stroke:#000;stroke-width:.49462894;stroke-miterlimit:4;stroke-dasharray:none" id="use4043" d="m 268.69833,115.30102 -20.41072,5.29166 -5.29166,-20.41071 20.41071,-5.291667 z" data-cv-key="NY" transform="matrix(0.85938343,-0.50485116,0.50542063,0.85971841,-25.285998,127.07248)"/><path style="fill:#999;stroke:#000;stroke-width:.49462894;stroke-miterlimit:4;stroke-dasharray:none" id="use4045" d="m 255.60485,137.55994 -20.41071,5.29166 -5.29167,-20.41071 20.41072,-5.29167 z" data-cv-key="PA" transform="matrix(0.85938343,-0.50485116,0.50542063,0.85971841,-40.149911,116.17954)"/><path style="fill:#999;stroke:#000;stroke-width:.49462894;stroke-miterlimit:4;stroke-dasharray:none" id="use4057" d="m 281.90429,93.019317 -20.41071,5.291666 -5.29167,-20.410713 20.41071,-5.291667 z" data-cv-key="VT" transform="matrix(0.85938343,-0.50485116,0.50542063,0.85971841,-10.507241,138.0418)"/><path style="fill:#999;stroke:#000;stroke-width:.49462894;stroke-miterlimit:4;stroke-dasharray:none" id="use4059" d="m 294.64425,115.69789 -20.41071,5.29167 -5.29167,-20.41072 20.41071,-5.291663 z" data-cv-key="MA" transform="matrix(0.85938343,-0.50485116,0.50542063,0.85971841,-18.054404,139.85235)"/><path style="fill:#999;stroke:#000;stroke-width:.49462894;stroke-miterlimit:4;stroke-dasharray:none" id="use4061" d="m 281.55077,137.9568 -20.41071,5.29167 -5.29166,-20.41072 20.41071,-5.29166 z" data-cv-key="NJ" transform="matrix(0.85938343,-0.50485116,0.50542063,0.85971841,-32.918313,128.95941)"/><path style="fill:#999;stroke:#000;stroke-width:.49462894;stroke-miterlimit:4;stroke-dasharray:none" id="use4071" d="M 320.82128,70.970237 300.41057,76.261903 295.1189,55.85119 315.52962,50.559523 Z" data-cv-key="ME" transform="matrix(0.85938343,-0.50485116,0.50542063,0.85971841,11.78799,161.81362)"/><path style="fill:#999;stroke:#000;stroke-width:.49462894;stroke-miterlimit:4;stroke-dasharray:none" id="use4073" d="m 307.72781,93.229148 -20.41072,5.291666 -5.29166,-20.410713 20.41071,-5.291667 z" data-cv-key="NH" transform="matrix(0.85938343,-0.50485116,0.50542063,0.85971841,-3.0759187,150.92068)"/><path style="fill:#999;stroke:#000;stroke-width:.49462894;stroke-miterlimit:4;stroke-dasharray:none" id="use4077" d="m 307.36437,137.9568 -20.41071,5.29167 -5.29167,-20.41072 20.41072,-5.29166 z" data-cv-key="CT" transform="matrix(0.85938343,-0.50485116,0.50542063,0.85971841,-25.372414,142.01369)"/><path style="fill:#999;stroke:#000;stroke-width:.49462894;stroke-miterlimit:4;stroke-dasharray:none" id="use4075" d="m 320.45785,115.69789 -20.41071,5.29167 -5.29167,-20.41072 20.41071,-5.291663 z" data-cv-key="RI" transform="matrix(0.85938343,-0.50485116,0.50542063,0.85971841,-10.508505,152.90663)"/><text id="text10572" x="300.409" y="64.708" xml:space="preserve" style="font-style:normal;font-weight:400;font-size:10.58333302px;line-height:1.25;font-family:sans-serif;letter-spacing:0;word-spacing:0;fill:#000;fill-opacity:1;stroke:none;stroke-width:.26458332"><tspan style="stroke-width:.26458332" id="tspan10570" x="300.409" y="64.708">ME</tspan></text><text id="text10576" x="285.698" y="79.561" xml:space="preserve" style="font-style:normal;font-weight:400;font-size:10.58333302px;line-height:1.25;font-family:sans-serif;letter-spacing:0;word-spacing:0;fill:#000;fill-opacity:1;stroke:none;stroke-width:.26458332"><tspan style="stroke-width:.26458332" id="tspan10574" x="285.698" y="79.561">NH</tspan></text><text id="text10580" x="303.259" y="94.437" xml:space="preserve" style="font-style:normal;font-weight:400;font-size:10.58333302px;line-height:1.25;font-family:sans-serif;letter-spacing:0;word-spacing:0;fill:#000;fill-opacity:1;stroke:none;stroke-width:.26458332"><tspan style="stroke-width:.26458332" id="tspan10578" x="303.259" y="94.437">RI</tspan></text><text id="text10584" x="286.388" y="109.286" xml:space="preserve" style="font-style:normal;font-weight:400;font-size:10.58333302px;line-height:1.25;font-family:sans-serif;letter-spacing:0;word-spacing:0;fill:#000;fill-opacity:1;stroke:none;stroke-width:.26458332"><tspan style="stroke-width:.26458332" id="tspan10582" x="286.388" y="109.286">CT</tspan></text><text id="text10588" x="258.384" y="108.209" xml:space="preserve" style="font-style:normal;font-weight:400;font-size:10.58333302px;line-height:1.25;font-family:sans-serif;letter-spacing:0;word-spacing:0;fill:#000;fill-opacity:1;stroke:none;stroke-width:.26458332"><tspan style="stroke-width:.26458332" id="tspan10586" x="258.384" y="108.209">NJ</tspan></text><text id="text10592" x="256.999" y="79.539" xml:space="preserve" style="font-style:normal;font-weight:400;font-size:10.58333302px;line-height:1.25;font-family:sans-serif;letter-spacing:0;word-spacing:0;fill:#000;fill-opacity:1;stroke:none;stroke-width:.26458332"><tspan style="stroke-width:.26458332" id="tspan10590" x="256.999" y="79.539">VT</tspan></text><text id="text10596" x="241.319" y="94.393" xml:space="preserve" style="font-style:normal;font-weight:400;font-size:10.58333302px;line-height:1.25;font-family:sans-serif;letter-spacing:0;word-spacing:0;fill:#000;fill-opacity:1;stroke:none;stroke-width:.26458332"><tspan style="stroke-width:.26458332" id="tspan10594" x="241.319" y="94.393">NY</tspan></text><text id="text10600" x="270.106" y="94.415" xml:space="preserve" style="font-style:normal;font-weight:400;font-size:10.58333302px;line-height:1.25;font-family:sans-serif;letter-spacing:0;word-spacing:0;fill:#000;fill-opacity:1;stroke:none;stroke-width:.26458332"><tspan style="stroke-width:.26458332" id="tspan10598" x="270.106" y="94.415">MA</tspan></text><text id="text10604" x="227.22" y="109.246" xml:space="preserve" style="font-style:normal;font-weight:400;font-size:10.58333302px;line-height:1.25;font-family:sans-serif;letter-spacing:0;word-spacing:0;fill:#000;fill-opacity:1;stroke:none;stroke-width:.26458332"><tspan style="stroke-width:.26458332" id="tspan10602" x="227.22" y="109.246">PA</tspan></text></g><g id="West" data-cv-view="WEST" title="West region" transform="translate(-29.835477,-0.13635355)"><path style="fill:#e6e6e6;stroke:#000;stroke-width:.49462894;stroke-miterlimit:4;stroke-dasharray:none" id="use3969" d="m 126.00142,181.31595 -20.41071,5.29166 -5.29167,-20.41071 20.41071,-5.29167 z" data-cv-key="NM" transform="matrix(0.85938343,-0.50485116,0.50542063,0.85971841,-69.701517,42.886046)"/><path id="use3935" d="m 87.447854,158.63739 -20.410713,5.29167 -5.291666,-20.41072 20.410713,-5.29166 z" data-cv-key="NV" transform="matrix(0.85938343,-0.50485116,0.50542063,0.85971841,-69.700254,28.021199)" style="fill:#ececec;stroke:#000;stroke-width:.49462894;stroke-miterlimit:4;stroke-dasharray:none"/><path style="fill:#e6e6e6;stroke:#000;stroke-width:.49462894;stroke-miterlimit:4;stroke-dasharray:none" id="use3915" d="M 61.987764,113.6999 41.57705,118.99157 36.285384,98.580857 56.696097,93.289191 Z" data-cv-key="WA" transform="matrix(0.85938343,-0.50485116,0.50542063,0.85971841,-54.835075,24.049302)"/><path style="fill:#e6e6e6;stroke:#000;stroke-width:.49462894;stroke-miterlimit:4;stroke-dasharray:none" id="use3919" d="m 61.62433,158.42757 -20.410714,5.29166 -5.291666,-20.41071 20.410713,-5.29167 z" data-cv-key="OR" transform="matrix(0.85938343,-0.50485116,0.50542063,0.85971841,-77.131573,15.142305)"/><path style="fill:#e6e6e6;stroke:#000;stroke-width:.49462894;stroke-miterlimit:4;stroke-dasharray:none" id="use3931" d="M 87.811288,113.90974 67.400575,119.2014 62.108908,98.790689 82.519622,93.499022 Z" data-cv-key="MT" transform="matrix(0.85938343,-0.50485116,0.50542063,0.85971841,-47.403759,36.928189)"/><path style="fill:#e6e6e6;stroke:#000;stroke-width:.49462894;stroke-miterlimit:4;stroke-dasharray:none" id="use3933" d="m 74.717809,136.16865 -20.410713,5.29167 -5.291667,-20.41071 20.410714,-5.29167 z" data-cv-key="ID" transform="matrix(0.85938343,-0.50485116,0.50542063,0.85971841,-62.267668,26.035243)"/><path style="fill:#e6e6e6;stroke:#000;stroke-width:.49462894;stroke-miterlimit:4;stroke-dasharray:none" id="use3937" d="m 74.354375,180.8963 -20.410713,5.29167 -5.291667,-20.41072 20.410714,-5.29166 z" data-cv-key="CA" transform="matrix(0.85938343,-0.50485116,0.50542063,0.85971841,-84.564159,17.12826)"/><path style="fill:#e6e6e6;stroke:#000;stroke-width:.49462894;stroke-miterlimit:4;stroke-dasharray:none" id="use3949" d="m 100.54134,136.37848 -20.410716,5.29166 -5.291667,-20.41071 20.410714,-5.29167 z" data-cv-key="WY" transform="matrix(0.85938343,-0.50485116,0.50542063,0.85971841,-54.836352,38.914139)"/><path style="fill:#e6e6e6;stroke:#000;stroke-width:.49462894;stroke-miterlimit:4;stroke-dasharray:none" id="use3953" d="m 100.1779,181.10614 -20.41071,5.29167 -5.291666,-20.41072 20.410713,-5.29166 z" data-cv-key="UT" transform="matrix(0.85938343,-0.50485116,0.50542063,0.85971841,-77.132851,30.007143)"/><path style="fill:#e6e6e6;stroke:#000;stroke-width:.49462894;stroke-miterlimit:4;stroke-dasharray:none" id="use3955" d="m 112.90795,203.57489 -20.410711,5.29167 -5.291666,-20.41072 20.410717,-5.29166 z" data-cv-key="AZ" transform="matrix(0.85938343,-0.50485116,0.50542063,0.85971841,-84.565448,31.993088)"/><path style="fill:#e6e6e6;stroke:#000;stroke-width:.49462894;stroke-miterlimit:4;stroke-dasharray:none" id="use3895" d="M 32.50595,70.970237 12.095237,76.261903 6.8035704,55.85119 27.214284,50.559523 Z" data-cv-key="AK" transform="matrix(0.85938343,-0.50485116,0.50542063,0.85971841,-34.523215,16.393669)"/><path id="use3951" d="M 113.27137,158.84721 92.860658,164.13888 87.568991,143.72817 107.9797,138.4365 Z" data-cv-key="CO" transform="matrix(0.85938343,-0.50485116,0.50542063,0.85971841,-62.268928,40.90009)" style="fill:#ececec;stroke:#000;stroke-width:.49462894;stroke-miterlimit:4;stroke-dasharray:none"/><path style="fill:#e6e6e6;stroke:#000;stroke-width:.49462894;stroke-miterlimit:4;stroke-dasharray:none" id="use3909" d="M 17.935225,226.88295 -2.4754881,232.17462 -7.7671545,211.7639 12.643559,206.47224 Z" data-cv-key="HI" transform="matrix(0.85938343,-0.50485116,0.50542063,0.85971841,-115.66871,-21.094163)"/><text id="text6759" x="7.177" y="64.844" xml:space="preserve" style="font-style:normal;font-weight:400;font-size:10.58333302px;line-height:1.25;font-family:sans-serif;letter-spacing:0;word-spacing:0;fill:#000;fill-opacity:1;stroke:none;stroke-width:.26458332"><tspan style="stroke-width:.26458332" id="tspan6757" x="7.177" y="64.844">AK</tspan></text><text id="text10496" x="106.831" y="139.001" xml:space="preserve" style="font-style:normal;font-weight:400;font-size:10.58333302px;line-height:1.25;font-family:sans-serif;letter-spacing:0;word-spacing:0;fill:#000;fill-opacity:1;stroke:none;stroke-width:.26458332"><tspan style="stroke-width:.26458332" id="tspan10494" x="106.831" y="139.001">NM</tspan></text><text id="text10492" x="93.446" y="153.855" xml:space="preserve" style="font-style:normal;font-weight:400;font-size:10.58333302px;line-height:1.25;font-family:sans-serif;letter-spacing:0;word-spacing:0;fill:#000;fill-opacity:1;stroke:none;stroke-width:.26458332"><tspan style="stroke-width:.26458332" id="tspan10490" x="93.446" y="153.855">AZ</tspan></text><text id="text10488" x="92.629" y="124.12" xml:space="preserve" style="font-style:normal;font-weight:400;font-size:10.58333302px;line-height:1.25;font-family:sans-serif;letter-spacing:0;word-spacing:0;fill:#000;fill-opacity:1;stroke:none;stroke-width:.26458332"><tspan style="stroke-width:.26458332" id="tspan10486" x="92.629" y="124.12">CO</tspan></text><text id="text10484" x="78.045" y="138.904" xml:space="preserve" style="font-style:normal;font-weight:400;font-size:10.58333302px;line-height:1.25;font-family:sans-serif;letter-spacing:0;word-spacing:0;fill:#000;fill-opacity:1;stroke:none;stroke-width:.26458332"><tspan style="stroke-width:.26458332" id="tspan10482" x="78.045" y="138.904">UT</tspan></text><text id="text10480" x="62.711" y="124.103" xml:space="preserve" style="font-style:normal;font-weight:400;font-size:10.58333302px;line-height:1.25;font-family:sans-serif;letter-spacing:0;word-spacing:0;fill:#000;fill-opacity:1;stroke:none;stroke-width:.26458332"><tspan style="stroke-width:.26458332" id="tspan10478" x="62.711" y="124.103">NV</tspan></text><text id="text10476" x="76.983" y="109.249" xml:space="preserve" style="font-style:normal;font-weight:400;font-size:10.58333302px;line-height:1.25;font-family:sans-serif;letter-spacing:0;word-spacing:0;fill:#000;fill-opacity:1;stroke:none;stroke-width:.26458332"><tspan style="stroke-width:.26458332" id="tspan10474" x="76.983" y="109.249">WY</tspan></text><text id="text10472" x="62.432" y="94.373" xml:space="preserve" style="font-style:normal;font-weight:400;font-size:10.58333302px;line-height:1.25;font-family:sans-serif;letter-spacing:0;word-spacing:0;fill:#000;fill-opacity:1;stroke:none;stroke-width:.26458332"><tspan style="stroke-width:.26458332" id="tspan10470" x="62.432" y="94.373">MT</tspan></text><text id="text10468" x="-5.989" y="168.753" xml:space="preserve" style="font-style:normal;font-weight:400;font-size:10.58333302px;line-height:1.25;font-family:sans-serif;letter-spacing:0;word-spacing:0;fill:#000;fill-opacity:1;stroke:none;stroke-width:.26458332"><tspan style="stroke-width:.26458332" id="tspan10466" x="-5.989" y="168.753">HI</tspan></text><text id="text10464" x="48.325" y="138.952" xml:space="preserve" style="font-style:normal;font-weight:400;font-size:10.58333302px;line-height:1.25;font-family:sans-serif;letter-spacing:0;word-spacing:0;fill:#000;fill-opacity:1;stroke:none;stroke-width:.26458332"><tspan style="stroke-width:.26458332" id="tspan10462" x="48.325" y="138.952">CA</tspan></text><text id="text10460" x="33.048" y="124.076" xml:space="preserve" style="font-style:normal;font-weight:400;font-size:10.58333302px;line-height:1.25;font-family:sans-serif;letter-spacing:0;word-spacing:0;fill:#000;fill-opacity:1;stroke:none;stroke-width:.26458332"><tspan style="stroke-width:.26458332" id="tspan10458" x="33.048" y="124.076">OR</tspan></text><text id="text10456" x="50.059" y="109.227" xml:space="preserve" style="font-style:normal;font-weight:400;font-size:10.58333302px;line-height:1.25;font-family:sans-serif;letter-spacing:0;word-spacing:0;fill:#000;fill-opacity:1;stroke:none;stroke-width:.26458332"><tspan style="stroke-width:.26458332" id="tspan10454" x="50.059" y="109.227">ID</tspan></text><text id="text10452" x="32.346" y="94.351" xml:space="preserve" style="font-style:normal;font-weight:400;font-size:10.58333302px;line-height:1.25;font-family:sans-serif;letter-spacing:0;word-spacing:0;fill:#000;fill-opacity:1;stroke:none;stroke-width:.26458332"><tspan style="stroke-width:.26458332" id="tspan10450" x="32.346" y="94.351">WA</tspan></text></g></g></svg>