<svg xmlns="http://www.w3.org/2000/svg" xmlns:svg="http://www.w3.org/2000/svg" viewBox="0 0 293.434 209.17"><g id="layer1" transform="translate(-46.115993,-29.80878)"><g id="Widwest" data-cv-view="MIDWEST" title="Midwest region" transform="translate(-12.971824,-0.15303492)"><path style="fill:#ccc;stroke:#fff;stroke-width:1.06152809;stroke-miterlimit:4;stroke-dasharray:none;stroke-opacity:1" id="use3947" d="M 113.63481,114.11957 93.224099,119.41123 87.932433,99.00052 108.34315,93.708853 Z" data-cv-key="ND" transform="matrix(0.25069217,-0.96465953,0.96529907,0.25052636,46.124625,173.49756)"/><path style="fill:#ccc;stroke:#fff;stroke-width:1.06152809;stroke-miterlimit:4;stroke-dasharray:none;stroke-opacity:1" id="use3963" d="m 139.45833,114.32939 -20.41071,5.29167 -5.29167,-20.410717 20.41071,-5.291666 z" data-cv-key="MN" transform="matrix(0.25069217,-0.96465953,0.96529907,0.25052636,60.477351,198.36466)"/><path style="fill:#ccc;stroke:#fff;stroke-width:1.06152809;stroke-miterlimit:4;stroke-dasharray:none;stroke-opacity:1" id="use3965" d="m 126.36485,136.5883 -20.41072,5.29167 -5.29166,-20.41072 20.41071,-5.29166 z" data-cv-key="SD" transform="matrix(0.25069217,-0.96465953,0.96529907,0.25052636,21.235491,201.16379)"/><path style="fill:#ccc;stroke:#fff;stroke-width:1.06152809;stroke-miterlimit:4;stroke-dasharray:none;stroke-opacity:1" id="use3967" d="m 139.0949,159.05705 -20.41071,5.29167 -5.29167,-20.41072 20.41072,-5.29166 z" data-cv-key="NE" transform="matrix(0.25069217,-0.96465953,0.96529907,0.25052636,-3.653663,228.83004)"/><path style="fill:#ccc;stroke:#fff;stroke-width:1.06152809;stroke-miterlimit:4;stroke-dasharray:none;stroke-opacity:1" id="use3979" d="m 165.28185,114.53922 -20.41071,5.29167 -5.29167,-20.410715 20.41072,-5.291667 z" data-cv-key="WI" transform="matrix(0.25069217,-0.96465953,0.96529907,0.25052636,74.838833,202.21667)"/><path style="fill:#ccc;stroke:#fff;stroke-width:1.06152809;stroke-miterlimit:4;stroke-dasharray:none;stroke-opacity:1" id="use3981" d="m 152.18838,136.79814 -20.41071,5.29167 -5.29167,-20.41072 20.41071,-5.29166 z" data-cv-key="IA" transform="matrix(0.25069217,-0.96465953,0.96529907,0.25052636,35.588199,226.0309)"/><path style="fill:#ccc;stroke:#fff;stroke-width:1.06152809;stroke-miterlimit:4;stroke-dasharray:none;stroke-opacity:1" id="use3983" d="m 164.91842,159.26688 -20.41071,5.29166 -5.29167,-20.41071 20.41071,-5.29167 z" data-cv-key="MO" transform="matrix(0.25069217,-0.96465953,0.96529907,0.25052636,10.699063,253.69714)"/><path style="fill:#ccc;stroke:#fff;stroke-width:1.06152809;stroke-miterlimit:4;stroke-dasharray:none;stroke-opacity:1" id="use3985" d="m 151.82494,181.52579 -20.41071,5.29166 -5.29167,-20.41071 20.41072,-5.29167 z" data-cv-key="KS" transform="matrix(0.25069217,-0.96465953,0.96529907,0.25052636,-28.542799,256.49627)"/><path style="fill:#ccc;stroke:#fff;stroke-width:1.06152809;stroke-miterlimit:4;stroke-dasharray:none;stroke-opacity:1" id="use3997" d="m 178.0119,137.00796 -20.41072,5.29167 -5.29166,-20.41071 20.41071,-5.29167 z" data-cv-key="IL" transform="matrix(0.25069217,-0.96465953,0.96529907,0.25052636,49.94969,229.88291)"/><path style="fill:#ccc;stroke:#fff;stroke-width:1.06152809;stroke-miterlimit:4;stroke-dasharray:none;stroke-opacity:1" id="use4011" d="m 216.9289,114.95888 -20.41071,5.29167 -5.29167,-20.410713 20.41072,-5.291666 z" data-cv-key="MI" transform="matrix(0.25069217,-0.96465953,0.96529907,0.25052636,82.506479,272.95721)"/><path style="fill:#ccc;stroke:#fff;stroke-width:1.06152809;stroke-miterlimit:4;stroke-dasharray:none;stroke-opacity:1" id="use4013" d="m 203.83541,137.21779 -20.41071,5.29166 -5.29167,-20.41071 20.41072,-5.29167 z" data-cv-key="IN" transform="matrix(0.25069217,-0.96465953,0.96529907,0.25052636,43.264629,275.75633)"/><path style="fill:#ccc;stroke:#fff;stroke-width:1.06152809;stroke-miterlimit:4;stroke-dasharray:none;stroke-opacity:1" id="use4029" d="m 229.65894,137.42763 -20.41071,5.29166 -5.29167,-20.41071 20.41072,-5.29167 z" data-cv-key="OH" transform="matrix(0.25069217,-0.96465953,0.96529907,0.25052636,57.617336,300.62344)"/><text id="text10500" x="166.01" y="106.819" xml:space="preserve" style="font-style:normal;font-weight:400;font-size:10.5833px;line-height:1.25;font-family:sans-serif;letter-spacing:0;word-spacing:0;fill:#000;fill-opacity:1;stroke:none;stroke-width:.264583"><tspan style="stroke-width:.264583" id="tspan10498" x="166.01" y="106.819">ND</tspan></text><text id="text10504" x="186.848" y="106.828" xml:space="preserve" style="font-style:normal;font-weight:400;font-size:10.5833px;line-height:1.25;font-family:sans-serif;letter-spacing:0;word-spacing:0;fill:#000;fill-opacity:1;stroke:none;stroke-width:.264583"><tspan style="stroke-width:.264583" id="tspan10502" x="186.848" y="106.828">MN</tspan></text><text id="text10508" x="166.513" y="127.834" xml:space="preserve" style="font-style:normal;font-weight:400;font-size:10.5833px;line-height:1.25;font-family:sans-serif;letter-spacing:0;word-spacing:0;fill:#000;fill-opacity:1;stroke:none;stroke-width:.264583"><tspan style="stroke-width:.264583" id="tspan10506" x="166.513" y="127.834">SD</tspan></text><text id="text10512" x="189.136" y="127.843" xml:space="preserve" style="font-style:normal;font-weight:400;font-size:10.5833px;line-height:1.25;font-family:sans-serif;letter-spacing:0;word-spacing:0;fill:#000;fill-opacity:1;stroke:none;stroke-width:.264583"><tspan style="stroke-width:.264583" id="tspan10510" x="189.136" y="127.843">IA</tspan></text><text id="text10516" x="208.979" y="85.822" xml:space="preserve" style="font-style:normal;font-weight:400;font-size:10.5833px;line-height:1.25;font-family:sans-serif;letter-spacing:0;word-spacing:0;fill:#000;fill-opacity:1;stroke:none;stroke-width:.264583"><tspan style="stroke-width:.264583" id="tspan10514" x="208.979" y="85.822">WI</tspan></text><text id="text10520" x="230.485" y="106.845" xml:space="preserve" style="font-style:normal;font-weight:400;font-size:10.5833px;line-height:1.25;font-family:sans-serif;letter-spacing:0;word-spacing:0;fill:#000;fill-opacity:1;stroke:none;stroke-width:.264583"><tspan style="stroke-width:.264583" id="tspan10518" x="230.485" y="106.845">MI</tspan></text><text id="text10524" x="210.774" y="106.837" xml:space="preserve" style="font-style:normal;font-weight:400;font-size:10.5833px;line-height:1.25;font-family:sans-serif;letter-spacing:0;word-spacing:0;fill:#000;fill-opacity:1;stroke:none;stroke-width:.264583"><tspan style="stroke-width:.264583" id="tspan10522" x="210.774" y="106.837">IL</tspan></text><text id="text10528" x="210.263" y="127.852" xml:space="preserve" style="font-style:normal;font-weight:400;font-size:10.5833px;line-height:1.25;font-family:sans-serif;letter-spacing:0;word-spacing:0;fill:#000;fill-opacity:1;stroke:none;stroke-width:.264583"><tspan style="stroke-width:.264583" id="tspan10526" x="210.263" y="127.852">IN</tspan></text><text id="text10532" x="229.409" y="127.86" xml:space="preserve" style="font-style:normal;font-weight:400;font-size:10.5833px;line-height:1.25;font-family:sans-serif;letter-spacing:0;word-spacing:0;fill:#000;fill-opacity:1;stroke:none;stroke-width:.264583"><tspan style="stroke-width:.264583" id="tspan10530" x="229.409" y="127.86">OH</tspan></text><text id="text10536" x="166.708" y="148.849" xml:space="preserve" style="font-style:normal;font-weight:400;font-size:10.5833px;line-height:1.25;font-family:sans-serif;letter-spacing:0;word-spacing:0;fill:#000;fill-opacity:1;stroke:none;stroke-width:.264583"><tspan style="stroke-width:.264583" id="tspan10534" x="166.708" y="148.849">NE</tspan></text><text id="text10540" x="166.715" y="169.864" xml:space="preserve" style="font-style:normal;font-weight:400;font-size:10.5833px;line-height:1.25;font-family:sans-serif;letter-spacing:0;word-spacing:0;fill:#000;fill-opacity:1;stroke:none;stroke-width:.264583"><tspan style="stroke-width:.264583" id="tspan10538" x="166.715" y="169.864">KS</tspan></text><text id="text10544" x="186.412" y="148.858" xml:space="preserve" style="font-style:normal;font-weight:400;font-size:10.5833px;line-height:1.25;font-family:sans-serif;letter-spacing:0;word-spacing:0;fill:#000;fill-opacity:1;stroke:none;stroke-width:.264583"><tspan style="stroke-width:.264583" id="tspan10542" x="186.412" y="148.858">MO</tspan></text></g><g id="South" data-cv-view="SOUTH" title="South region" transform="translate(-12.358343,24.605727)"><path style="fill:#b3b3b3;stroke:#fff;stroke-width:1.06152809;stroke-miterlimit:4;stroke-dasharray:none;stroke-opacity:1" id="use3971" d="m 138.73147,203.7847 -20.41071,5.29166 -5.29167,-20.41071 20.41071,-5.29167 z" data-cv-key="OK" transform="matrix(0.25069217,-0.96465953,0.96529907,0.25052636,-47.369119,234.54541)"/><path style="fill:#b3b3b3;stroke:#fff;stroke-width:1.06152809;stroke-miterlimit:4;stroke-dasharray:none;stroke-opacity:1" id="use3987" d="m 164.55499,203.99454 -20.41072,5.29166 -5.29166,-20.41071 20.41071,-5.29167 z" data-cv-key="LA" transform="matrix(0.25069217,-0.96465953,0.96529907,0.25052636,-33.016408,259.41251)"/><path style="fill:#b3b3b3;stroke:#fff;stroke-width:1.06152809;stroke-miterlimit:4;stroke-dasharray:none;stroke-opacity:1" id="use3989" d="m 151.46151,226.25345 -20.41071,5.29166 -5.29167,-20.41071 20.41071,-5.29167 z" data-cv-key="TX" transform="matrix(0.25069217,-0.96465953,0.96529907,0.25052636,-72.25827,262.21164)"/><path style="fill:#b3b3b3;stroke:#fff;stroke-width:1.06152809;stroke-miterlimit:4;stroke-dasharray:none;stroke-opacity:1" id="use3999" d="m 190.74194,159.4767 -20.41072,5.29167 -5.29166,-20.41072 20.41071,-5.29166 z" data-cv-key="KY" transform="matrix(0.25069217,-0.96465953,0.96529907,0.25052636,24.438308,253.80547)"/><path style="fill:#b3b3b3;stroke:#fff;stroke-width:1.06152809;stroke-miterlimit:4;stroke-dasharray:none;stroke-opacity:1" id="use4001" d="m 177.64848,181.73561 -20.41072,5.29167 -5.29166,-20.41072 20.41071,-5.29166 z" data-cv-key="AR" transform="matrix(0.25069217,-0.96465953,0.96529907,0.25052636,-14.803558,256.60462)"/><path style="fill:#b3b3b3;stroke:#fff;stroke-width:1.06152809;stroke-miterlimit:4;stroke-dasharray:none;stroke-opacity:1" id="use4003" d="m 190.3785,204.20436 -20.41071,5.29167 -5.29167,-20.41072 20.41072,-5.29166 z" data-cv-key="MS" transform="matrix(0.25069217,-0.96465953,0.96529907,0.25052636,-18.663682,284.27961)"/><path style="fill:#b3b3b3;stroke:#fff;stroke-width:1.06152809;stroke-miterlimit:4;stroke-dasharray:none;stroke-opacity:1" id="use4015" d="m 216.56547,159.68654 -20.41071,5.29166 -5.29167,-20.41071 20.41071,-5.29167 z" data-cv-key="WV" transform="matrix(0.25069217,-0.96465953,0.96529907,0.25052636,38.791015,278.67258)"/><path style="fill:#b3b3b3;stroke:#fff;stroke-width:1.06152809;stroke-miterlimit:4;stroke-dasharray:none;stroke-opacity:1" id="use4017" d="m 203.47199,181.94545 -20.41071,5.29167 -5.29167,-20.41072 20.41072,-5.29166 z" data-cv-key="TN" transform="matrix(0.25069217,-0.96465953,0.96529907,0.25052636,-0.45084693,281.47172)"/><path style="fill:#b3b3b3;stroke:#fff;stroke-width:1.06152809;stroke-miterlimit:4;stroke-dasharray:none;stroke-opacity:1" id="use4019" d="m 216.20204,204.4142 -20.41072,5.29167 -5.29166,-20.41072 20.41071,-5.29166 z" data-cv-key="AL" transform="matrix(0.25069217,-0.96465953,0.96529907,0.25052636,-4.3109755,309.14672)"/><path style="fill:#b3b3b3;stroke:#fff;stroke-width:1.06152809;stroke-miterlimit:4;stroke-dasharray:none;stroke-opacity:1" id="use4031" d="m 242.51138,159.81885 -20.41072,5.29166 -5.29166,-20.41071 20.41071,-5.29167 z" data-cv-key="VA" transform="matrix(0.25069217,-0.96465953,0.96529907,0.25052636,53.187883,303.67717)"/><path style="fill:#b3b3b3;stroke:#fff;stroke-width:1.06152809;stroke-miterlimit:4;stroke-dasharray:none;stroke-opacity:1" id="use4033" d="m 229.29551,182.15529 -20.41071,5.29166 -5.29167,-20.41071 20.41071,-5.29167 z" data-cv-key="NC" transform="matrix(0.25069217,-0.96465953,0.96529907,0.25052636,13.901865,306.33882)"/><path style="fill:#b3b3b3;stroke:#fff;stroke-width:1.06152809;stroke-miterlimit:4;stroke-dasharray:none;stroke-opacity:1" id="use4035" d="m 242.02557,204.62404 -20.41072,5.29166 -5.29166,-20.41071 20.41071,-5.29167 z" data-cv-key="GA" transform="matrix(0.25069217,-0.96465953,0.96529907,0.25052636,10.041732,334.01383)"/><path style="fill:#b3b3b3;stroke:#fff;stroke-width:1.06152809;stroke-miterlimit:4;stroke-dasharray:none;stroke-opacity:1" id="use4037" d="m 228.93209,226.88295 -20.41071,5.29167 -5.29167,-20.41072 20.41072,-5.29166 z" data-cv-key="FL" transform="matrix(0.25069217,-0.96465953,0.96529907,0.25052636,12.857914,336.8305)"/><path style="fill:#b3b3b3;stroke:#fff;stroke-width:1.06152809;stroke-miterlimit:4;stroke-dasharray:none;stroke-opacity:1" id="use4047" d="m 268.4573,160.21571 -20.41071,5.29167 -5.29167,-20.41071 20.41071,-5.29167 z" data-cv-key="MD" transform="matrix(0.25069217,-0.96465953,0.96529907,0.25052636,67.329372,328.61549)"/><path style="fill:#b3b3b3;stroke:#fff;stroke-width:1.06152809;stroke-miterlimit:4;stroke-dasharray:none;stroke-opacity:1" id="use4049" d="m 255.36382,182.47462 -20.41071,5.29167 -5.29167,-20.41071 20.41072,-5.29167 z" data-cv-key="SC" transform="matrix(0.25069217,-0.96465953,0.96529907,0.25052636,28.08751,331.41463)"/><path style="fill:#b3b3b3;stroke:#fff;stroke-width:1.06152809;stroke-miterlimit:4;stroke-dasharray:none;stroke-opacity:1" id="use4063" d="m 294.28082,160.42554 -20.41072,5.29166 -5.29166,-20.41071 20.41071,-5.29167 z" data-cv-key="DE" transform="matrix(0.25069217,-0.96465953,0.96529907,0.25052636,81.682098,353.48259)"/><path style="fill:#b3b3b3;stroke:#fff;stroke-width:1.06152809;stroke-miterlimit:4;stroke-dasharray:none;stroke-opacity:1" id="use4065" d="m 281.18734,182.68445 -20.41071,5.29166 -5.29167,-20.41071 20.41071,-5.29167 z" data-cv-key="DC" transform="matrix(0.25069217,-0.96465953,0.96529907,0.25052636,42.440236,356.28173)"/><text id="text10646" x="292.145" y="124.143" xml:space="preserve" style="font-style:normal;font-weight:400;font-size:10.5833px;line-height:1.25;font-family:sans-serif;letter-spacing:0;word-spacing:0;fill:#000;fill-opacity:1;stroke:none;stroke-width:.264583"><tspan style="stroke-width:.264583" id="tspan10644" x="292.145" y="124.143">DE</tspan></text><text id="text10698" x="166.877" y="187.136" xml:space="preserve" style="font-style:normal;font-weight:400;font-size:10.5833px;line-height:1.25;font-family:sans-serif;letter-spacing:0;word-spacing:0;fill:#000;fill-opacity:1;stroke:none;stroke-width:.264583"><tspan style="stroke-width:.264583" id="tspan10696" x="166.877" y="187.136">TX</tspan></text><text id="text10702" x="272.234" y="187.18" xml:space="preserve" style="font-style:normal;font-weight:400;font-size:10.5833px;line-height:1.25;font-family:sans-serif;letter-spacing:0;word-spacing:0;fill:#000;fill-opacity:1;stroke:none;stroke-width:.264583"><tspan style="stroke-width:.264583" id="tspan10700" x="272.234" y="187.18">FL</tspan></text><text id="text10694" x="249.77" y="166.151" xml:space="preserve" style="font-style:normal;font-weight:400;font-size:10.5833px;line-height:1.25;font-family:sans-serif;letter-spacing:0;word-spacing:0;fill:#000;fill-opacity:1;stroke:none;stroke-width:.264583"><tspan style="stroke-width:.264583" id="tspan10692" x="249.77" y="166.151">GA</tspan></text><text id="text10690" x="230.056" y="166.147" xml:space="preserve" style="font-style:normal;font-weight:400;font-size:10.5833px;line-height:1.25;font-family:sans-serif;letter-spacing:0;word-spacing:0;fill:#000;fill-opacity:1;stroke:none;stroke-width:.264583"><tspan style="stroke-width:.264583" id="tspan10688" x="230.056" y="166.147">AL</tspan></text><text id="text10686" x="207.368" y="166.138" xml:space="preserve" style="font-style:normal;font-weight:400;font-size:10.5833px;line-height:1.25;font-family:sans-serif;letter-spacing:0;word-spacing:0;fill:#000;fill-opacity:1;stroke:none;stroke-width:.264583"><tspan style="stroke-width:.264583" id="tspan10684" x="207.368" y="166.138">MS</tspan></text><text id="text10682" x="187.621" y="166.129" xml:space="preserve" style="font-style:normal;font-weight:400;font-size:10.5833px;line-height:1.25;font-family:sans-serif;letter-spacing:0;word-spacing:0;fill:#000;fill-opacity:1;stroke:none;stroke-width:.264583"><tspan style="stroke-width:.264583" id="tspan10680" x="187.621" y="166.129">LA</tspan></text><text id="text10678" x="165.532" y="166.121" xml:space="preserve" style="font-style:normal;font-weight:400;font-size:10.5833px;line-height:1.25;font-family:sans-serif;letter-spacing:0;word-spacing:0;fill:#000;fill-opacity:1;stroke:none;stroke-width:.264583"><tspan style="stroke-width:.264583" id="tspan10676" x="165.532" y="166.121">OK</tspan></text><text id="text10674" x="250.277" y="145.141" xml:space="preserve" style="font-style:normal;font-weight:400;font-size:10.5833px;line-height:1.25;font-family:sans-serif;letter-spacing:0;word-spacing:0;fill:#000;fill-opacity:1;stroke:none;stroke-width:.264583"><tspan style="stroke-width:.264583" id="tspan10672" x="250.277" y="145.141">SC</tspan></text><text id="text10670" x="228.737" y="145.132" xml:space="preserve" style="font-style:normal;font-weight:400;font-size:10.5833px;line-height:1.25;font-family:sans-serif;letter-spacing:0;word-spacing:0;fill:#000;fill-opacity:1;stroke:none;stroke-width:.264583"><tspan style="stroke-width:.264583" id="tspan10668" x="228.737" y="145.132">NC</tspan></text><text id="text10666" x="208.953" y="145.123" xml:space="preserve" style="font-style:normal;font-weight:400;font-size:10.5833px;line-height:1.25;font-family:sans-serif;letter-spacing:0;word-spacing:0;fill:#000;fill-opacity:1;stroke:none;stroke-width:.264583"><tspan style="stroke-width:.264583" id="tspan10664" x="208.953" y="145.123">TN</tspan></text><text id="text10662" x="187.257" y="145.114" xml:space="preserve" style="font-style:normal;font-weight:400;font-size:10.5833px;line-height:1.25;font-family:sans-serif;letter-spacing:0;word-spacing:0;fill:#000;fill-opacity:1;stroke:none;stroke-width:.264583"><tspan style="stroke-width:.264583" id="tspan10660" x="187.257" y="145.114">AR</tspan></text><text id="text10626" x="208.241" y="124.108" xml:space="preserve" style="font-style:normal;font-weight:400;font-size:10.5833px;line-height:1.25;font-family:sans-serif;letter-spacing:0;word-spacing:0;fill:#000;fill-opacity:1;stroke:none;stroke-width:.264583"><tspan style="stroke-width:.264583" id="tspan10624" x="208.241" y="124.108">KY</tspan></text><text id="text10630" x="227.691" y="124.117" xml:space="preserve" style="font-style:normal;font-weight:400;font-size:10.5833px;line-height:1.25;font-family:sans-serif;letter-spacing:0;word-spacing:0;fill:#000;fill-opacity:1;stroke:none;stroke-width:.264583"><tspan style="stroke-width:.264583" id="tspan10628" x="227.691" y="124.117">WV</tspan></text><text id="text10634" x="250.503" y="124.126" xml:space="preserve" style="font-style:normal;font-weight:400;font-size:10.5833px;line-height:1.25;font-family:sans-serif;letter-spacing:0;word-spacing:0;fill:#000;fill-opacity:1;stroke:none;stroke-width:.264583"><tspan style="stroke-width:.264583" id="tspan10632" x="250.503" y="124.126">VA</tspan></text><text id="text10638" x="270.018" y="124.134" xml:space="preserve" style="font-style:normal;font-weight:400;font-size:10.5833px;line-height:1.25;font-family:sans-serif;letter-spacing:0;word-spacing:0;fill:#000;fill-opacity:1;stroke:none;stroke-width:.264583"><tspan style="stroke-width:.264583" id="tspan10636" x="270.018" y="124.134">MD</tspan></text><text id="text10642" x="270.671" y="145.149" xml:space="preserve" style="font-style:normal;font-weight:400;font-size:10.5833px;line-height:1.25;font-family:sans-serif;letter-spacing:0;word-spacing:0;fill:#000;fill-opacity:1;stroke:none;stroke-width:.264583"><tspan style="stroke-width:.264583" id="tspan10640" x="270.671" y="145.149">DC</tspan></text></g><g id="Northeast" data-cv-view="NORTHEAST" title="Northeast region"><path style="fill:#999;stroke:#fff;stroke-width:1.06152809;stroke-miterlimit:4;stroke-dasharray:none;stroke-opacity:1" id="use4043" d="m 268.69833,115.30102 -20.41072,5.29166 -5.29166,-20.41071 20.41071,-5.291667 z" data-cv-key="NY" transform="matrix(0.25069217,-0.96465953,0.96529907,0.25052636,98.284249,322.67586)"/><path style="fill:#999;stroke:#fff;stroke-width:1.06152809;stroke-miterlimit:4;stroke-dasharray:none;stroke-opacity:1" id="use4045" d="m 255.60485,137.55994 -20.41071,5.29166 -5.29167,-20.41071 20.41072,-5.29167 z" data-cv-key="PA" transform="matrix(0.25069217,-0.96465953,0.96529907,0.25052636,59.04238,325.47499)"/><path style="fill:#999;stroke:#fff;stroke-width:1.06152809;stroke-miterlimit:4;stroke-dasharray:none;stroke-opacity:1" id="use4057" d="m 281.90429,93.019317 -20.41071,5.291666 -5.29167,-20.410713 20.41071,-5.291667 z" data-cv-key="VT" transform="matrix(0.25069217,-0.96465953,0.96529907,0.25052636,137.51991,319.99095)"/><path style="fill:#999;stroke:#fff;stroke-width:1.06152809;stroke-miterlimit:4;stroke-dasharray:none;stroke-opacity:1" id="use4059" d="m 294.64425,115.69789 -20.41071,5.29167 -5.29167,-20.41072 20.41071,-5.291663 z" data-cv-key="MA" transform="matrix(0.25069217,-0.96465953,0.96529907,0.25052636,112.42573,347.61418)"/><path style="fill:#999;stroke:#fff;stroke-width:1.06152809;stroke-miterlimit:4;stroke-dasharray:none;stroke-opacity:1" id="use4061" d="m 281.55077,137.9568 -20.41071,5.29167 -5.29166,-20.41072 20.41071,-5.29166 z" data-cv-key="NJ" transform="matrix(0.25069217,-0.96465953,0.96529907,0.25052636,73.183868,350.41332)"/><path style="fill:#999;stroke:#fff;stroke-width:1.06152809;stroke-miterlimit:4;stroke-dasharray:none;stroke-opacity:1" id="use4071" d="M 320.82128,70.970237 300.41057,76.261903 295.1189,55.85119 315.52962,50.559523 Z" data-cv-key="ME" transform="matrix(0.25069217,-0.96465953,0.96529907,0.25052636,170.08547,342.05015)"/><path style="fill:#999;stroke:#fff;stroke-width:1.06152809;stroke-miterlimit:4;stroke-dasharray:none;stroke-opacity:1" id="use4073" d="m 307.72781,93.229148 -20.41072,5.291666 -5.29166,-20.410713 20.41071,-5.291667 z" data-cv-key="NH" transform="matrix(0.25069217,-0.96465953,0.96529907,0.25052636,151.87263,344.85805)"/><path style="fill:#999;stroke:#fff;stroke-width:1.06152809;stroke-miterlimit:4;stroke-dasharray:none;stroke-opacity:1" id="use4077" d="m 307.36437,137.9568 -20.41071,5.29167 -5.29167,-20.41072 20.41072,-5.29166 z" data-cv-key="CT" transform="matrix(0.25069217,-0.96465953,0.96529907,0.25052636,87.741623,375.32342)"/><path style="fill:#999;stroke:#fff;stroke-width:1.06152809;stroke-miterlimit:4;stroke-dasharray:none;stroke-opacity:1" id="use4075" d="m 320.45785,115.69789 -20.41071,5.29167 -5.29167,-20.41072 20.41071,-5.291663 z" data-cv-key="RI" transform="matrix(0.25069217,-0.96465953,0.96529907,0.25052636,126.97472,393.53937)"/><text id="text10572" x="300.468" y="64.697" xml:space="preserve" style="font-style:normal;font-weight:400;font-size:10.5833px;line-height:1.25;font-family:sans-serif;letter-spacing:0;word-spacing:0;fill:#000;fill-opacity:1;stroke:none;stroke-width:.264583"><tspan style="stroke-width:.264583" id="tspan10570" x="300.468" y="64.697">ME</tspan></text><text id="text10576" x="300.558" y="85.712" xml:space="preserve" style="font-style:normal;font-weight:400;font-size:10.5833px;line-height:1.25;font-family:sans-serif;letter-spacing:0;word-spacing:0;fill:#000;fill-opacity:1;stroke:none;stroke-width:.264583"><tspan style="stroke-width:.264583" id="tspan10574" x="300.558" y="85.712">NH</tspan></text><text id="text10580" x="302.406" y="127.742" xml:space="preserve" style="font-style:normal;font-weight:400;font-size:10.5833px;line-height:1.25;font-family:sans-serif;letter-spacing:0;word-spacing:0;fill:#000;fill-opacity:1;stroke:none;stroke-width:.264583"><tspan style="stroke-width:.264583" id="tspan10578" x="302.406" y="127.742">RI</tspan></text><text id="text10584" x="280.188" y="127.734" xml:space="preserve" style="font-style:normal;font-weight:400;font-size:10.5833px;line-height:1.25;font-family:sans-serif;letter-spacing:0;word-spacing:0;fill:#000;fill-opacity:1;stroke:none;stroke-width:.264583"><tspan style="stroke-width:.264583" id="tspan10582" x="280.188" y="127.734">CT</tspan></text><text id="text10588" x="260.014" y="127.671" xml:space="preserve" style="font-style:normal;font-weight:400;font-size:10.5833px;line-height:1.25;font-family:sans-serif;letter-spacing:0;word-spacing:0;fill:#000;fill-opacity:1;stroke:none;stroke-width:.264583"><tspan style="stroke-width:.264583" id="tspan10586" x="260.014" y="127.671">NJ</tspan></text><text id="text10592" x="280.518" y="85.704" xml:space="preserve" style="font-style:normal;font-weight:400;font-size:10.5833px;line-height:1.25;font-family:sans-serif;letter-spacing:0;word-spacing:0;fill:#000;fill-opacity:1;stroke:none;stroke-width:.264583"><tspan style="stroke-width:.264583" id="tspan10590" x="280.518" y="85.704">VT</tspan></text><text id="text10596" x="258.711" y="106.71" xml:space="preserve" style="font-style:normal;font-weight:400;font-size:10.5833px;line-height:1.25;font-family:sans-serif;letter-spacing:0;word-spacing:0;fill:#000;fill-opacity:1;stroke:none;stroke-width:.264583"><tspan style="stroke-width:.264583" id="tspan10594" x="258.711" y="106.71">NY</tspan></text><text id="text10600" x="278.923" y="106.719" xml:space="preserve" style="font-style:normal;font-weight:400;font-size:10.5833px;line-height:1.25;font-family:sans-serif;letter-spacing:0;word-spacing:0;fill:#000;fill-opacity:1;stroke:none;stroke-width:.264583"><tspan style="stroke-width:.264583" id="tspan10598" x="278.923" y="106.719">MA</tspan></text><text id="text10604" x="238.128" y="127.716" xml:space="preserve" style="font-style:normal;font-weight:400;font-size:10.5833px;line-height:1.25;font-family:sans-serif;letter-spacing:0;word-spacing:0;fill:#000;fill-opacity:1;stroke:none;stroke-width:.264583"><tspan style="stroke-width:.264583" id="tspan10602" x="238.128" y="127.716">PA</tspan></text></g><g id="West" data-cv-view="WEST" title="West region" transform="translate(2.708273,2.9063548)"><path style="fill:#e6e6e6;stroke:#fff;stroke-width:1.06152809;stroke-miterlimit:4;stroke-dasharray:none;stroke-opacity:1" id="use3969" d="m 126.00142,181.31595 -20.41071,5.29166 -5.29167,-20.41071 20.41071,-5.29167 z" data-cv-key="NM" transform="matrix(0.25069217,-0.96465953,0.96529907,0.25052636,-58.575605,228.56978)"/><path id="use3935" d="m 87.447854,158.63739 -20.410713,5.29167 -5.291666,-20.41072 20.410713,-5.29166 z" data-cv-key="NV" transform="matrix(0.25069217,-0.96465953,0.96529907,0.25052636,-48.030429,155.02135)" style="fill:#ececec;stroke:#fff;stroke-width:1.06152809;stroke-miterlimit:4;stroke-dasharray:none;stroke-opacity:1"/><path style="fill:#e6e6e6;stroke:#fff;stroke-width:1.06152809;stroke-miterlimit:4;stroke-dasharray:none;stroke-opacity:1" id="use3915" d="M 61.987764,113.6999 41.57705,118.99157 36.285384,98.580857 56.696097,93.289191 Z" data-cv-key="WA" transform="matrix(0.25069217,-0.96465953,0.96529907,0.25052636,-19.289928,120.69519)"/><path style="fill:#e6e6e6;stroke:#fff;stroke-width:1.06152809;stroke-miterlimit:4;stroke-dasharray:none;stroke-opacity:1" id="use3919" d="m 61.62433,158.42757 -20.410714,5.29166 -5.291666,-20.41071 20.410713,-5.29167 z" data-cv-key="OR" transform="matrix(0.25069217,-0.96465953,0.96529907,0.25052636,-62.383153,130.15424)"/><path style="fill:#e6e6e6;stroke:#fff;stroke-width:1.06152809;stroke-miterlimit:4;stroke-dasharray:none;stroke-opacity:1" id="use3931" d="M 87.811288,113.90974 67.400575,119.2014 62.108908,98.790689 82.519622,93.499022 Z" data-cv-key="MT" transform="matrix(0.25069217,-0.96465953,0.96529907,0.25052636,16.091811,145.57106)"/><path style="fill:#e6e6e6;stroke:#fff;stroke-width:1.06152809;stroke-miterlimit:4;stroke-dasharray:none;stroke-opacity:1" id="use3933" d="m 74.717809,136.16865 -20.410713,5.29167 -5.291667,-20.41071 20.410714,-5.29167 z" data-cv-key="ID" transform="matrix(0.25069217,-0.96465953,0.96529907,0.25052636,-23.141292,127.3551)"/><path style="fill:#e6e6e6;stroke:#fff;stroke-width:1.06152809;stroke-miterlimit:4;stroke-dasharray:none;stroke-opacity:1" id="use3937" d="m 74.354375,180.8963 -20.410713,5.29167 -5.291667,-20.41072 20.410714,-5.29166 z" data-cv-key="CA" transform="matrix(0.25069217,-0.96465953,0.96529907,0.25052636,-87.272288,157.82048)"/><path style="fill:#e6e6e6;stroke:#fff;stroke-width:1.06152809;stroke-miterlimit:4;stroke-dasharray:none;stroke-opacity:1" id="use3949" d="m 100.54134,136.37848 -20.410716,5.29166 -5.291667,-20.41071 20.410714,-5.29167 z" data-cv-key="WY" transform="matrix(0.25069217,-0.96465953,0.96529907,0.25052636,-8.797334,173.23731)"/><path style="fill:#e6e6e6;stroke:#fff;stroke-width:1.06152809;stroke-miterlimit:4;stroke-dasharray:none;stroke-opacity:1" id="use3953" d="m 100.1779,181.10614 -20.41071,5.29167 -5.291666,-20.41072 20.410713,-5.29166 z" data-cv-key="UT" transform="matrix(0.25069217,-0.96465953,0.96529907,0.25052636,-72.91958,182.68759)"/><path style="fill:#e6e6e6;stroke:#fff;stroke-width:1.06152809;stroke-miterlimit:4;stroke-dasharray:none;stroke-opacity:1" id="use3955" d="m 112.90795,203.57489 -20.410711,5.29167 -5.291666,-20.41072 20.410717,-5.29166 z" data-cv-key="AZ" transform="matrix(0.25069217,-0.96465953,0.96529907,0.25052636,-97.808733,210.35382)"/><path style="fill:#e6e6e6;stroke:#fff;stroke-width:1.06152809;stroke-miterlimit:4;stroke-dasharray:none;stroke-opacity:1" id="use3895" d="M 32.50595,70.970237 12.095237,76.261903 6.8035704,55.85119 27.214284,50.559523 Z" data-cv-key="AK" transform="matrix(0.25069217,-0.96465953,0.96529907,0.25052636,8.3188182,61.018115)"/><path id="use3951" d="M 113.27137,158.84721 92.860658,164.13888 87.568991,143.72817 107.9797,138.4365 Z" data-cv-key="CO" transform="matrix(0.25069217,-0.96465953,0.96529907,0.25052636,-33.686467,200.90354)" style="fill:#ececec;stroke:#fff;stroke-width:1.06152809;stroke-miterlimit:4;stroke-dasharray:none;stroke-opacity:1"/><path style="fill:#e6e6e6;stroke:#fff;stroke-width:1.06152809;stroke-miterlimit:4;stroke-dasharray:none;stroke-opacity:1" id="use3909" d="M 17.935225,226.88295 -2.4754881,232.17462 -7.7671545,211.7639 12.643559,206.47224 Z" data-cv-key="HI" transform="matrix(0.25069217,-0.96465953,0.96529907,0.25052636,-138.53105,154.94608)"/><text id="text6759" x="67.162" y="61.791" xml:space="preserve" style="font-style:normal;font-weight:400;font-size:10.5833px;line-height:1.25;font-family:sans-serif;letter-spacing:0;word-spacing:0;fill:#000;fill-opacity:1;stroke:none;stroke-width:.264583"><tspan style="stroke-width:.264583" id="tspan6757" x="67.162" y="61.791">AK</tspan></text><text id="text10496" x="129.099" y="166.796" xml:space="preserve" style="font-style:normal;font-weight:400;font-size:10.5833px;line-height:1.25;font-family:sans-serif;letter-spacing:0;word-spacing:0;fill:#000;fill-opacity:1;stroke:none;stroke-width:.264583"><tspan style="stroke-width:.264583" id="tspan10494" x="129.099" y="166.796">NM</tspan></text><text id="text10492" x="109.476" y="166.787" xml:space="preserve" style="font-style:normal;font-weight:400;font-size:10.5833px;line-height:1.25;font-family:sans-serif;letter-spacing:0;word-spacing:0;fill:#000;fill-opacity:1;stroke:none;stroke-width:.264583"><tspan style="stroke-width:.264583" id="tspan10490" x="109.476" y="166.787">AZ</tspan></text><text id="text10488" x="129.658" y="145.781" xml:space="preserve" style="font-style:normal;font-weight:400;font-size:10.5833px;line-height:1.25;font-family:sans-serif;letter-spacing:0;word-spacing:0;fill:#000;fill-opacity:1;stroke:none;stroke-width:.264583"><tspan style="stroke-width:.264583" id="tspan10486" x="129.658" y="145.781">CO</tspan></text><text id="text10484" x="108.901" y="145.692" xml:space="preserve" style="font-style:normal;font-weight:400;font-size:10.5833px;line-height:1.25;font-family:sans-serif;letter-spacing:0;word-spacing:0;fill:#000;fill-opacity:1;stroke:none;stroke-width:.264583"><tspan style="stroke-width:.264583" id="tspan10482" x="108.901" y="145.692">UT</tspan></text><text id="text10480" x="108.48" y="124.757" xml:space="preserve" style="font-style:normal;font-weight:400;font-size:10.5833px;line-height:1.25;font-family:sans-serif;letter-spacing:0;word-spacing:0;fill:#000;fill-opacity:1;stroke:none;stroke-width:.264583"><tspan style="stroke-width:.264583" id="tspan10478" x="108.48" y="124.757">NV</tspan></text><text id="text10476" x="128.827" y="124.766" xml:space="preserve" style="font-style:normal;font-weight:400;font-size:10.5833px;line-height:1.25;font-family:sans-serif;letter-spacing:0;word-spacing:0;fill:#000;fill-opacity:1;stroke:none;stroke-width:.264583"><tspan style="stroke-width:.264583" id="tspan10474" x="128.827" y="124.766">WY</tspan></text><text id="text10472" x="129.301" y="103.751" xml:space="preserve" style="font-style:normal;font-weight:400;font-size:10.5833px;line-height:1.25;font-family:sans-serif;letter-spacing:0;word-spacing:0;fill:#000;fill-opacity:1;stroke:none;stroke-width:.264583"><tspan style="stroke-width:.264583" id="tspan10470" x="129.301" y="103.751">MT</tspan></text><text id="text10468" x="68.087" y="208.835" xml:space="preserve" style="font-style:normal;font-weight:400;font-size:10.5833px;line-height:1.25;font-family:sans-serif;letter-spacing:0;word-spacing:0;fill:#000;fill-opacity:1;stroke:none;stroke-width:.264583"><tspan style="stroke-width:.264583" id="tspan10466" x="68.087" y="208.835">HI</tspan></text><text id="text10464" x="87.921" y="145.764" xml:space="preserve" style="font-style:normal;font-weight:400;font-size:10.5833px;line-height:1.25;font-family:sans-serif;letter-spacing:0;word-spacing:0;fill:#000;fill-opacity:1;stroke:none;stroke-width:.264583"><tspan style="stroke-width:.264583" id="tspan10462" x="87.921" y="145.764">CA</tspan></text><text id="text10460" x="87.314" y="124.748" xml:space="preserve" style="font-style:normal;font-weight:400;font-size:10.5833px;line-height:1.25;font-family:sans-serif;letter-spacing:0;word-spacing:0;fill:#000;fill-opacity:1;stroke:none;stroke-width:.264583"><tspan style="stroke-width:.264583" id="tspan10458" x="87.314" y="124.748">OR</tspan></text><text id="text10456" x="110.161" y="103.742" xml:space="preserve" style="font-style:normal;font-weight:400;font-size:10.5833px;line-height:1.25;font-family:sans-serif;letter-spacing:0;word-spacing:0;fill:#000;fill-opacity:1;stroke:none;stroke-width:.264583"><tspan style="stroke-width:.264583" id="tspan10454" x="110.161" y="103.742">ID</tspan></text><text id="text10452" x="86.468" y="103.733" xml:space="preserve" style="font-style:normal;font-weight:400;font-size:10.5833px;line-height:1.25;font-family:sans-serif;letter-spacing:0;word-spacing:0;fill:#000;fill-opacity:1;stroke:none;stroke-width:.264583"><tspan style="stroke-width:.264583" id="tspan10450" x="86.468" y="103.733">WA</tspan></text></g></g></svg>