<svg xmlns="http://www.w3.org/2000/svg" style="enable-background:new 0 0 32 32" viewBox="0 0 32 32"><path d="M27 22.1V17c0-1.1-.9-2-2-2h-8V9.9c2.1-.6 3.4-2.7 2.9-4.9-.6-2.1-2.7-3.4-4.9-2.9S11.6 4.8 12.1 7c.4 1.4 1.5 2.5 2.9 2.9V15H7c-1.1 0-2 .9-2 2v5.1c-2.1.6-3.4 2.7-2.9 4.9s2.7 3.4 4.9 2.9c2.1-.6 3.4-2.7 2.9-4.9-.4-1.4-1.5-2.5-2.9-2.9V17h8v5.1c-2.1.6-3.4 2.7-2.9 4.9.6 2.1 2.7 3.4 4.9 2.9 2.1-.6 3.4-2.7 2.9-4.9-.4-1.4-1.5-2.5-2.9-2.9V17h8v5.1c-2.1.6-3.4 2.7-2.9 4.9.6 2.1 2.7 3.4 4.9 2.9 2.1-.6 3.4-2.7 2.9-4.9-.4-1.4-1.5-2.5-2.9-2.9zM14 6c0-1.1.9-2 2-2s2 .9 2 2-.9 2-2 2-2-.9-2-2zM8 26c0 1.1-.9 2-2 2s-2-.9-2-2 .9-2 2-2 2 .9 2 2zm10 0c0 1.1-.9 2-2 2s-2-.9-2-2 .9-2 2-2 2 .9 2 2zm8 2c-1.1 0-2-.9-2-2s.9-2 2-2 2 .9 2 2-.9 2-2 2z"/></svg>