<?xml version="1.0" encoding="utf-8"?>
<!-- Generator: Adobe Illustrator 24.0.0, SVG Export Plug-In . SVG Version: 6.00 Build 0)  -->
<svg version="1.1" id="Layer_1" xmlns="http://www.w3.org/2000/svg" xmlns:xlink="http://www.w3.org/1999/xlink" x="0px" y="0px"
	 width="32px" height="32px" viewBox="0 0 32 32" style="enable-background:new 0 0 32 32;" xml:space="preserve">
<style type="text/css">
	.st0{opacity:0.4;}
	.st1{enable-background:new    ;}
	.st2{opacity:0.4;enable-background:new    ;}
</style>
<rect x="2" y="13" width="7" height="9"/>
<rect x="2" y="23" class="st0" width="7" height="7"/>
<rect x="2" y="2" width="11" height="10"/>
<rect x="14" y="8" width="4" height="4"/>
<rect x="14" y="2" width="8" height="5"/>
<rect x="23" y="2" width="7" height="5"/>
<rect x="10" y="13" width="6" height="5"/>
<rect x="27" y="27" class="st1" width="3" height="3"/>
<rect x="23" y="27" class="st2" width="3" height="3"/>
<rect x="27" y="23" class="st2" width="3" height="3"/>
<rect x="23" y="23" class="st2" width="3" height="3"/>
<rect x="16" y="23" class="st1" width="6" height="3"/>
<rect x="16" y="27" class="st1" width="6" height="3"/>
<rect x="10" y="23" class="st1" width="5" height="7"/>
<rect x="17" y="13" class="st2" width="5" height="5"/>
<rect x="23" y="13" class="st1" width="4" height="5"/>
<rect x="28" y="13" class="st1" width="2" height="3"/>
<rect x="28" y="17" class="st1" width="2" height="2"/>
<rect x="28" y="20" class="st1" width="2" height="2"/>
<rect x="10" y="19" class="st2" width="4" height="3"/>
<rect x="15" y="19" class="st2" width="3" height="3"/>
<rect x="23" y="19" class="st1" width="4" height="3"/>
<rect x="19" y="19" class="st1" width="3" height="3"/>
<rect x="23" y="8" class="st2" width="3" height="4"/>
<rect x="27" y="8" class="st2" width="3" height="4"/>
<rect x="19" y="8" class="st2" width="3" height="4"/>
</svg>
