<svg xmlns="http://www.w3.org/2000/svg" style="enable-background:new 0 0 32 32" viewBox="0 0 32 32"><style/><g id="icon"><path d="M17 15V2h-2v13H2v2h13v13h2V17h13v-2z"/><circle cx="26.7" cy="5.3" r="2"/><path d="M21.9 14.4c1.9 0 3.5-1.6 3.5-3.5s-1.6-3.5-3.5-3.5-3.5 1.6-3.5 3.5c-.1 1.9 1.5 3.5 3.5 3.5zm0-5c.8 0 1.5.7 1.5 1.5s-.7 1.5-1.5 1.5-1.5-.7-1.5-1.5c-.1-.9.6-1.5 1.5-1.5z"/><circle cx="20" cy="20" r="2"/><circle cx="26.7" cy="24" r="2"/><circle cx="21.3" cy="26.7" r="2"/><circle cx="12" cy="12" r="2"/><circle cx="12" cy="20" r="2"/><path d="M6.7 21.8c-1.9 0-3.5 1.6-3.5 3.5s1.6 3.5 3.5 3.5 3.5-1.6 3.5-3.5-1.6-3.5-3.5-3.5zm0 5.1c-.8 0-1.5-.7-1.5-1.5s.7-1.5 1.5-1.5 1.5.7 1.5 1.5-.7 1.5-1.5 1.5zM10 9.1c1.9 0 3.5-1.6 3.5-3.5S11.9 2.1 10 2.1 6.5 3.6 6.5 5.6c0 1.9 1.6 3.5 3.5 3.5zm0-5c.8 0 1.5.7 1.5 1.5s-.7 1.5-1.5 1.5-1.5-.7-1.5-1.5c0-.9.7-1.5 1.5-1.5z"/><circle cx="4" cy="10" r="2"/></g></svg>