<svg xmlns="http://www.w3.org/2000/svg" xmlns:xlink="http://www.w3.org/1999/xlink" id="Layer_1" width="32" height="32" x="0" style="enable-background:new 0 0 32 32" y="0" version="1.1" viewBox="0 0 32 32" xml:space="preserve"><style type="text/css">.st0{opacity:.4}.st1,.st2{enable-background:new}.st2{opacity:.4}</style><rect width="7" height="9" x="2" y="13"/><rect width="7" height="7" x="2" y="23" class="st0"/><rect width="11" height="10" x="2" y="2"/><rect width="4" height="4" x="14" y="8"/><rect width="8" height="5" x="14" y="2"/><rect width="7" height="5" x="23" y="2"/><rect width="6" height="5" x="10" y="13"/><rect width="3" height="3" x="27" y="27" class="st1"/><rect width="3" height="3" x="23" y="27" class="st2"/><rect width="3" height="3" x="27" y="23" class="st2"/><rect width="3" height="3" x="23" y="23" class="st2"/><rect width="6" height="3" x="16" y="23" class="st1"/><rect width="6" height="3" x="16" y="27" class="st1"/><rect width="5" height="7" x="10" y="23" class="st1"/><rect width="5" height="5" x="17" y="13" class="st2"/><rect width="4" height="5" x="23" y="13" class="st1"/><rect width="2" height="3" x="28" y="13" class="st1"/><rect width="2" height="2" x="28" y="17" class="st1"/><rect width="2" height="2" x="28" y="20" class="st1"/><rect width="4" height="3" x="10" y="19" class="st2"/><rect width="3" height="3" x="15" y="19" class="st2"/><rect width="4" height="3" x="23" y="19" class="st1"/><rect width="3" height="3" x="19" y="19" class="st1"/><rect width="3" height="4" x="23" y="8" class="st2"/><rect width="3" height="4" x="27" y="8" class="st2"/><rect width="3" height="4" x="19" y="8" class="st2"/></svg>