<svg xmlns="http://www.w3.org/2000/svg" width="746" height="620"><g><text style="font-size:24px;font-weight:400;text-align:left;text-anchor:left;font-family:Sans-serif" x="10" y="260">Opposition</text><text style="font-size:28px;font-weight:700;text-centre:left;text-anchor:middle;font-family:Sans-serif" x="373" y="320">UK Parliament: House of Commons</text><text style="font-size:24px;font-weight:400;text-align:left;text-anchor:left;font-family:Sans-serif" x="10" y="380">Government</text><g id="Conservative" data-cv-view="Conservative" style="fill:#dc241f;stroke:none"><circle cx="10" cy="400" r="10" data-cv-key="Aberconwy"/><circle cx="32" cy="400" r="10" data-cv-key="Clwyd West"/><circle cx="54" cy="400" r="10" data-cv-key="Banbury"/><circle cx="76" cy="400" r="10" data-cv-key="Aylesbury"/><circle cx="98" cy="400" r="10" data-cv-key="Ashford"/><circle cx="120" cy="400" r="10" data-cv-key="Amber Valley"/><circle cx="142" cy="400" r="10" data-cv-key="Aldridge-Brownhills"/><circle cx="164" cy="400" r="10" data-cv-key="Aldershot"/><circle cx="186" cy="400" r="10" data-cv-key="Hornchurch and Upminster"/><circle cx="208" cy="400" r="10" data-cv-key="Huntingdon"/><circle cx="230" cy="400" r="10" data-cv-key="Taunton Deane"/><circle cx="252" cy="400" r="10" data-cv-key="Telford"/><circle cx="274" cy="400" r="10" data-cv-key="Tamworth"/><circle cx="296" cy="400" r="10" data-cv-key="Sutton and Cheam"/><circle cx="318" cy="400" r="10" data-cv-key="Sutton Coldfield"/><circle cx="340" cy="400" r="10" data-cv-key="Surrey Heath"/><circle cx="362" cy="400" r="10" data-cv-key="Suffolk Coastal"/><circle cx="384" cy="400" r="10" data-cv-key="Chatham and Aylesford"/><circle cx="406" cy="400" r="10" data-cv-key="Charnwood"/><circle cx="428" cy="400" r="10" data-cv-key="Central Suffolk and North Ipswich"/><circle cx="450" cy="400" r="10" data-cv-key="Central Devon"/><circle cx="472" cy="400" r="10" data-cv-key="Castle Point"/><circle cx="494" cy="400" r="10" data-cv-key="Carlisle"/><circle cx="516" cy="400" r="10" data-cv-key="Chelmsford"/><circle cx="538" cy="400" r="10" data-cv-key="South Holland and The Deepings"/><circle cx="560" cy="400" r="10" data-cv-key="South East Cornwall"/><circle cx="582" cy="400" r="10" data-cv-key="South Basildon and East Thurrock"/><circle cx="604" cy="400" r="10" data-cv-key="Somerton and Frome"/><circle cx="626" cy="400" r="10" data-cv-key="Solihull"/><circle cx="648" cy="400" r="10" data-cv-key="South Dorset"/><circle cx="670" cy="400" r="10" data-cv-key="South Derbyshire"/><circle cx="692" cy="400" r="10" data-cv-key="Blackpool North and Cleveleys"/><circle cx="714" cy="400" r="10" data-cv-key="Bognor Regis and Littlehampton"/><circle cx="736" cy="400" r="10" data-cv-key="Torridge and West Devon"/><circle cx="10" cy="422" r="10" data-cv-key="Totnes"/><circle cx="32" cy="422" r="10" data-cv-key="Uxbridge and South Ruislip"/><circle cx="54" cy="422" r="10" data-cv-key="Maidstone and The Weald"/><circle cx="76" cy="422" r="10" data-cv-key="Daventry"/><circle cx="98" cy="422" r="10" data-cv-key="Devizes"/><circle cx="120" cy="422" r="10" data-cv-key="Derbyshire Dales"/><circle cx="142" cy="422" r="10" data-cv-key="Faversham and Mid Kent"/><circle cx="164" cy="422" r="10" data-cv-key="Folkestone and Hythe"/><circle cx="186" cy="422" r="10" data-cv-key="Forest of Dean"/><circle cx="208" cy="422" r="10" data-cv-key="Fylde"/><circle cx="230" cy="422" r="10" data-cv-key="Gainsborough"/><circle cx="252" cy="422" r="10" data-cv-key="North Cornwall"/><circle cx="274" cy="422" r="10" data-cv-key="North Shropshire"/><circle cx="296" cy="422" r="10" data-cv-key="North East Derbyshire"/><circle cx="318" cy="422" r="10" data-cv-key="North East Cambridgeshire"/><circle cx="340" cy="422" r="10" data-cv-key="North East Bedfordshire"/><circle cx="362" cy="422" r="10" data-cv-key="North Herefordshire"/><circle cx="384" cy="422" r="10" data-cv-key="North East Somerset"/><circle cx="406" cy="422" r="10" data-cv-key="North East Hertfordshire"/><circle cx="428" cy="422" r="10" data-cv-key="Elmet and Rothwell"/><circle cx="450" cy="422" r="10" data-cv-key="St Austell and Newquay"/><circle cx="472" cy="422" r="10" data-cv-key="St Ives"/><circle cx="494" cy="422" r="10" data-cv-key="Stafford"/><circle cx="516" cy="422" r="10" data-cv-key="Staffordshire Moorlands"/><circle cx="538" cy="422" r="10" data-cv-key="Stevenage"/><circle cx="560" cy="422" r="10" data-cv-key="East Yorkshire"/><circle cx="582" cy="422" r="10" data-cv-key="East Worthing and Shoreham"/><circle cx="604" cy="422" r="10" data-cv-key="Eastleigh"/><circle cx="626" cy="422" r="10" data-cv-key="Eddisbury"/><circle cx="648" cy="422" r="10" data-cv-key="Yeovil"/><circle cx="670" cy="422" r="10" data-cv-key="Montgomeryshire"/><circle cx="692" cy="422" r="10" data-cv-key="Carmarthen West and South Pembrokeshire"/><circle cx="714" cy="422" r="10" data-cv-key="Preseli Pembrokeshire"/><circle cx="736" cy="422" r="10" data-cv-key="Brecon and Radnorshire"/><circle cx="10" cy="444" r="10" data-cv-key="Old Bexley and Sidcup"/><circle cx="32" cy="444" r="10" data-cv-key="South Swindon"/><circle cx="54" cy="444" r="10" data-cv-key="Weston-Super-Mare"/><circle cx="76" cy="444" r="10" data-cv-key="West Dorset"/><circle cx="98" cy="444" r="10" data-cv-key="West Worcestershire"/><circle cx="120" cy="444" r="10" data-cv-key="West Suffolk"/><circle cx="142" cy="444" r="10" data-cv-key="Hertsmere"/><circle cx="164" cy="444" r="10" data-cv-key="Hereford and South Herefordshire"/><circle cx="186" cy="444" r="10" data-cv-key="Christchurch"/><circle cx="208" cy="444" r="10" data-cv-key="Portsmouth North"/><circle cx="230" cy="444" r="10" data-cv-key="Chichester"/><circle cx="252" cy="444" r="10" data-cv-key="Chippenham"/><circle cx="274" cy="444" r="10" data-cv-key="Hastings and Rye"/><circle cx="296" cy="444" r="10" data-cv-key="Harwich and North Essex"/><circle cx="318" cy="444" r="10" data-cv-key="Havant"/><circle cx="340" cy="444" r="10" data-cv-key="Hemel Hempstead"/><circle cx="362" cy="444" r="10" data-cv-key="Hazel Grove"/><circle cx="384" cy="444" r="10" data-cv-key="Rayleigh and Wickford"/><circle cx="406" cy="444" r="10" data-cv-key="Skipton and Ripon"/><circle cx="428" cy="444" r="10" data-cv-key="Sleaford and North Hykeham"/><circle cx="450" cy="444" r="10" data-cv-key="Poole"/><circle cx="472" cy="444" r="10" data-cv-key="Sherwood"/><circle cx="494" cy="444" r="10" data-cv-key="Shipley"/><circle cx="516" cy="444" r="10" data-cv-key="Shrewsbury and Atcham"/><circle cx="538" cy="444" r="10" data-cv-key="Sittingbourne and Sheppey"/><circle cx="560" cy="444" r="10" data-cv-key="Mansfield"/><circle cx="582" cy="444" r="10" data-cv-key="Meon Valley"/><circle cx="604" cy="444" r="10" data-cv-key="Meriden"/><circle cx="626" cy="444" r="10" data-cv-key="Mid Bedfordshire"/><circle cx="648" cy="444" r="10" data-cv-key="Mid Derbyshire"/><circle cx="670" cy="444" r="10" data-cv-key="Mid Dorset and North Poole"/><circle cx="692" cy="444" r="10" data-cv-key="Mid Norfolk"/><circle cx="714" cy="444" r="10" data-cv-key="Mid Worcestershire"/><circle cx="736" cy="444" r="10" data-cv-key="South West Devon"/><circle cx="10" cy="466" r="10" data-cv-key="South West Norfolk"/><circle cx="32" cy="466" r="10" data-cv-key="Southampton, Itchen"/><circle cx="54" cy="466" r="10" data-cv-key="South West Wiltshire"/><circle cx="76" cy="466" r="10" data-cv-key="Southend West"/><circle cx="98" cy="466" r="10" data-cv-key="Morecambe and Lunesdale"/><circle cx="120" cy="466" r="10" data-cv-key="Berwick-upon-Tweed"/><circle cx="142" cy="466" r="10" data-cv-key="Dover"/><circle cx="164" cy="466" r="10" data-cv-key="Dudley South"/><circle cx="186" cy="466" r="10" data-cv-key="Kingswood"/><circle cx="208" cy="466" r="10" data-cv-key="Broadland"/><circle cx="230" cy="466" r="10" data-cv-key="Bromsgrove"/><circle cx="252" cy="466" r="10" data-cv-key="Broxtowe"/><circle cx="274" cy="466" r="10" data-cv-key="Broxbourne"/><circle cx="296" cy="466" r="10" data-cv-key="Wealden"/><circle cx="318" cy="466" r="10" data-cv-key="Watford"/><circle cx="340" cy="466" r="10" data-cv-key="North West Leicestershire"/><circle cx="362" cy="466" r="10" data-cv-key="North West Norfolk"/><circle cx="384" cy="466" r="10" data-cv-key="North Warwickshire"/><circle cx="406" cy="466" r="10" data-cv-key="North West Cambridgeshire"/><circle cx="428" cy="466" r="10" data-cv-key="North West Hampshire"/><circle cx="450" cy="466" r="10" data-cv-key="North Swindon"/><circle cx="472" cy="466" r="10" data-cv-key="North Thanet"/><circle cx="494" cy="466" r="10" data-cv-key="Selby and Ainsty"/><circle cx="516" cy="466" r="10" data-cv-key="Fareham"/><circle cx="538" cy="466" r="10" data-cv-key="Saffron Walden"/><circle cx="560" cy="466" r="10" data-cv-key="Scarborough and Whitby"/><circle cx="582" cy="466" r="10" data-cv-key="Epping Forest"/><circle cx="604" cy="466" r="10" data-cv-key="Wellingborough"/><circle cx="626" cy="466" r="10" data-cv-key="Sevenoaks"/><circle cx="648" cy="466" r="10" data-cv-key="Erewash"/><circle cx="670" cy="466" r="10" data-cv-key="Vale of Glamorgan"/><circle cx="692" cy="466" r="10" data-cv-key="Spelthorne"/><circle cx="714" cy="466" r="10" data-cv-key="Bexhill and Battle"/><circle cx="736" cy="466" r="10" data-cv-key="Beverley and Holderness"/><circle cx="10" cy="488" r="10" data-cv-key="Bexleyheath and Crayford"/><circle cx="32" cy="488" r="10" data-cv-key="Newark"/><circle cx="54" cy="488" r="10" data-cv-key="New Forest West"/><circle cx="76" cy="488" r="10" data-cv-key="Waveney"/><circle cx="98" cy="488" r="10" data-cv-key="Middlesbrough South and East Cleveland"/><circle cx="120" cy="488" r="10" data-cv-key="Milton Keynes South"/><circle cx="142" cy="488" r="10" data-cv-key="Wells"/><circle cx="164" cy="488" r="10" data-cv-key="Welwyn Hatfield"/><circle cx="186" cy="488" r="10" data-cv-key="New Forest East"/><circle cx="208" cy="488" r="10" data-cv-key="Morley and Outwood"/><circle cx="230" cy="488" r="10" data-cv-key="Witham"/><circle cx="252" cy="488" r="10" data-cv-key="Corby"/><circle cx="274" cy="488" r="10" data-cv-key="Colchester"/><circle cx="296" cy="488" r="10" data-cv-key="Copeland"/><circle cx="318" cy="488" r="10" data-cv-key="Congleton"/><circle cx="340" cy="488" r="10" data-cv-key="Cleethorpes"/><circle cx="362" cy="488" r="10" data-cv-key="Clacton"/><circle cx="384" cy="488" r="10" data-cv-key="Halesowen and Rowley Regis"/><circle cx="406" cy="488" r="10" data-cv-key="Banff and Buchan"/><circle cx="428" cy="488" r="10" data-cv-key="Haltemprice and Howden"/><circle cx="450" cy="488" r="10" data-cv-key="Harborough"/><circle cx="472" cy="488" r="10" data-cv-key="Harlow"/><circle cx="494" cy="488" r="10" data-cv-key="Rochester and Strood"/><circle cx="516" cy="488" r="10" data-cv-key="Rochford and Southend East"/><circle cx="538" cy="488" r="10" data-cv-key="Reading West"/><circle cx="560" cy="488" r="10" data-cv-key="Redditch"/><circle cx="582" cy="488" r="10" data-cv-key="Ribble Valley"/><circle cx="604" cy="488" r="10" data-cv-key="Richmond (Yorks)"/><circle cx="626" cy="488" r="10" data-cv-key="Ludlow"/><circle cx="648" cy="488" r="10" data-cv-key="Louth and Horncastle"/><circle cx="670" cy="488" r="10" data-cv-key="Loughborough"/><circle cx="692" cy="488" r="10" data-cv-key="Lichfield"/><circle cx="714" cy="488" r="10" data-cv-key="Braintree"/><circle cx="736" cy="488" r="10" data-cv-key="Bridgwater and West Somerset"/><circle cx="10" cy="510" r="10" data-cv-key="Brentwood and Ongar"/><circle cx="32" cy="510" r="10" data-cv-key="Brigg and Goole"/><circle cx="54" cy="510" r="10" data-cv-key="East Surrey"/><circle cx="76" cy="510" r="10" data-cv-key="South Thanet"/><circle cx="98" cy="510" r="10" data-cv-key="South West Bedfordshire"/><circle cx="120" cy="510" r="10" data-cv-key="Northampton North"/><circle cx="142" cy="510" r="10" data-cv-key="North Wiltshire"/><circle cx="164" cy="510" r="10" data-cv-key="Norwich North"/><circle cx="186" cy="510" r="10" data-cv-key="Northampton South"/><circle cx="208" cy="510" r="10" data-cv-key="South Northamptonshire"/><circle cx="230" cy="510" r="10" data-cv-key="South Ribble"/><circle cx="252" cy="510" r="10" data-cv-key="South Leicestershire"/><circle cx="274" cy="510" r="10" data-cv-key="South Norfolk"/><circle cx="296" cy="510" r="10" data-cv-key="South Suffolk"/><circle cx="318" cy="510" r="10" data-cv-key="Nuneaton"/><circle cx="340" cy="510" r="10" data-cv-key="South Staffordshire"/><circle cx="362" cy="510" r="10" data-cv-key="Kettering"/><circle cx="384" cy="510" r="10" data-cv-key="Isle of Wight"/><circle cx="406" cy="510" r="10" data-cv-key="Torbay"/><circle cx="428" cy="510" r="10" data-cv-key="Thurrock"/><circle cx="450" cy="510" r="10" data-cv-key="Thornbury and Yate"/><circle cx="472" cy="510" r="10" data-cv-key="Tonbridge and Malling"/><circle cx="494" cy="510" r="10" data-cv-key="Tiverton and Honiton"/><circle cx="516" cy="510" r="10" data-cv-key="Tewkesbury"/><circle cx="538" cy="510" r="10" data-cv-key="Thirsk and Malton"/><circle cx="560" cy="510" r="10" data-cv-key="The Wrekin"/><circle cx="582" cy="510" r="10" data-cv-key="Bury St Edmunds"/><circle cx="604" cy="510" r="10" data-cv-key="Burton"/><circle cx="626" cy="510" r="10" data-cv-key="Camborne and Redruth"/><circle cx="648" cy="510" r="10" data-cv-key="Calder Valley"/><circle cx="670" cy="510" r="10" data-cv-key="Cannock Chase"/><circle cx="692" cy="510" r="10" data-cv-key="Maldon"/><circle cx="714" cy="510" r="10" data-cv-key="Rugby"/><circle cx="736" cy="510" r="10" data-cv-key="Rossendale and Darwen"/><circle cx="10" cy="532" r="10" data-cv-key="Romford"/><circle cx="32" cy="532" r="10" data-cv-key="Rutland and Melton"/><circle cx="54" cy="532" r="10" data-cv-key="Basildon and Billericay"/><circle cx="76" cy="532" r="10" data-cv-key="Basingstoke"/><circle cx="98" cy="532" r="10" data-cv-key="North Devon"/><circle cx="120" cy="532" r="10" data-cv-key="North Dorset"/><circle cx="142" cy="532" r="10" data-cv-key="Walsall North"/><circle cx="164" cy="532" r="10" data-cv-key="Newton Abbot"/><circle cx="186" cy="532" r="10" data-cv-key="East Devon"/><circle cx="208" cy="532" r="10" data-cv-key="Dartford"/><circle cx="230" cy="532" r="10" data-cv-key="Crawley"/><circle cx="252" cy="532" r="10" data-cv-key="Great Yarmouth"/><circle cx="274" cy="532" r="10" data-cv-key="Gravesham"/><circle cx="296" cy="532" r="10" data-cv-key="Grantham and Stamford"/><circle cx="318" cy="532" r="10" data-cv-key="Gosport"/><circle cx="340" cy="532" r="10" data-cv-key="Gloucester"/><circle cx="362" cy="532" r="10" data-cv-key="Gillingham and Rainham"/><circle cx="384" cy="532" r="10" data-cv-key="Boston and Skegness"/><circle cx="406" cy="532" r="10" data-cv-key="Bosworth"/><circle cx="428" cy="532" r="10" data-cv-key="Bolton West"/><circle cx="450" cy="532" r="10" data-cv-key="Bracknell"/><circle cx="472" cy="532" r="10" data-cv-key="Bournemouth East"/><circle cx="494" cy="532" r="10" data-cv-key="Bournemouth West"/><circle cx="516" cy="532" r="10" data-cv-key="Wyre Forest"/><circle cx="538" cy="532" r="10" data-cv-key="Worcester"/><circle cx="560" cy="532" r="10" data-cv-key="Wyre and Preston North"/><circle cx="582" cy="532" r="10" data-cv-key="Worthing West"/><circle cx="604" cy="532" r="10" data-cv-key="Penrith and The Border"/><circle cx="626" cy="532" r="10" data-cv-key="Pendle"/><circle cx="648" cy="532" r="10" data-cv-key="Orpington"/><circle cx="670" cy="532" r="10" data-cv-key="Stratford-on-Avon"/><circle cx="692" cy="532" r="10" data-cv-key="Stourbridge"/><circle cx="714" cy="532" r="10" data-cv-key="Stone"/><circle cx="736" cy="532" r="10" data-cv-key="Stoke-on-Trent South"/><circle cx="10" cy="554" r="10" data-cv-key="Plymouth, Moor View"/><circle cx="32" cy="554" r="10" data-cv-key="Monmouth"/><circle cx="54" cy="554" r="10" data-cv-key="Arundel and South Downs"/><circle cx="76" cy="554" r="10" data-cv-key="Altrincham and Sale West"/><circle cx="98" cy="554" r="10" data-cv-key="Horsham"/><circle cx="120" cy="554" r="10" data-cv-key="Tatton"/><circle cx="142" cy="554" r="10" data-cv-key="Filton and Bradley Stoke"/><circle cx="164" cy="554" r="10" data-cv-key="Cheadle"/><circle cx="186" cy="554" r="10" data-cv-key="Chelsea and Fulham"/><circle cx="208" cy="554" r="10" data-cv-key="Finchley and Golders Green"/><circle cx="230" cy="554" r="10" data-cv-key="South East Cambridgeshire"/><circle cx="252" cy="554" r="10" data-cv-key="South Cambridgeshire"/><circle cx="274" cy="554" r="10" data-cv-key="Chesham and Amersham"/><circle cx="296" cy="554" r="10" data-cv-key="Truro and Falmouth"/><circle cx="318" cy="554" r="10" data-cv-key="Tunbridge Wells"/><circle cx="340" cy="554" r="10" data-cv-key="Maidenhead"/><circle cx="362" cy="554" r="10" data-cv-key="Macclesfield"/><circle cx="384" cy="554" r="10" data-cv-key="Ochil and South Perthshire"/><circle cx="406" cy="554" r="10" data-cv-key="Windsor"/><circle cx="428" cy="554" r="10" data-cv-key="Wantage"/><circle cx="450" cy="554" r="10" data-cv-key="Wokingham"/><circle cx="472" cy="554" r="10" data-cv-key="East Hampshire"/><circle cx="494" cy="554" r="10" data-cv-key="Hertford and Stortford"/><circle cx="516" cy="554" r="10" data-cv-key="Hexham"/><circle cx="538" cy="554" r="10" data-cv-key="Hendon"/><circle cx="560" cy="554" r="10" data-cv-key="Henley"/><circle cx="582" cy="554" r="10" data-cv-key="Hitchin and Harpenden"/><circle cx="604" cy="554" r="10" data-cv-key="Cities of London and Westminster"/><circle cx="626" cy="554" r="10" data-cv-key="Cheltenham"/><circle cx="648" cy="554" r="10" data-cv-key="Chingford and Woodford Green"/><circle cx="670" cy="554" r="10" data-cv-key="Chipping Barnet"/><circle cx="692" cy="554" r="10" data-cv-key="Harrow East"/><circle cx="714" cy="554" r="10" data-cv-key="Harrogate and Knaresborough"/><circle cx="736" cy="554" r="10" data-cv-key="Esher and Walton"/><circle cx="10" cy="576" r="10" data-cv-key="Putney"/><circle cx="32" cy="576" r="10" data-cv-key="Pudsey"/><circle cx="54" cy="576" r="10" data-cv-key="Mid Sussex"/><circle cx="76" cy="576" r="10" data-cv-key="South West Surrey"/><circle cx="98" cy="576" r="10" data-cv-key="North East Hampshire"/><circle cx="120" cy="576" r="10" data-cv-key="Southport"/><circle cx="142" cy="576" r="10" data-cv-key="Mole Valley"/><circle cx="164" cy="576" r="10" data-cv-key="Bromley and Chislehurst"/><circle cx="186" cy="576" r="10" data-cv-key="Moray"/><circle cx="208" cy="576" r="10" data-cv-key="St Albans"/><circle cx="230" cy="576" r="10" data-cv-key="Dumfriesshire, Clydesdale and Tweeddale"/><circle cx="252" cy="576" r="10" data-cv-key="Milton Keynes North"/><circle cx="274" cy="576" r="10" data-cv-key="Dumfries and Galloway"/><circle cx="296" cy="576" r="10" data-cv-key="North Somerset"/><circle cx="318" cy="576" r="10" data-cv-key="Salisbury"/><circle cx="340" cy="576" r="10" data-cv-key="Epsom and Ewell"/><circle cx="362" cy="576" r="10" data-cv-key="Beckenham"/><circle cx="384" cy="576" r="10" data-cv-key="Beaconsfield"/><circle cx="406" cy="576" r="10" data-cv-key="South West Hertfordshire"/><circle cx="428" cy="576" r="10" data-cv-key="Witney"/><circle cx="450" cy="576" r="10" data-cv-key="Woking"/><circle cx="472" cy="576" r="10" data-cv-key="Wimbledon"/><circle cx="494" cy="576" r="10" data-cv-key="Winchester"/><circle cx="516" cy="576" r="10" data-cv-key="Ayr, Carrick and Cumnock"/><circle cx="538" cy="576" r="10" data-cv-key="Berwickshire, Roxburgh and Selkirk"/><circle cx="560" cy="576" r="10" data-cv-key="Reigate"/><circle cx="582" cy="576" r="10" data-cv-key="Richmond Park"/><circle cx="604" cy="576" r="10" data-cv-key="Kenilworth and Southam"/><circle cx="626" cy="576" r="10" data-cv-key="West Aberdeenshire and Kincardine"/><circle cx="648" cy="576" r="10" data-cv-key="The Cotswolds"/><circle cx="670" cy="576" r="10" data-cv-key="Stirling"/><circle cx="692" cy="576" r="10" data-cv-key="East Renfrewshire"/><circle cx="714" cy="576" r="10" data-cv-key="Ruislip, Northwood and Pinner"/><circle cx="736" cy="576" r="10" data-cv-key="Runnymede and Weybridge"/><circle cx="10" cy="598" r="10" data-cv-key="Romsey and Southampton North"/><circle cx="32" cy="598" r="10" data-cv-key="Rushcliffe"/><circle cx="54" cy="598" r="10" data-cv-key="Angus"/><circle cx="76" cy="598" r="10" data-cv-key="Aberdeen South"/><circle cx="98" cy="598" r="10" data-cv-key="Newbury"/><circle cx="120" cy="598" r="10" data-cv-key="Gordon"/><circle cx="142" cy="598" r="10" data-cv-key="York Outer"/><circle cx="164" cy="598" r="10" data-cv-key="Croydon South"/><circle cx="186" cy="598" r="10" data-cv-key="Guildford"/><circle cx="208" cy="598" r="10" data-cv-key="Lewes"/><circle cx="230" cy="598" r="10" data-cv-key="Wycombe"/></g><g id="DUP" data-cv-view="DUP" style="fill:#0087dc;stroke:none"><circle cx="252" cy="598" r="10" data-cv-key="Belfast East"/><circle cx="274" cy="598" r="10" data-cv-key="East Antrim"/><circle cx="296" cy="598" r="10" data-cv-key="Lagan Valley"/><circle cx="318" cy="598" r="10" data-cv-key="North Antrim"/><circle cx="340" cy="598" r="10" data-cv-key="Strangford"/><circle cx="362" cy="598" r="10" data-cv-key="Upper Bann"/><circle cx="384" cy="598" r="10" data-cv-key="Belfast South"/><circle cx="406" cy="598" r="10" data-cv-key="Belfast North"/><circle cx="428" cy="598" r="10" data-cv-key="East Londonderry"/><circle cx="450" cy="598" r="10" data-cv-key="South Antrim"/></g><g id="Labour" data-cv-view="Labour" style="fill:#008142;stroke:none"><circle cx="10" cy="220" r="10" data-cv-key="Newport West"/><circle cx="32" cy="220" r="10" data-cv-key="Newport East"/><circle cx="54" cy="220" r="10" data-cv-key="Rhondda"/><circle cx="76" cy="220" r="10" data-cv-key="Torfaen"/><circle cx="98" cy="220" r="10" data-cv-key="Ashton-under-Lyne"/><circle cx="120" cy="220" r="10" data-cv-key="Ashfield"/><circle cx="142" cy="220" r="10" data-cv-key="Huddersfield"/><circle cx="164" cy="220" r="10" data-cv-key="Houghton and Sunderland South"/><circle cx="186" cy="220" r="10" data-cv-key="Ilford North"/><circle cx="208" cy="220" r="10" data-cv-key="Hyndburn"/><circle cx="230" cy="220" r="10" data-cv-key="Stockton North"/><circle cx="252" cy="220" r="10" data-cv-key="Sunderland Central"/><circle cx="274" cy="220" r="10" data-cv-key="Slough"/><circle cx="296" cy="220" r="10" data-cv-key="Bolton South East"/><circle cx="318" cy="220" r="10" data-cv-key="Bolton North East"/><circle cx="340" cy="220" r="10" data-cv-key="Blackpool South"/><circle cx="362" cy="220" r="10" data-cv-key="Blackburn"/><circle cx="384" cy="220" r="10" data-cv-key="Bolsover"/><circle cx="406" cy="220" r="10" data-cv-key="Blyth Valley"/><circle cx="428" cy="220" r="10" data-cv-key="Blaydon"/><circle cx="450" cy="220" r="10" data-cv-key="Wakefield"/><circle cx="472" cy="220" r="10" data-cv-key="Makerfield"/><circle cx="494" cy="220" r="10" data-cv-key="Luton South"/><circle cx="516" cy="220" r="10" data-cv-key="Luton North"/><circle cx="538" cy="220" r="10" data-cv-key="Gateshead"/><circle cx="560" cy="220" r="10" data-cv-key="Derby South"/><circle cx="582" cy="220" r="10" data-cv-key="Derby North"/><circle cx="604" cy="220" r="10" data-cv-key="Denton and Reddish"/><circle cx="626" cy="220" r="10" data-cv-key="Don Valley"/><circle cx="648" cy="220" r="10" data-cv-key="Dewsbury"/><circle cx="670" cy="220" r="10" data-cv-key="Feltham and Heston"/><circle cx="692" cy="220" r="10" data-cv-key="Doncaster North"/><circle cx="714" cy="220" r="10" data-cv-key="Doncaster Central"/><circle cx="736" cy="220" r="10" data-cv-key="Warley"/><circle cx="10" cy="198" r="10" data-cv-key="Newcastle-under-Lyme"/><circle cx="32" cy="198" r="10" data-cv-key="Wolverhampton North East"/><circle cx="54" cy="198" r="10" data-cv-key="North Durham"/><circle cx="76" cy="198" r="10" data-cv-key="Weaver Vale"/><circle cx="98" cy="198" r="10" data-cv-key="St Helens North"/><circle cx="120" cy="198" r="10" data-cv-key="St Helens South and Whiston"/><circle cx="142" cy="198" r="10" data-cv-key="Stalybridge and Hyde"/><circle cx="164" cy="198" r="10" data-cv-key="Clwyd South"/><circle cx="186" cy="198" r="10" data-cv-key="Vale of Clwyd"/><circle cx="208" cy="198" r="10" data-cv-key="Neath"/><circle cx="230" cy="198" r="10" data-cv-key="Wigan"/><circle cx="252" cy="198" r="10" data-cv-key="West Bromwich West"/><circle cx="274" cy="198" r="10" data-cv-key="West Lancashire"/><circle cx="296" cy="198" r="10" data-cv-key="Heywood and Middleton"/><circle cx="318" cy="198" r="10" data-cv-key="Hemsworth"/><circle cx="340" cy="198" r="10" data-cv-key="High Peak"/><circle cx="362" cy="198" r="10" data-cv-key="Chesterfield"/><circle cx="384" cy="198" r="10" data-cv-key="Chorley"/><circle cx="406" cy="198" r="10" data-cv-key="Hartlepool"/><circle cx="428" cy="198" r="10" data-cv-key="Hayes and Harlington"/><circle cx="450" cy="198" r="10" data-cv-key="Preston"/><circle cx="472" cy="198" r="10" data-cv-key="Portsmouth South"/><circle cx="494" cy="198" r="10" data-cv-key="Plymouth, Sutton and Devonport"/><circle cx="516" cy="198" r="10" data-cv-key="Sheffield South East"/><circle cx="538" cy="198" r="10" data-cv-key="Sheffield, Brightside and Hillsborough"/><circle cx="560" cy="198" r="10" data-cv-key="Sheffield, Heeley"/><circle cx="582" cy="198" r="10" data-cv-key="Birmingham, Yardley"/><circle cx="604" cy="198" r="10" data-cv-key="Bishop Auckland"/><circle cx="626" cy="198" r="10" data-cv-key="Birmingham, Northfield"/><circle cx="648" cy="198" r="10" data-cv-key="Birmingham, Perry Barr"/><circle cx="670" cy="198" r="10" data-cv-key="Birmingham, Erdington"/><circle cx="692" cy="198" r="10" data-cv-key="Birmingham, Hodge Hill"/><circle cx="714" cy="198" r="10" data-cv-key="Easington"/><circle cx="736" cy="198" r="10" data-cv-key="Leeds East"/><circle cx="10" cy="176" r="10" data-cv-key="Knowsley"/><circle cx="32" cy="176" r="10" data-cv-key="Lancaster and Fleetwood"/><circle cx="54" cy="176" r="10" data-cv-key="Kingston upon Hull East"/><circle cx="76" cy="176" r="10" data-cv-key="Kingston upon Hull West and Hessle"/><circle cx="98" cy="176" r="10" data-cv-key="Kingston upon Hull North"/><circle cx="120" cy="176" r="10" data-cv-key="Burnley"/><circle cx="142" cy="176" r="10" data-cv-key="North West Durham"/><circle cx="164" cy="176" r="10" data-cv-key="North Tyneside"/><circle cx="186" cy="176" r="10" data-cv-key="Sedgefield"/><circle cx="208" cy="176" r="10" data-cv-key="Scunthorpe"/><circle cx="230" cy="176" r="10" data-cv-key="Salford and Eccles"/><circle cx="252" cy="176" r="10" data-cv-key="Eltham"/><circle cx="274" cy="176" r="10" data-cv-key="Erith and Thamesmead"/><circle cx="296" cy="176" r="10" data-cv-key="Ogmore"/><circle cx="318" cy="176" r="10" data-cv-key="Caerphilly"/><circle cx="340" cy="176" r="10" data-cv-key="Islwyn"/><circle cx="362" cy="176" r="10" data-cv-key="Cynon Valley"/><circle cx="384" cy="176" r="10" data-cv-key="Merthyr Tydfil and Rhymney"/><circle cx="406" cy="176" r="10" data-cv-key="Blaenau Gwent"/><circle cx="428" cy="176" r="10" data-cv-key="Bridgend"/><circle cx="450" cy="176" r="10" data-cv-key="Bedford"/><circle cx="472" cy="176" r="10" data-cv-key="Birkenhead"/><circle cx="494" cy="176" r="10" data-cv-key="Wentworth and Dearne"/><circle cx="516" cy="176" r="10" data-cv-key="West Bromwich East"/><circle cx="538" cy="176" r="10" data-cv-key="Washington and Sunderland West"/><circle cx="560" cy="176" r="10" data-cv-key="Ellesmere Port and Neston"/><circle cx="582" cy="176" r="10" data-cv-key="Middlesbrough"/><circle cx="604" cy="176" r="10" data-cv-key="Coventry North East"/><circle cx="626" cy="176" r="10" data-cv-key="Colne Valley"/><circle cx="648" cy="176" r="10" data-cv-key="Halifax"/><circle cx="670" cy="176" r="10" data-cv-key="Halton"/><circle cx="692" cy="176" r="10" data-cv-key="Redcar"/><circle cx="714" cy="176" r="10" data-cv-key="Rochdale"/><circle cx="736" cy="176" r="10" data-cv-key="Liverpool, Walton"/><circle cx="10" cy="154" r="10" data-cv-key="Lincoln"/><circle cx="32" cy="154" r="10" data-cv-key="South Shields"/><circle cx="54" cy="154" r="10" data-cv-key="Aberavon"/><circle cx="76" cy="154" r="10" data-cv-key="Swansea East"/><circle cx="98" cy="154" r="10" data-cv-key="Llanelli"/><circle cx="120" cy="154" r="10" data-cv-key="Wrexham"/><circle cx="142" cy="154" r="10" data-cv-key="Ynys Mon"/><circle cx="164" cy="154" r="10" data-cv-key="Alyn and Deeside"/><circle cx="186" cy="154" r="10" data-cv-key="Delyn"/><circle cx="208" cy="154" r="10" data-cv-key="Keighley"/><circle cx="230" cy="154" r="10" data-cv-key="Jarrow"/><circle cx="252" cy="154" r="10" data-cv-key="Ipswich"/><circle cx="274" cy="154" r="10" data-cv-key="Bury South"/><circle cx="296" cy="154" r="10" data-cv-key="Bury North"/><circle cx="318" cy="154" r="10" data-cv-key="Rotherham"/><circle cx="340" cy="154" r="10" data-cv-key="Rother Valley"/><circle cx="362" cy="154" r="10" data-cv-key="Bassetlaw"/><circle cx="384" cy="154" r="10" data-cv-key="Barnsley East"/><circle cx="406" cy="154" r="10" data-cv-key="Barrow and Furness"/><circle cx="428" cy="154" r="10" data-cv-key="Barking"/><circle cx="450" cy="154" r="10" data-cv-key="Barnsley Central"/><circle cx="472" cy="154" r="10" data-cv-key="Batley and Spen"/><circle cx="494" cy="154" r="10" data-cv-key="Warrington South"/><circle cx="516" cy="154" r="10" data-cv-key="Warrington North"/><circle cx="538" cy="154" r="10" data-cv-key="Newcastle upon Tyne North"/><circle cx="560" cy="154" r="10" data-cv-key="Wansbeck"/><circle cx="582" cy="154" r="10" data-cv-key="Normanton, Pontefract and Castleford"/><circle cx="604" cy="154" r="10" data-cv-key="Walsall South"/><circle cx="626" cy="154" r="10" data-cv-key="Nottingham North"/><circle cx="648" cy="154" r="10" data-cv-key="Darlington"/><circle cx="670" cy="154" r="10" data-cv-key="Dagenham and Rainham"/><circle cx="692" cy="154" r="10" data-cv-key="Croydon Central"/><circle cx="714" cy="154" r="10" data-cv-key="Crewe and Nantwich"/><circle cx="736" cy="154" r="10" data-cv-key="Coventry North West"/><circle cx="10" cy="132" r="10" data-cv-key="Coventry South"/><circle cx="32" cy="132" r="10" data-cv-key="Great Grimsby"/><circle cx="54" cy="132" r="10" data-cv-key="Gedling"/><circle cx="76" cy="132" r="10" data-cv-key="Dudley North"/><circle cx="98" cy="132" r="10" data-cv-key="Leeds West"/><circle cx="120" cy="132" r="10" data-cv-key="Leicester East"/><circle cx="142" cy="132" r="10" data-cv-key="Leicester West"/><circle cx="164" cy="132" r="10" data-cv-key="Leigh"/><circle cx="186" cy="132" r="10" data-cv-key="Bootle"/><circle cx="208" cy="132" r="10" data-cv-key="Bradford East"/><circle cx="230" cy="132" r="10" data-cv-key="Bradford South"/><circle cx="252" cy="132" r="10" data-cv-key="Workington"/><circle cx="274" cy="132" r="10" data-cv-key="Wolverhampton South West"/><circle cx="296" cy="132" r="10" data-cv-key="Wolverhampton South East"/><circle cx="318" cy="132" r="10" data-cv-key="Worsley and Eccles South"/><circle cx="340" cy="132" r="10" data-cv-key="Penistone and Stocksbridge"/><circle cx="362" cy="132" r="10" data-cv-key="Peterborough"/><circle cx="384" cy="132" r="10" data-cv-key="Oldham East and Saddleworth"/><circle cx="406" cy="132" r="10" data-cv-key="Oldham West and Royton"/><circle cx="428" cy="132" r="10" data-cv-key="Stoke-on-Trent North"/><circle cx="450" cy="132" r="10" data-cv-key="Stoke-on-Trent Central"/><circle cx="472" cy="132" r="10" data-cv-key="Stockton South"/><circle cx="494" cy="132" r="10" data-cv-key="Cardiff Central"/><circle cx="516" cy="132" r="10" data-cv-key="Cardiff North"/><circle cx="538" cy="132" r="10" data-cv-key="Hornsey and Wood Green"/><circle cx="560" cy="132" r="10" data-cv-key="Holborn and St Pancras"/><circle cx="582" cy="132" r="10" data-cv-key="Hove"/><circle cx="604" cy="132" r="10" data-cv-key="Poplar and Limehouse"/><circle cx="626" cy="132" r="10" data-cv-key="Bristol North West"/><circle cx="648" cy="132" r="10" data-cv-key="Nottingham South"/><circle cx="670" cy="132" r="10" data-cv-key="Kirkcaldy and Cowdenbeath"/><circle cx="692" cy="132" r="10" data-cv-key="Blackley and Broughton"/><circle cx="714" cy="132" r="10" data-cv-key="Tottenham"/><circle cx="736" cy="132" r="10" data-cv-key="Tynemouth"/><circle cx="10" cy="110" r="10" data-cv-key="Manchester Central"/><circle cx="32" cy="110" r="10" data-cv-key="Harrow West"/><circle cx="54" cy="110" r="10" data-cv-key="Garston and Halewood"/><circle cx="76" cy="110" r="10" data-cv-key="East Lothian"/><circle cx="98" cy="110" r="10" data-cv-key="Newcastle upon Tyne East"/><circle cx="120" cy="110" r="10" data-cv-key="Wirral South"/><circle cx="142" cy="110" r="10" data-cv-key="Newcastle upon Tyne Central"/><circle cx="164" cy="110" r="10" data-cv-key="Walthamstow"/><circle cx="186" cy="110" r="10" data-cv-key="Wallasey"/><circle cx="208" cy="110" r="10" data-cv-key="Edmonton"/><circle cx="230" cy="110" r="10" data-cv-key="York Central"/><circle cx="252" cy="110" r="10" data-cv-key="West Ham"/><circle cx="274" cy="110" r="10" data-cv-key="Westminster North"/><circle cx="296" cy="110" r="10" data-cv-key="Exeter"/><circle cx="318" cy="110" r="10" data-cv-key="Sefton Central"/><circle cx="340" cy="110" r="10" data-cv-key="Enfield North"/><circle cx="362" cy="110" r="10" data-cv-key="Cardiff South and Penarth"/><circle cx="384" cy="110" r="10" data-cv-key="Sheffield, Hallam"/><circle cx="406" cy="110" r="10" data-cv-key="Reading East"/><circle cx="428" cy="110" r="10" data-cv-key="Sheffield Central"/><circle cx="450" cy="110" r="10" data-cv-key="Birmingham, Ladywood"/><circle cx="472" cy="110" r="10" data-cv-key="Birmingham, Selly Oak"/><circle cx="494" cy="110" r="10" data-cv-key="Birmingham, Edgbaston"/><circle cx="516" cy="110" r="10" data-cv-key="Birmingham, Hall Green"/><circle cx="538" cy="110" r="10" data-cv-key="Southampton, Test"/><circle cx="560" cy="110" r="10" data-cv-key="Stroud"/><circle cx="582" cy="110" r="10" data-cv-key="Ealing Central and Acton"/><circle cx="604" cy="110" r="10" data-cv-key="Ealing, Southall"/><circle cx="626" cy="110" r="10" data-cv-key="Dulwich and West Norwood"/><circle cx="648" cy="110" r="10" data-cv-key="East Ham"/><circle cx="670" cy="110" r="10" data-cv-key="Bristol South"/><circle cx="692" cy="110" r="10" data-cv-key="Bristol West"/><circle cx="714" cy="110" r="10" data-cv-key="Midlothian"/><circle cx="736" cy="110" r="10" data-cv-key="Mitcham and Morden"/><circle cx="10" cy="88" r="10" data-cv-key="Enfield, Southgate"/><circle cx="32" cy="88" r="10" data-cv-key="Pontypridd"/><circle cx="54" cy="88" r="10" data-cv-key="Greenwich and Woolwich"/><circle cx="76" cy="88" r="10" data-cv-key="Cardiff West"/><circle cx="98" cy="88" r="10" data-cv-key="Vauxhall"/><circle cx="120" cy="88" r="10" data-cv-key="Bethnal Green and Bow"/><circle cx="142" cy="88" r="10" data-cv-key="Bermondsey and Old Southwark"/><circle cx="164" cy="88" r="10" data-cv-key="Wirral West"/><circle cx="186" cy="88" r="10" data-cv-key="City of Durham"/><circle cx="208" cy="88" r="10" data-cv-key="City of Chester"/><circle cx="230" cy="88" r="10" data-cv-key="Hampstead and Kilburn"/><circle cx="252" cy="88" r="10" data-cv-key="Ealing North"/><circle cx="274" cy="88" r="10" data-cv-key="Stockport"/><circle cx="296" cy="88" r="10" data-cv-key="Liverpool, West Derby"/><circle cx="318" cy="88" r="10" data-cv-key="Liverpool, Wavertree"/><circle cx="340" cy="88" r="10" data-cv-key="Leeds North East"/><circle cx="362" cy="88" r="10" data-cv-key="Leyton and Wanstead"/><circle cx="384" cy="88" r="10" data-cv-key="Liverpool, Riverside"/><circle cx="406" cy="88" r="10" data-cv-key="Brent Central"/><circle cx="428" cy="88" r="10" data-cv-key="Brentford and Isleworth"/><circle cx="450" cy="88" r="10" data-cv-key="Brent North"/><circle cx="472" cy="88" r="10" data-cv-key="Brighton, Kemptown"/><circle cx="494" cy="88" r="10" data-cv-key="Bristol East"/><circle cx="516" cy="88" r="10" data-cv-key="Nottingham East"/><circle cx="538" cy="88" r="10" data-cv-key="Norwich South"/><circle cx="560" cy="88" r="10" data-cv-key="Swansea West"/><circle cx="582" cy="88" r="10" data-cv-key="Gower"/><circle cx="604" cy="88" r="10" data-cv-key="Kensington"/><circle cx="626" cy="88" r="10" data-cv-key="Islington South and Finsbury"/><circle cx="648" cy="88" r="10" data-cv-key="Islington North"/><circle cx="670" cy="88" r="10" data-cv-key="Ilford South"/><circle cx="692" cy="88" r="10" data-cv-key="Manchester, Gorton"/><circle cx="714" cy="88" r="10" data-cv-key="Tooting"/><circle cx="736" cy="88" r="10" data-cv-key="Cambridge"/><circle cx="10" cy="66" r="10" data-cv-key="Camberwell and Peckham"/><circle cx="32" cy="66" r="10" data-cv-key="Canterbury"/><circle cx="54" cy="66" r="10" data-cv-key="Rutherglen and Hamilton West"/><circle cx="76" cy="66" r="10" data-cv-key="Coatbridge, Chryston and Bellshill"/><circle cx="98" cy="66" r="10" data-cv-key="Hackney North and Stoke Newington"/><circle cx="120" cy="66" r="10" data-cv-key="Hackney South and Shoreditch"/><circle cx="142" cy="66" r="10" data-cv-key="Hammersmith"/><circle cx="164" cy="66" r="10" data-cv-key="Battersea"/><circle cx="186" cy="66" r="10" data-cv-key="Warwick and Leamington"/><circle cx="208" cy="66" r="10" data-cv-key="Leeds Central"/><circle cx="230" cy="66" r="10" data-cv-key="Glasgow North East"/><circle cx="252" cy="66" r="10" data-cv-key="Manchester, Withington"/><circle cx="274" cy="66" r="10" data-cv-key="Croydon North"/><circle cx="296" cy="66" r="10" data-cv-key="Leeds North West"/><circle cx="318" cy="66" r="10" data-cv-key="Leicester South"/><circle cx="340" cy="66" r="10" data-cv-key="Lewisham East"/><circle cx="362" cy="66" r="10" data-cv-key="Lewisham West and Penge"/><circle cx="384" cy="66" r="10" data-cv-key="Lewisham, Deptford"/><circle cx="406" cy="66" r="10" data-cv-key="Oxford East"/><circle cx="428" cy="66" r="10" data-cv-key="Stretford and Urmston"/><circle cx="450" cy="66" r="10" data-cv-key="Edinburgh South"/><circle cx="472" cy="66" r="10" data-cv-key="Streatham"/><circle cx="494" cy="66" r="10" data-cv-key="Bradford West"/><circle cx="516" cy="66" r="10" data-cv-key="Wythenshawe and Sale East"/></g><g id="Plaid Cymru" data-cv-view="Plaid Cymru" style="fill:#12b6cf;stroke:none"><circle cx="538" cy="66" r="10" data-cv-key="Carmarthen East and Dinefwr"/><circle cx="560" cy="66" r="10" data-cv-key="Arfon"/><circle cx="582" cy="66" r="10" data-cv-key="Dwyfor Meirionnydd"/><circle cx="604" cy="66" r="10" data-cv-key="Ceredigion"/></g><g id="Liberal Democrats" data-cv-view="Liberal Democrats" style="fill:#ddd;stroke:none"><circle cx="626" cy="66" r="10" data-cv-key="Carshalton and Wallington"/><circle cx="648" cy="66" r="10" data-cv-key="North Norfolk"/><circle cx="670" cy="66" r="10" data-cv-key="Eastbourne"/><circle cx="692" cy="66" r="10" data-cv-key="Caithness, Sutherland and Easter Ross"/><circle cx="714" cy="66" r="10" data-cv-key="Twickenham"/><circle cx="736" cy="66" r="10" data-cv-key="Edinburgh West"/><circle cx="10" cy="44" r="10" data-cv-key="East Dunbartonshire"/><circle cx="32" cy="44" r="10" data-cv-key="Westmorland and Lonsdale"/><circle cx="54" cy="44" r="10" data-cv-key="Orkney and Shetland"/><circle cx="76" cy="44" r="10" data-cv-key="Bath"/><circle cx="98" cy="44" r="10" data-cv-key="Kingston and Surbiton"/><circle cx="120" cy="44" r="10" data-cv-key="Oxford West and Abingdon"/></g><g id="SNP" data-cv-view="SNP" style="fill:#70147a;stroke:none"><circle cx="142" cy="44" r="10" data-cv-key="North East Fife"/><circle cx="164" cy="44" r="10" data-cv-key="Central Ayrshire"/><circle cx="186" cy="44" r="10" data-cv-key="Kilmarnock and Loudoun"/><circle cx="208" cy="44" r="10" data-cv-key="Glasgow Central"/><circle cx="230" cy="44" r="10" data-cv-key="Falkirk"/><circle cx="252" cy="44" r="10" data-cv-key="Na h-Eileanan an Iar"/><circle cx="274" cy="44" r="10" data-cv-key="Edinburgh South West"/><circle cx="296" cy="44" r="10" data-cv-key="Inverclyde"/><circle cx="318" cy="44" r="10" data-cv-key="Inverness, Nairn, Badenoch and Strathspey"/><circle cx="340" cy="44" r="10" data-cv-key="Glasgow East"/><circle cx="362" cy="44" r="10" data-cv-key="Glasgow North"/><circle cx="384" cy="44" r="10" data-cv-key="Airdrie and Shotts"/><circle cx="406" cy="44" r="10" data-cv-key="Glenrothes"/><circle cx="428" cy="44" r="10" data-cv-key="North Ayrshire and Arran"/><circle cx="450" cy="44" r="10" data-cv-key="Linlithgow and East Falkirk"/><circle cx="472" cy="44" r="10" data-cv-key="Lanark and Hamilton East"/><circle cx="494" cy="44" r="10" data-cv-key="Livingston"/><circle cx="516" cy="44" r="10" data-cv-key="Motherwell and Wishaw"/><circle cx="538" cy="44" r="10" data-cv-key="Dundee West"/><circle cx="560" cy="44" r="10" data-cv-key="Dunfermline and West Fife"/><circle cx="582" cy="44" r="10" data-cv-key="Dundee East"/><circle cx="604" cy="44" r="10" data-cv-key="Cumbernauld, Kilsyth and Kirkintilloch East"/><circle cx="626" cy="44" r="10" data-cv-key="Edinburgh North and Leith"/><circle cx="648" cy="44" r="10" data-cv-key="Edinburgh East"/><circle cx="670" cy="44" r="10" data-cv-key="Aberdeen North"/><circle cx="692" cy="44" r="10" data-cv-key="West Dunbartonshire"/><circle cx="714" cy="44" r="10" data-cv-key="Paisley and Renfrewshire North"/><circle cx="736" cy="44" r="10" data-cv-key="Paisley and Renfrewshire South"/><circle cx="10" cy="22" r="10" data-cv-key="Perth and North Perthshire"/><circle cx="32" cy="22" r="10" data-cv-key="Ross, Skye and Lochaber"/><circle cx="54" cy="22" r="10" data-cv-key="Argyll and Bute"/><circle cx="76" cy="22" r="10" data-cv-key="Glasgow South"/><circle cx="98" cy="22" r="10" data-cv-key="Glasgow South West"/><circle cx="120" cy="22" r="10" data-cv-key="Glasgow North West"/><circle cx="142" cy="22" r="10" data-cv-key="East Kilbride, Strathaven and Lesmahagow"/></g><g id="Sinn FÈin" data-cv-view="Sinn FÈin" style="fill:#faa61a;stroke:none"><circle cx="164" cy="22" r="10" data-cv-key="Belfast West"/><circle cx="186" cy="22" r="10" data-cv-key="Fermanagh and South Tyrone"/><circle cx="208" cy="22" r="10" data-cv-key="Foyle"/><circle cx="230" cy="22" r="10" data-cv-key="Mid Ulster"/><circle cx="252" cy="22" r="10" data-cv-key="Newry and Armagh"/><circle cx="274" cy="22" r="10" data-cv-key="South Down"/><circle cx="296" cy="22" r="10" data-cv-key="West Tyrone"/></g><g id="Green Party" data-cv-view="Green Party" style="fill:#dc241f;stroke:none"><circle cx="318" cy="22" r="10" data-cv-key="Brighton, Pavilion"/></g><g id="Independent" data-cv-view="Independent" style="fill:#0087dc;stroke:none"><circle cx="340" cy="22" r="10" data-cv-key="North Down"/></g><g id="Speaker" data-cv-view="Speaker" style="fill:#008142;stroke:none"><circle cx="10" cy="310" r="10" data-cv-key="Buckingham"/></g></g></svg>