<svg xmlns="http://www.w3.org/2000/svg" xmlns:svg="http://www.w3.org/2000/svg" xmlns:xlink="http://www.w3.org/1999/xlink" viewBox="0 0 1804 2181"><g id="layer3" style="display:inline"><path style="fill:#f5f5f5" id="path5968" d="M 0,0 H 1800 V 2180 H 0 Z"/><path style="fill:#f5f5f5;fill-rule:evenodd" id="path5970" d="m 1257.3,0 c 0,0 -20.103,71.663 34.658,108.92 -51.598,107.96 9.785,136.52 49.418,157.61 -78.115,13.907 -79.63,66.392 -71.233,100.84 -11.622,6.693 -36.22,4.536 -58.505,8.897 -61.558,12.046 -144.21,8.317 -201.09,48.246 -77.8,40.734 -215.23,67.47 -236.35,158.92 v 1030 c 107.32,96.35 245.23,155.98 387.68,175.33 -50.258,43.61 16.415,149.52 27.664,167.07 -90.617,-16.296 -104.79,35.998 -105.77,94.588 -37,-6.46 -72.55,0.41 -78.49,50.04 -86.967,-17.91 -158.41,-7.48 -215.81,34.51 -0.728,0.55 -20.495,4.34 -24.682,-11.31 -22.02,-82.1 -145.54,-65.2 -167.89,-86.4 -18.33,-17.3 -67.16,142.8 -67.16,142.8 h 1270.3 V -1.65 Z"/><g id="g5976" style="fill:#d8fdcb"><path id="path5972" d="m 134.05,2179.7 c 0,0 80.267,-75.164 122.78,-110.08 38.82,36.5 139.21,110.4 139.21,110.4 z M 1613.5,2179 c 24.648,-95.624 69.637,-145.43 126.07,-200.28 22.8,-17.6 60.4,-34.8 60.4,-34.8 v 236.12 z M 0,2180 v -243.1 l 147.17,196.4 -48.106,46.7 z m 603.4,0 c 0,0 -0.39,-63.04 30.285,-86.604 72.062,-4.788 61.97,67.55 186.73,64.638 46.19,-1 142.96,22 142.96,22 z M 0,1904.3 v -163.18 c 12.912,28.056 163.27,222.4 235.67,310.45 l -72.924,65.957 c -51.87,-67.8 -105.48,-139.2 -162.75,-213.3 z M 342.56,367.01 144.98,262.69 c 0,0 -112.15,150.23 -144.98,223.63 0.462,230.08 -0.924,460.23 0.693,690.27 2.364,143.55 19.83,259.06 81.014,373.17 32.84,72.145 24.38,163.69 -34.39,220.28 69.954,100.37 147.12,194.76 224.1,279.77 51.44,45.78 104.56,93.755 161.76,130.2 h 135.96 c 1.252,-71.172 68.305,-113.25 -0.526,-181.41 -38.81,-52.173 -109.85,-50.138 -161.46,-71.082 -6.46,-79.144 -84.32,-117.42 -138.78,-161.57 -22.29,-62.113 -69.16,-113.56 -129.8,-138.93 -3.99,-1.782 -10.85,-7.304 -9.56,-16.75 3.47,-25.548 7.21,-116.25 -26.44,-155.14 -49.62,-60.414 -7.86,-160.86 -76.72,-212.2 -22.33,-27.878 -6.71,-48.418 5.83,-77.022 11.64,-26.54 20.05,-60.4 7.3,-104 -18.72,-79.02 35.94,-156.71 5.63,-235.16 -32.85,-64.227 47.34,-44.14 77.8,-135.19 4.72,-12.357 13.92,-40.333 21.03,-62.385 13.44,-41.67 62.07,-90.55 76.99,-141.52 14.21,-70.86 25.56,-74.18 45.07,-78.97 19.93,-7.43 68.26,-33.6 77.1,-41.65 z"/><path id="path5974" d="m 0,1661.2 v -294.8 c 0,0 27.508,119.12 57.207,171.58 45.12,81.172 41.29,150 -18.465,220.71 C 10.876,1728.29 8.808,1708.99 0,1661.19 Z M 1644.7,389.97 c -12.1,115.46 112.4,208.42 155.3,242.21 v 401.88 c -11.18,-81.615 -87.806,-183.49 -17.784,-235.3 -40.84,-47.758 -8.617,-123.19 -76.887,-145.84 -30.34,-59.154 -113.51,-99.357 -116.27,-167.93 -6.35,-62.33 9.7,-133.23 3.62,-194.55 -18.07,-70.258 -44.4,-120.01 30.31,-162.09 43.65,-35.706 59.36,-48.47 102.84,-65.662 89.35,88.785 -87.3,233.64 -81.19,327.27 z M 511.25,0 C 454.37,16.965 421.58,59.893 365.73,93.81 290.94,139.22 208.96,174 159.75,241.65 l 200.74,107.6 c 28.646,-33.075 54.994,-74.97 101.74,-83.06 39.406,-10.01 85.035,-59.984 101.45,-107.87 27.264,-20.677 72.026,9.136 103.96,-16.463 52.958,-20.82 102.47,-58.833 162.31,-53.026 42.574,0.65 86.795,-14.66 112.25,-50.46 31.597,-15.22 64.77,19.42 99.096,15.02 35.435,13.35 59.046,-40.68 92.83,-18.88 32.43,20.18 74.55,15.53 120.83,-23.47 l 2.3,-11.03 z M 298.26,0 C 219.1,45.59 158.64,84.112 74.31,195.28 l 59.318,35.832 c 44.31,-46.84 105.43,-94.44 189.28,-140.18 46.69,-25.47 65.92,-50.86 131.14,-90.93 z M 0,296.46 54.913,214.234 119.663,250 c 0,0 -83.245,112.73 -119.66,181.65 z M 1545.3,1944.8 c -46.673,-10.362 -53.248,-37.863 -22.227,-33.046 31.847,4.946 69.216,19.68 95,-1.11 25.782,-20.79 73.875,-108.68 13.504,-169.8 -60.37,-61.12 -18.676,-83.127 55.975,-99.675 74.651,-16.548 72.043,-133.84 103.65,-203.64 21.704,13.74 8.802,-3.88 8.802,-3.88 v 347.26 c 0,0 -62.234,152.24 -204.41,168.43 -19.192,2.51 -30.766,-1.3 -50.288,-4.55 z"/></g><g id="g6006" style="fill:green;fill-rule:evenodd;stroke:#71c837;stroke-width:8;stroke-linecap:square;stroke-linejoin:round"><circle id="circle5978" cx="1337.8" cy="2010.6" r="16"/><circle id="circle5980" cx="1382.5" cy="2011.6" r="16"/><circle id="circle5982" cx="1432.7" cy="1916.7" r="16"/><circle id="circle5984" cx="1382.5" cy="1916.7" r="16"/><circle id="circle5986" cx="1237.4" cy="2019.7" r="16"/><circle id="circle5988" cx="1188.4" cy="2064.1" r="16"/><circle id="circle5990" cx="1237.4" cy="2064.1" r="16"/><circle id="circle5992" cx="1284.3" cy="2064.1" r="16"/><circle id="circle5994" cx="1237.4" cy="2108.5" r="16"/><circle id="circle5996" cx="1284.3" cy="2108.5" r="16"/><circle id="circle5998" cx="1237.4" cy="2155.9" r="16"/><circle id="circle6000" cx="1337.8" cy="2108.5" r="16"/><circle id="circle6002" cx="1432.7" cy="2157" r="16"/><circle id="circle6004" cx="1525.6" cy="2064.1" r="16"/></g><path style="fill:#e1e1e1" id="path6008" d="m 1665.7,381.38 c 9.1,-94.93 100.1,-175.8 104.1,-243.31 C 1773.9,70.574 1726,35.14 1683.9,0 H 1800 v 598.01 c -75.4,-37.65 -148.7,-130.5 -134.3,-216.63 z"/><g id="g6036" style="fill:green;fill-rule:evenodd;stroke:#71c837;stroke-width:8;stroke-linecap:square;stroke-linejoin:round"><circle id="circle6010" cx="1628.3" cy="24.551" r="16"/><circle id="circle6012" cx="1570.4" cy="74.165" r="16"/><circle id="circle6014" cx="1628.3" cy="169.26" r="16"/><circle id="circle6016" cx="1628.3" cy="234.03" r="16"/><circle id="circle6018" cx="1628.3" cy="344.29" r="16"/><circle id="circle6020" cx="1701" cy="169.26" r="16"/><circle id="circle6022" cx="1628.3" cy="500.89" r="16"/><circle id="circle6024" cx="1777.1" cy="671.78" r="16"/><circle id="circle6026" cx="1647.9" cy="1697.3" r="16"/><circle id="circle6028" cx="1698.9" cy="1697.3" r="16"/><circle id="circle6030" cx="1698.9" cy="1749.4" r="16"/><circle id="circle6032" cx="1698.9" cy="1840.4" r="16"/><circle id="circle6034" cx="1737.2" cy="2156.3" r="16"/></g><g id="g6044" style="fill-rule:evenodd"><path id="path6038" d="m 0.772,1840.4 162.55,219.1 -14.68,13 -147.87,-199.8 m 0,96.9 77.86,102.8 -16.94,13 -60.92,-83.5" style="fill:#ebe694;stroke:#ded54d;stroke-width:2;stroke-linecap:square;stroke-linejoin:round"/><path id="path6040" d="m 0,1469.9 v 157.64 c 0.64,0.97 7.343,33.738 18.804,45.472 13.222,13.538 37.798,23.566 49.97,8.227 12.027,-15.16 8.057,-32.65 -9.99,-53.39 -18.622,-24 -17.966,-40.8 -22.628,-66.5 C 31.494,1535.649 0,1469.95 0,1469.95 Z" style="opacity:.6;fill:#b9e878"/><path id="path6042" d="m 1525.1,1874.6 74.27,12.853 -4.214,22.714 -74.27,-12.853 z m -1316.43,251.1 30.383,39.66 -10.484,9.67 -30.39,-39.66 z" style="fill:#edbb92;stroke:#de8787;stroke-width:2;stroke-linecap:square;stroke-linejoin:round"/></g><path style="fill:#fdfdfd" id="path6046" d="m 1184.7,1949.5 c 2.017,2.995 4.075,5.864 6.164,8.588 -2.09,-2.724 -4.15,-5.593 -6.166,-8.588 z M 740,1581.4 c 7.5,7.59 15.193,15.033 23.072,22.314 7.88,7.282 15.95,14.405 24.203,21.36 8.254,6.958 16.695,13.747 25.32,20.36 8.626,6.614 17.435,13.052 26.428,19.307 8.993,6.26 18.17,12.33 27.527,18.21 9.357,5.88 18.894,11.57 28.61,17.05 9.718,5.49 19.615,10.77 29.69,15.85 10.073,5.08 20.323,9.95 30.75,14.6 10.425,4.65 21.026,9.08 31.802,13.29 10.776,4.21 21.727,8.19 32.848,11.93 11.12,3.75 22.414,7.26 33.877,10.53 11.463,3.27 23.096,6.3 34.896,9.07 11.8,2.78 23.77,5.3 35.906,7.57 12.136,2.27 24.43,4.27 36.9,6.01 -12.47,-1.73 -24.77,-3.74 -36.91,-6 -12.14,-2.26 -24.11,-4.79 -35.91,-7.56 -11.8,-2.77 -23.44,-5.8 -34.9,-9.07 -11.47,-3.26 -22.76,-6.77 -33.88,-10.52 -11.12,-3.74 -22.07,-7.72 -32.85,-11.93 -10.78,-4.21 -21.38,-8.63 -31.81,-13.28 -10.43,-4.65 -20.68,-9.51 -30.75,-14.59 -10.08,-5.07 -19.97,-10.36 -29.69,-15.84 -9.72,-5.49 -19.26,-11.17 -28.61,-17.05 -9.36,-5.88 -18.54,-11.95 -27.53,-18.21 -8.99,-6.25 -17.8,-12.69 -26.43,-19.31 -8.63,-6.61 -17.07,-13.4 -25.32,-20.36 -8.25,-6.96 -16.32,-14.08 -24.2,-21.36 -7.88,-7.28 -15.57,-14.72 -23.07,-22.31 z M 1297.8,238.49 v 0.002 c 2.757,2.77 5.76,5.444 9.018,8.016 3.258,2.572 6.767,5.04 10.54,7.4 3.773,2.36 7.81,4.61 12.113,6.742 4.31,2.133 8.88,4.15 13.73,6.043 -4.85,-1.894 -9.42,-3.91 -13.73,-6.045 -4.3,-2.133 -8.34,-4.382 -12.11,-6.742 -3.77,-2.36 -7.28,-4.83 -10.54,-7.4 -3.26,-2.572 -6.26,-5.246 -9.02,-8.016 z M 1274.1,94.8 c 2.25,2.33 4.503,4.266 6.633,5.952 2.13,1.686 4.138,3.124 5.902,4.46 1.764,1.336 3.284,2.566 4.436,3.843 v -0.002 c -1.15,-1.277 -2.67,-2.51 -4.43,-3.844 -1.76,-1.34 -3.77,-2.78 -5.9,-4.46 -2.13,-1.69 -4.38,-3.62 -6.63,-5.95 z"/><path style="fill:#9c9;stroke:#000;stroke-width:4" id="path6048" d="M 955.83,1944.3 C 643.32,1938.61 337.46,1784.29 180.62,1467.07 60.8,1197.23 81.97,858.94 297.26,614.61 549.32,324.95 917.59,242.42 1245.49,393.82 c 285.66,128.99 430.26,412 461.45,667.34 34.82,255.64 -32.01,503.72 -238.08,686.52 -147.95,130.41 -321.55,197.21 -513.08,196.59 z"/><g id="g6242" transform="matrix(1,0,0,0.98,-0.01,-0.96)"><path id="path6050" d="m 123.34,1309.8 231.24,-42.217 M 109.02,1117.2 586.58,1093.9 m -398.24,413.7 448.6,-149 m -331.33,325.9 378.97,-204.9 m -228.9,343 249.56,-196.54 34.144,29.208 M 805.36,1966.7 919.78,1703.2 M 139.34,930.57 582.82,961.486 M 218.81,738.8 522.66,823.647 537.268,791.709 M 340.28,581.52 581.79,694.38 567.698,722.958 M 496.52,454.04 704.32,658.18 M 651.2,376.07 789.4,594.98 m 28.77,-259.81 65.987,225.21 M 988.09,330.54 977.86,554.74 m 737.34,624.06 -306.49,21.437 M 1696.2,1008 l -302.8,62.566 m 260.9,454.234 -268.1,-80 m 318.5,-96.4 -297.3,-9.434 m 44,459.034 -172.2,-167.4" style="fill:none;stroke:gray;stroke-width:4"/><path id="path6052" d="m 1317.2,1587.8 -2.455,4.334 183.16,160.94 22.48,-22.006 -203.19,-143.27 z" style="fill:#ebe694;fill-rule:evenodd"/><path id="path6054" d="m 1314.8,1891.1 -115,-199.1 m -209.6,289 24.935,-247.93 M 1645,840.31 1360.8,936.05 m 201.6,-255.76 -256.5,124.98 m 147.3,-255.91 -171,143.12 m -121.6,-324.19 -84.402,206.73" style="fill:none;stroke:gray;stroke-width:4"/><path id="path6056" d="m 1221.8,392.59 -94.1,208.17 c 78.494,44.698 129.22,112.86 158.49,162.99 l -4.516,-147.32 113.34,-120.38 c -53,-44.36 -111.7,-73.52 -173.2,-103.46 z m -163.1,-51.44 -25.393,222.44 4.59,0.647 48.838,-217.93 z m 186.6,1318.05 -5.62,3.49 131.86,195.76 24.467,-15.27 -150.7,-183.98 z m -75.3,71.4 -51.204,9.938 -51.91,-0.378 4.856,234.74 86.17,-17.818 78.89,-26.978 z" style="fill:#ebe694;fill-rule:evenodd"/><path id="path6058" d="M 1563.6,1677.8 1341.4,1550.7" style="fill:none;stroke:gray;stroke-width:4"/><path id="path6060" d="m 1370.2,1492.2 -2.246,8.567 238.65,116.58 14.026,-22.703 -250.43,-102.44 z m 30.4,-105.6 -0.604,5.133 281.99,58.91 4.138,-20.448 -285.52,-43.595 z m 10.6,-119.2 -0.604,5.233 303.19,5.404 2.96,-24.662 -305.55,14.026 z m -8.3,-134.2 -0.604,5.232 309.56,-34.646 -2.857,-24.26 -306.1,53.675 z m -25.1,-133.65 -0.604,5.232 300.13,-69.222 -6,-22.69 -293.53,86.68 z m -42.4,-131.39 2.87,6.39 277.72,-100.82 -10.015,-21.084 -270.58,115.51 z m -49.8,-108.07 -0.604,5.232 237.88,-142.15 -16.755,-18.885 -220.52,155.8 z m -394.64,-432.46 43.14,226.95 4.59,0.647 -20.598,-227.85 z M 729,349.31 l 105.63,226.95 4.59,0.647 -89.46,-231.68 z m -171.12,67.17 184.21,205.4 4.59,0.647 -171.85,-213.93 z m 411.82,1304.72 -6.342,-1.4 -74.837,258.19 28.22,3.318 52.97,-260.11 z m -252.16,-187.8 -5.04,-2.958 -191.53,113.02 -13.253,-18.547 -171.37,97.657 17.696,15.87 148.85,-94.183 18.52,25.35 -131.98,100.57 15.92,13.2 137.46,-111.43 -10.415,-14.16 185.14,-124.4 z m -57.38,-111.6 -0.862,-4.79 -220.16,94.58 -11.14,-22.353 -204.84,86.642 13.07,18.7 182.73,-87.2 17.07,34.19 -172.82,91.61 13.955,17.82 178.75,-102.66 -9.683,-19.8 213.93,-106.75 z m -45.49,-125 -1.907,-5.062 -238.47,54.107 -8.953,-25.31 -230.06,39.914 6.025,21.02 214.58,-43.96 8.163,32.72 -210.93,52.56 3.205,14.11 227.47,-54.77 -3.753,-20.23 234.63,-65.13 z m -31.03,-276.2 0.273,-5.188 -242.91,-4.036 0.594,-17.184 -217.3,-13.59 -3.37,21.813 202.77,2.58 -1.36,33.953 -209.22,6.344 -0.41,23.312 225.68,-14.425 0.648,-23.19 244.6,-10.4 z m 7.64,142.2 -0.232,-5.877 -249.11,22.62 -1.797,-20.738 -233.35,12.174 0.83,21.53 217.44,-19.59 3.32,33.4 -217.28,28.52 4.93,22.92 230.09,-37.91 -2.46,-23.06 247.62,-34.02 z m -1.67,-264.89 -0.826,5.13 -226.72,-31.298 -4.58,20.038 -200.05,-26.576 7.94,-20.926 177.59,30.6 10.094,-31.803 -173.54,-31.297 8.935,-21.77 183.33,44.75 -3.504,17.25 221.33,45.903 z m -34.67,-147.38 -2.152,7.233 -134.05,-40.312 -8.96,18.09 -159.05,-43.85 10.4,-19.39 140.27,45.43 14.606,-27.75 -130.52,-47.73 13.293,-15.67 137.77,57.48 -8.683,14.25 127.07,52.24 z m 205.84,921.67 -9.226,-8.115 -112.65,98.8 -13.815,-12.957 -125.37,100.92 19.76,12.052 105.27,-95.186 22.36,18.242 -96.18,94.164 17.98,10.025 99.83,-105.84 -13.66,-10.055 105.68,-102.04 z m -89.96,-978.75 -4.513,6.995 -164.09,-109.9 -11.356,11.177 -110.17,-62.538 17.73,-14.89 89.08,60.663 17.88,-21.983 -81.96,-58.04 17,-11.78 84.29,69.257 -9.43,12.64 155.55,118.41 z m 205.29,990.75 -8.968,-6.084 -105.65,160.63 -16.325,-7.798 -79.372,99.36 22.016,7.33 60.3,-88.72 23.77,11.357 -49.77,87.277 17.69,6.45 52.67,-101.43 -14.53,-5.964 98.19,-162.41 z" style="fill:#ebe694;fill-rule:evenodd"/><g id="g6078" style="stroke-width:4"><path id="path6062" d="m 616.97,1912.6 176.08,-211.39 -19.775,-16.917 M 1150.3,1896.4 1117.6,1740.8 M 1311,437.5 1180,637.58 M 564.66,521.53 C 156.29,907.2 323.49,1709.13 845.72,1872.03" style="fill:none;stroke:gray"/><g id="g6074" style="fill:red;fill-rule:evenodd;stroke:#000"><circle id="circle6066" cx="636.17" cy="2127" r="17.191"/><circle id="circle6068" cx="1339" cy="158.89" r="17.191"/><circle id="circle6070" cx="276.95" cy="330.7" r="17.191"/><circle id="circle6072" cx="1234.8" cy="2001.3" r="17.191"/></g></g><path id="path6080" d="m 1081.1,408.93 c 26.467,-6.955 55.315,-13.27 55.315,-13.27 l -1.564,26.147 -53.79,-4.822 z" style="fill:#9c9;fill-rule:evenodd"/><path id="path6084" d="m 1693.97,807.227 94,0.17 -0.17,94 -94,-0.17 z" style="fill:#fff;fill-rule:evenodd;stroke:#000;stroke-width:4;stroke-linecap:round;stroke-linejoin:round"/><path id="path6086" d="m 1730.41,820.753 c 4.476,-0.252 6.83,1.698 7.065,5.852 0.24,4.77 -3.546,7.187 -5.416,7.322 4.28,1.22 5.29,9.958 5.29,9.958 l 8.55,-0.37 c 3.56,-0.19 5.21,6.145 1.42,6.523 l -8.56,0.37 0.77,4.4 c 0,0 15.66,-0.947 16.01,-0.79 0.34,0.16 7.71,17.35 7.71,17.35 l 4.9,-1.83 c 2.88,-0.91 5.37,4.578 2.45,6.067 -0.14,0.242 -3.26,1.634 -11.13,4.69 -0.51,-0.676 -8.36,-19.468 -8.36,-19.468 0,0 -20.43,1.35 -20.87,1.02 -0.44,-0.327 -4.6,-24.397 -6.31,-34.877 -0.22,-3.89 1.92,-5.962 6.43,-6.216 z m 18.9,61.965 c -3.202,2.03 -6.602,3.145 -10.2,3.348 -3.627,0.204 -7.144,-0.507 -10.55,-2.134 -3.41,-1.657 -6.13,-4.07 -8.156,-7.243 -2,-3.21 -3.103,-6.64 -3.31,-10.29 -0.204,-3.63 0.536,-7.16 2.22,-10.6 0.867,-1.81 1.95,-3.43 3.248,-4.85 l 2.292,9.42 c -0.633,1.79 -0.923,3.67 -0.87,5.64 0.136,2.42 0.867,4.72 2.19,6.87 1.355,2.15 3.178,3.78 5.47,4.88 2.29,1.07 4.65,1.54 7.078,1.4 2.428,-0.14 4.705,-0.87 6.83,-2.19 2.155,-1.36 3.784,-3.18 4.887,-5.47 l 3.44,7.24 c -1.27,1.54 -2.79,2.85 -4.58,3.95 z"/><g id="a" style="fill-rule:evenodd"><path id="path6088" d="m 1647.81,589.072 94,-0.393 0.39,93.99 -93.998,0.39 z" style="fill:#fff;stroke:#000;stroke-width:4;stroke-linecap:round;stroke-linejoin:round"/><path id="path6090" d="m 1706.224,606.945 c -1.635,-0.26 -3.172,0.855 -3.433,2.49 0,0 -2.28,27.806 -2.55,28.784 -0.11,0.42 2.74,1.21 2.74,1.21 0,0 -0.05,12.11 -0.01,18.83 -0.08,4.1 6.12,4.06 6,-0.04 -0.05,-16.82 -0.19,-33.67 -0.21,-48.15 l 0.01,-0.02 c 0.09,-1.54 -1,-2.89 -2.52,-3.13 z m -21.027,16.405 c 0.054,1.59 -2.36,1.584 -2.298,-0.006 l 0.04,-16.48 -2.43,0.043 -0.68,15.79 c -0.01,2.763 1.6,5.274 4.12,6.41 0.03,7.15 0.05,12.598 0.14,29.286 -0.08,4.1 6.12,4.067 6,-0.03 -0.09,-16.74 -0.11,-22.226 -0.14,-29.37 2.43,-1.214 3.94,-3.727 3.87,-6.445 l -0.6,-15.702 -2.2,-0.028 -0.04,16.257 c -0.01,1.533 -2.31,1.527 -2.3,-0.007 l -0.18,-16.237 -2.99,0.03 -0.34,16.49 z"/></g><use id="use6093" width="1800" height="2210" x="-242.1" y="-288.96" xlink:href="#a"/><use id="use6095" width="1800" height="2210" x="31.238" y="1007.4" xlink:href="#a"/><use id="use6097" width="1800" height="2210" x="-757.53" y="1429.2" xlink:href="#a"/><use id="use6099" width="1800" height="2210" x="-1226.1" y="1280.8" xlink:href="#a"/><use id="use6101" width="1800" height="2210" x="-1601" y="835.63" xlink:href="#a"/><g id="g6115" style="fill-rule:evenodd"><path id="path6103" d="m 31.23,831.174 94,-0.393 0.39,94 -93.998,0.4 z" style="fill:#fff;stroke:#000;stroke-width:4;stroke-linecap:round;stroke-linejoin:round"/><path id="path6105" d="m 89.644,849.047 c -1.635,-0.26 -3.172,0.855 -3.433,2.49 0,0 -2.28,27.806 -2.55,28.784 -0.11,0.43 2.74,1.22 2.74,1.22 0,0 -0.05,12.12 -0.01,18.83 -0.08,4.1 6.12,4.07 6,-0.03 -0.05,-16.82 -0.19,-33.67 -0.21,-48.14 l 0.01,-0.01 c 0.09,-1.53 -1,-2.88 -2.52,-3.13 z m -21.027,16.405 c 0.054,1.59 -2.36,1.584 -2.298,-0.006 l 0.04,-16.48 -2.43,0.043 -0.68,15.79 c -0.01,2.76 1.6,5.27 4.12,6.41 0.03,7.15 0.05,12.59 0.14,29.28 -0.08,4.1 6.12,4.06 6,-0.03 -0.09,-16.74 -0.11,-22.23 -0.14,-29.37 2.43,-1.22 3.94,-3.73 3.87,-6.45 l -0.6,-15.71 -2.2,-0.03 -0.04,16.25 c -0.01,1.53 -2.31,1.52 -2.3,-0.01 l -0.18,-16.24 -2.99,0.02 -0.34,16.49 z"/><path id="path6107" d="m 156.13,542.222 94,-0.393 0.39,93.99 -93.998,0.39 z" style="fill:#fff;stroke:#000;stroke-width:4;stroke-linecap:round;stroke-linejoin:round"/><path id="path6109" d="m 214.544,560.095 c -1.635,-0.26 -3.172,0.855 -3.433,2.49 0,0 -2.28,27.806 -2.55,28.784 -0.11,0.42 2.74,1.21 2.74,1.21 0,0 -0.05,12.11 -0.01,18.83 -0.08,4.1 6.12,4.06 6,-0.04 -0.05,-16.82 -0.19,-33.67 -0.21,-48.15 l 0.01,-0.02 c 0.09,-1.54 -1,-2.89 -2.52,-3.13 z M 193.517,576.5 c 0.054,1.59 -2.36,1.584 -2.298,-0.006 l 0.04,-16.48 -2.43,0.043 -0.68,15.79 c -0.01,2.763 1.6,5.274 4.12,6.41 0.03,7.15 0.05,12.598 0.14,29.286 -0.08,4.1 6.12,4.067 6,-0.03 -0.09,-16.74 -0.11,-22.226 -0.14,-29.37 2.43,-1.214 3.94,-3.727 3.87,-6.445 l -0.6,-15.702 -2.2,-0.028 -0.04,16.257 c -0.01,1.534 -2.31,1.527 -2.3,-0.006 l -0.18,-16.24 -2.99,0.02 -0.34,16.49 z"/><path id="path6111" d="m 726.27,81.452 94,-0.393 0.39,93.99 -93.998,0.39 z" style="fill:#fff;stroke:#000;stroke-width:4;stroke-linecap:round;stroke-linejoin:round"/><path id="path6113" d="m 784.684,99.325 c -1.635,-0.26 -3.172,0.855 -3.433,2.49 0,0 -2.28,27.806 -2.55,28.784 -0.11,0.42 2.74,1.21 2.74,1.21 0,0 -0.05,12.11 -0.01,18.83 -0.08,4.1 6.12,4.06 6,-0.04 -0.05,-16.82 -0.19,-33.67 -0.21,-48.15 l 0.01,-0.02 c 0.09,-1.54 -1,-2.89 -2.52,-3.13 z m -21.027,16.405 c 0.054,1.59 -2.36,1.584 -2.298,-0.006 l 0.04,-16.48 -2.43,0.043 -0.68,15.79 c -0.01,2.763 1.6,5.274 4.12,6.41 0.03,7.15 0.05,12.598 0.14,29.286 -0.08,4.1 6.12,4.067 6,-0.03 -0.09,-16.74 -0.11,-22.226 -0.14,-29.37 2.43,-1.214 3.94,-3.727 3.87,-6.445 l -0.6,-15.702 -2.2,-0.028 -0.04,16.257 c -0.01,1.534 -2.31,1.527 -2.3,-0.006 l -0.18,-16.24 -2.99,0.02 -0.34,16.49 z"/></g><circle id="circle6117" cx="1628.9" cy="2138.9" r="58.756" style="fill:#fff;stroke:#000;stroke-width:4;stroke-linecap:square;stroke-linejoin:round"/><path id="path6119" d="m 1601.8,2166.9 c 0.213,-0.904 27.06,-79.47 27.197,-79.586 0.08,-0.07 0.19,-0.062 0.247,0.015 0.12,0.16 27.002,78.96 27.144,79.57 0.053,0.22 0.028,0.41 -0.057,0.41 -0.08,0 -6.2,-6.22 -13.6,-13.82 -7.4,-7.6 -13.53,-13.82 -13.63,-13.82 -0.1,0 -6.23,6.21 -13.63,13.81 -7.4,7.6 -13.52,13.81 -13.61,13.81 -0.08,0 -0.11,-0.19 -0.05,-0.41 z m 17.6,-22.004 9.605,-9.937 v -19.09 c 0,-10.5 -0.066,-19.09 -0.148,-19.09 -0.082,0 -0.318,0.52 -0.526,1.15 -0.2,0.63 -4.52,13.66 -9.59,28.94 -7.88,23.75 -9.35,28.34 -8.98,27.99 0.03,-0.03 4.38,-4.52 9.66,-9.99 z" style="fill:#060606"/><text id="text6123" font-size="40" style="font-size:40px;font-family:'DejaVu Sans'"><tspan id="tspan6121" x="1613.933" y="2187">N</tspan></text><g id="g6129" style="stroke:gray;stroke-width:4"><path id="path6125" d="m 1073.7,1973.6 -4.777,-233.26 M 1234.3,1929.2 1169.928,1730.7 M 1129.7,601.14 1223.17,394.53"/><path id="path6127" d="m 1284.3,763.76 -4.01,-147.82 113.03,-120.92" style="fill:none"/></g><path id="path6131" d="M 955.86,1983.2 C 643.35,1977.4 337.49,1820.07 180.65,1496.67 60.83,1221.57 82.002,876.69 297.29,627.6 549.35,332.3 917.62,248.16 1245.52,402.51 c 285.66,131.5 430.26,420.03 461.45,680.34 34.82,260.62 -32.01,513.53 -238.08,699.9 -147.95,132.95 -321.55,201.06 -513.08,200.42 z" style="fill:none;stroke:#000;stroke-width:4.03900003"/><path id="path6133" d="m 1163.6,1710.6 c 165,-85.74 249.38,-226.05 247.5,-478.43 -17.4,-289.6 -133.8,-679.19 -467.62,-677.14 -115.87,1.38 -243.18,73.71 -303,188.35 l -72.803,-20.787 -30.03,68.378 63.914,44.51 c -25.8,135.39 -15.22,233.09 -8.68,324.99 l -49.7,7.2 22.65,134.48 46.7,-8.5 c 43.79,136.71 77.96,216.26 156.37,313.33 l -28.74,48.95 33.47,28.64 47.48,-34.16 c 149.39,98.31 302.71,101.68 348.52,78.72 -1.03,-2.82 -5.1,-16.13 -5.99,-18.51 z" style="fill:#edbb92;stroke:#000;stroke-width:4.03900003"/><g id="g6233" font-size="50" style="font-size:50px;font-family:'DejaVu Sans'"><switch id="switch6147"><text id="text6137" systemLanguage="de"><tspan id="tspan6135" x="1375.893" y="177.399">Nord-</tspan></text><text id="text6141" systemLanguage="fr"><tspan id="tspan6139" x="1375.893" y="177.399">Entrée du</tspan></text><text id="text6145"><tspan id="tspan6143" x="1370.893" y="177.399">North</tspan></text></switch><switch id="switch6161"><text id="text6151" systemLanguage="de"><tspan id="tspan6149" x="1375.893" y="228.399">Eingang</tspan></text><text id="text6155" systemLanguage="fr"><tspan id="tspan6153" x="1375.893" y="228.399">Nord</tspan></text><text id="text6159"><tspan id="tspan6157" x="1370.893" y="228.399">entrance</tspan></text></switch><switch id="switch6175"><text id="text6165" systemLanguage="de"><tspan id="tspan6163" x="34.934" y="295.799">Nord-West-</tspan></text><text id="text6169" systemLanguage="fr"><tspan id="tspan6167" x="10" y="246.799">Entrée du</tspan></text><text id="text6173"><tspan id="tspan6171" x="29.934" y="295.799">North-West</tspan></text></switch><switch id="switch6189"><text id="text6179" systemLanguage="de"><tspan id="tspan6177" x="34.934" y="344.899">Eingang</tspan></text><text id="text6183" systemLanguage="fr"><tspan id="tspan6181" x="10" y="295.799">Nord-Ouest</tspan></text><text id="text6187"><tspan id="tspan6185" x="29.934" y="344.899">entrance</tspan></text></switch><switch id="switch6203"><text id="text6193" systemLanguage="de"><tspan id="tspan6191" x="333.527" y="2143.135">Süd-West-</tspan></text><text id="text6197" systemLanguage="fr"><tspan id="tspan6195" x="353.527" y="2143.135">Entrée du</tspan></text><text id="text6201"><tspan id="tspan6199" x="328.527" y="2143.135">South-west</tspan></text></switch><switch id="switch6217"><text id="text6207" x="946.039" y="-124.2" systemLanguage="de"><tspan id="tspan6205" x="1274.566" y="2018.935">Süd-Eingang</tspan></text><text id="text6211" x="946.039" y="-124.2" systemLanguage="fr"><tspan id="tspan6209" x="1274.566" y="2018.935">Entrée du Sud</tspan></text><text id="text6215" x="946.039" y="-124.2"><tspan id="tspan6213" x="1274.566" y="2018.935">South entrance</tspan></text></switch><switch id="switch6231"><text id="text6221" systemLanguage="de"><tspan id="tspan6219" x="333.527" y="2191.736">Eingang</tspan></text><text id="text6225" systemLanguage="fr"><tspan id="tspan6223" x="353.527" y="2191.736">Sud-Ouest</tspan></text><text id="text6229"><tspan id="tspan6227" x="328.527" y="2191.736">entrance</tspan></text></switch></g></g><g id="g6258" style="stroke:#fff;stroke-width:4"><path id="path6244" d="m 872.68,632.48 c -127.44,23.953 -210.95,144.7 -186.53,269.7 l 104.89,536.94 h 0.002 c 24.42,125 147.52,206.92 274.96,182.96 127.44,-23.952 210.95,-144.7 186.53,-269.7 l -0.03,-0.15 -104.83,-536.64 -0.028,-0.148 c -24.5,-124.98 -147.6,-206.91 -275.04,-182.95 l 0.076,-0.007 z" style="fill:#b3df7a"/><path id="path6246" d="m 696.84,856.96 125.75,637.58 423.68,-82.664 -131.02,-637.37 -0.035,-0.177 -418.37,82.63 z" style="fill:#b9e878"/><g id="g6254" style="fill:none"><path id="path6248" d="m 782.44,843.83 18.176,92.285 253.36,-50.523 -18.81,-91.633" style="stroke-linecap:square"/><path id="path6250" d="m 1160.7,1426.8 -18.81,-91.633 -0.022,-0.107 -252.7,49.978 18.176,92.285"/><path id="path6252" d="m 1090.7,1440.8 -6.343,-30.333 -0.014,-0.047 -112.97,21.932 6.12,30.504 M 852.03,829.2 l 6.343,30.333 0.014,0.047 112.97,-21.932 -6.12,-30.504"/></g><path id="path6256" d="m 760.74,1171.1 418.51,-81.675" style="fill:#55d400"/></g><g id="g6264" style="fill:none;stroke:#fff;stroke-width:4;stroke-linejoin:round"><ellipse id="ellipse6260" cx="979.51" cy="1126.1" rx="58.756" ry="57.633"/><path id="path6262" d="m 972.73,901.45 a 58.756,57.633 0 0 1 -40.7,30.46 58.756,57.633 0 0 1 -49.61,-12.41 m 86.61,449.4 a 58.756,57.633 0 0 1 41.87,-32.4 58.756,57.633 0 0 1 51.3,14.1"/></g></g><g id="layer1" style="display:inline"><path style="fill:none;stroke:none;stroke-width:1px;stroke-linecap:butt;stroke-linejoin:miter;stroke-opacity:1" id="path150" d="m 1393.31,484.1596 c 17.9032,15.18001 36.0889,30.7133 59.88,53.2532 l -171,140.2576 -1.91,-75.0092 z" data-cv-key="J2"/><path style="fill:none;stroke:none;stroke-width:1px;stroke-linecap:butt;stroke-linejoin:miter;stroke-opacity:1" id="path152" d="m 1310.99,427.79 -131,196.0784 c 17.8716,19.43736 56.2358,43.35971 104.3,123.6564 2.2471,3.75399 -0.147,0.0157 0,0 l -4.01,-144.8636 113.03,-118.5016 c -22.6947,-18.1967 -47.7201,-36.68475 -82.32,-56.3696 z" data-cv-key="J1"/><path style="fill:none;stroke:none;stroke-width:1px;stroke-linecap:butt;stroke-linejoin:miter;stroke-opacity:1" id="path154" d="m 1453.19,537.4128 c 19.4235,13.63321 36.4711,36.27567 52.921,53.82846 l -220.521,152.68694 -3.4,-66.2578 z" data-cv-key="K1"/><path style="fill:none;stroke:none;stroke-width:1px;stroke-linecap:butt;stroke-linejoin:miter;stroke-opacity:1" id="path156" d="m 1522.866,609.74856 c 14.0772,18.80824 26.9361,37.12028 39.524,55.97564 l -256.5,122.4804 -20.904,-39.14904 z" data-cv-key="K2"/><path style="fill:none;stroke:none;stroke-width:1px;stroke-linecap:butt;stroke-linejoin:miter;stroke-opacity:1" id="path158" d="m 1562.39,665.7242 c 14.525,22.121 29.05,45.78518 43.575,70.90888 l -270.58,113.1998 c -9.8317,-26.03811 -19.6633,-42.60381 -29.495,-61.62828" data-cv-key="L1"/><path style="fill:none;stroke:none;stroke-width:1px;stroke-linecap:butt;stroke-linejoin:miter;stroke-opacity:1" id="path160" d="m 1615.98,757.2954 c 9.0462,19.25431 18.61,40.57883 29.01,65.2484 l -284.2,93.8252 c -10.1159,-25.23755 -15.1503,-40.31034 -22.53,-60.27 z" data-cv-key="L2"/><path style="fill:none;stroke:none;stroke-width:1px;stroke-linecap:butt;stroke-linejoin:miter;stroke-opacity:1" id="path162" d="m 1644.99,822.5438 26.326,71.1088 -293.53,84.9464 -16.996,-62.23 z" data-cv-key="M1"/><path style="fill:none;stroke:none;stroke-width:1px;stroke-linecap:butt;stroke-linejoin:miter;stroke-opacity:1" id="path164" d="m 1677.316,915.8888 -300.13,67.83756 c 2.811,7.89031 9.4979,29.64784 15.1873,63.96004 -2.0333,-0.5084 302.8,-60.8064 302.8,-60.8064 z" data-cv-key="M2"/><path style="fill:none;stroke:none;stroke-width:1px;stroke-linecap:butt;stroke-linejoin:miter;stroke-opacity:1" id="path166" d="m 1695.1733,986.88 c -0.3268,0.32679 10.3337,63.7858 10.2574,71.1121 -0.4575,0.575 -302.5417,51.5849 -302.5417,51.5849 l -10.5157,-61.8906 z" data-cv-key="N1"/><path style="fill:none;stroke:none;stroke-width:1px;stroke-linecap:butt;stroke-linejoin:miter;stroke-opacity:1" id="path168" d="m 1402.286,1114.7034 6.414,60.5689 306.49,-21.0083 c -1.4201,-24.3351 -3.1209,-48.6702 -5.8857,-73.0054 z" data-cv-key="N2"/><path style="fill:none;stroke:none;stroke-width:1px;stroke-linecap:butt;stroke-linejoin:miter;stroke-opacity:1" id="path170" d="m 1408.7,1175.2723 c 2.49,65.8197 2.486,65.8207 2.486,65.8207 l 305.55,-13.7455 -1.546,-73.0835 z" data-cv-key="O1"/><path style="fill:none;stroke:none;stroke-width:1px;stroke-linecap:butt;stroke-linejoin:miter;stroke-opacity:1" id="path172" d="m 1410.586,1246.2203 c 303.19,5.296 303.19,5.296 303.19,5.296 l -9.086,68.9557 -297.3,-9.2453 z" data-cv-key="O2"/><path style="fill:none;stroke:none;stroke-width:1px;stroke-linecap:butt;stroke-linejoin:miter;stroke-opacity:1" id="path174" d="m 1686.114,1400.6311 c 9.437,-25.0972 14.5109,-52.3759 18.576,-80.1591 l -298.825,-8.737 c -0.4034,-0.2054 -6.2917,45.6647 -6.2917,45.6647 z" data-cv-key="P1"/><path style="fill:none;stroke:none;stroke-width:1px;stroke-linecap:butt;stroke-linejoin:miter;stroke-opacity:1" id="path176" d="m 1399.986,1362.9383 281.99,57.7318 -27.686,72.6739 -268.1,-78.4 z" data-cv-key="P2"/><path style="fill:none;stroke:none;stroke-width:1px;stroke-linecap:butt;stroke-linejoin:miter;stroke-opacity:1" id="path178" d="m 1370.19,1461.3999 250.43,100.3912 33.67,-68.4471 -268.1,-78.4 z" data-cv-key="Q1"/><path style="fill:none;stroke:none;stroke-width:1px;stroke-linecap:butt;stroke-linejoin:miter;stroke-opacity:1" id="path180" d="m 1563.59,1643.284 c 17.3773,-18.2267 31.0308,-38.3152 43.004,-59.2439 l -238.65,-114.2484 -26.554,48.9343 z" data-cv-key="Q2"/><path style="fill:none;stroke:none;stroke-width:1px;stroke-linecap:butt;stroke-linejoin:miter;stroke-opacity:1" id="path182" d="m 1520.375,1695.4866 43.215,-52.2026 -222.2,-124.558 -24.205,36.356 z" data-cv-key="R1"/><path style="fill:none;stroke:none;stroke-width:1px;stroke-linecap:butt;stroke-linejoin:miter;stroke-opacity:1" id="path184" d="m 1279.19,1597.028 172.2,164.052 46.505,-44.0275 -183.16,-157.7212 z" data-cv-key="R2"/><path style="fill:none;stroke:none;stroke-width:1px;stroke-linecap:butt;stroke-linejoin:miter;stroke-opacity:1" id="path186" d="m 1245.297,1625.056 150.7,180.3004 55.393,-44.2764 -172.2,-164.052 z" data-cv-key="S1"/><path style="fill:none;stroke:none;stroke-width:1px;stroke-linecap:butt;stroke-linejoin:miter;stroke-opacity:1" id="path188" d="m 1199.79,1657.2 115,195.118 56.74,-31.997 -131.86,-191.8448 -39.88,28.7238" data-cv-key="S2"/><path style="fill:none;stroke:none;stroke-width:1px;stroke-linecap:butt;stroke-linejoin:miter;stroke-opacity:1" id="path190" d="m 1163.631,1675.4486 73.161,215.0933 79.0147,-36.6989 L 1199.79,1657.2 Z" data-cv-key="T1"/><path style="fill:none;stroke:none;stroke-width:1px;stroke-linecap:butt;stroke-linejoin:miter;stroke-opacity:1" id="path192" d="m 1117.59,1705.024 52.031,-11.4356 67.171,196.9535 -73.7235,25.6327 z" data-cv-key="T2"/><path style="fill:none;stroke:none;stroke-width:1px;stroke-linecap:butt;stroke-linejoin:miter;stroke-opacity:1" id="path194" d="m 1068.913,1704.5732 48.677,0.4508 45.4785,211.1506 -89.3785,16.9934 z" data-cv-key="U1"/><path style="fill:none;stroke:none;stroke-width:1px;stroke-linecap:butt;stroke-linejoin:miter;stroke-opacity:1" id="path196" d="m 1015.125,1697.4486 53.788,7.1246 4.777,228.5948 c -28.5113,6.4851 -56.3443,8.9003 -83.5,7.252 z" data-cv-key="U2"/><path style="fill:none;stroke:none;stroke-width:1px;stroke-linecap:butt;stroke-linejoin:miter;stroke-opacity:1" id="path198" d="m 969.701,1685.814 45.424,11.6346 -24.935,242.9714 -73.459,0.3018 z" data-cv-key="V1"/><path style="fill:none;stroke:none;stroke-width:1px;stroke-linecap:butt;stroke-linejoin:miter;stroke-opacity:1" id="path200" d="m 919.77,1668.176 43.578,16.268 -74.837,253.0262 c -49.03744,-1.9116 -60.5309,-5.561 -83.161,-8.0142 z" data-cv-key="V2"/><path style="fill:none;stroke:none;stroke-width:1px;stroke-linecap:butt;stroke-linejoin:miter;stroke-opacity:1" id="path202" d="m 876.121,1649.554 43.649,18.622 -72.535,166.4701 -69.304,-25.9303 z" data-cv-key="W1"/><path style="fill:none;stroke:none;stroke-width:1px;stroke-linecap:butt;stroke-linejoin:miter;stroke-opacity:1" id="path204" d="m 739.791,1913.962 52.67,-99.4014 54.774,20.0855 -41.885,94.8099 z" data-cv-key="W3"/><path style="fill:none;stroke:none;stroke-width:1px;stroke-linecap:butt;stroke-linejoin:miter;stroke-opacity:1" id="path206" d="m 616.96,1873.388 87.59109,-103.1053 40.60591,23.0863 -79.372,97.3728 -48.825,-17.3538 m 131.141,-62.4084 23.77,11.1299 -49.77,85.5315 -34.3,-9.7158 z" data-cv-key="W4"/><path style="fill:none;stroke:none;stroke-width:1px;stroke-linecap:butt;stroke-linejoin:miter;stroke-opacity:1" id="path208" d="m 761.482,1801.0111 105.65,-157.4174 -46.031,-27.1509 -47.836,33.2043 19.775,16.5787 -88.48891,104.0569 z" data-cv-key="W2"/><path style="fill:none;stroke:none;stroke-width:1px;stroke-linecap:butt;stroke-linejoin:miter;stroke-opacity:1" id="path210" d="m 655.069,1737.805 105.68,-99.9992 32.291,28.42 -88.48891,104.0569 z" data-cv-key="X1"/><path style="fill:none;stroke:none;stroke-width:1px;stroke-linecap:butt;stroke-linejoin:miter;stroke-opacity:1" id="path212" d="m 568.899,1851.3821 99.83,-103.7232 35.82209,22.6238 L 616.96,1873.388 Z" data-cv-key="X3"/><path style="fill:none;stroke:none;stroke-width:1px;stroke-linecap:butt;stroke-linejoin:miter;stroke-opacity:1" id="path214" d="m 519.469,1824.682 105.27,-93.2823 22.36,17.8772 -96.18,92.2807 z m 69.18191,-141.8328 36.42809,31.1202 -125.37,98.9016 -44.039,-27.683 z" data-cv-key="X4"/><path style="fill:none;stroke:none;stroke-width:1px;stroke-linecap:butt;stroke-linejoin:miter;stroke-opacity:1" id="path216" d="m 705.23,1592.5788 46.314,37.2645 -112.65,96.824 -50.24309,-43.8181 z" data-cv-key="X2"/><path style="fill:none;stroke:none;stroke-width:1px;stroke-linecap:butt;stroke-linejoin:miter;stroke-opacity:1" id="path218" d="M 532.388,1623.6732 717.53,1501.772 c 16.24974,28.3894 33.78416,50.3554 51.361,72.1094 l -28.74,47.971 -34.921,-29.2736 -116.57909,90.2704 z" data-cv-key="Y1"/><path style="fill:none;stroke:none;stroke-width:1px;stroke-linecap:butt;stroke-linejoin:miter;stroke-opacity:1" id="path220" d="m 405.343,1746.7514 140.00167,-108.6931 c 0,0 44.5089,48.1584 43.30624,44.7909 L 455.67,1785.188 c -21.1823,-12.0778 -37.26567,-25.0053 -50.327,-38.4366 z" data-cv-key="Y3"/><path style="fill:none;stroke:none;stroke-width:1px;stroke-linecap:butt;stroke-linejoin:miter;stroke-opacity:1" id="path222" d="M 481.39241,1556.274 520.96,1609.6328 712.49,1498.8732 684.57,1449.048 Z" data-cv-key="Y2"/><path style="fill:none;stroke:none;stroke-width:1px;stroke-linecap:butt;stroke-linejoin:miter;stroke-opacity:1" id="path224" d="m 446.22,1497.0082 213.93,-104.6042 24.42,56.644 -203.17759,107.226 z" data-cv-key="Y5"/><path style="fill:none;stroke:none;stroke-width:1px;stroke-linecap:butt;stroke-linejoin:miter;stroke-opacity:1" id="path226" d="M 277.153,1617.019 457.93634,1516.9205 481.39241,1556.274 305.6,1649.85 Z" data-cv-key="Y7"/><path style="fill:none;stroke:none;stroke-width:1px;stroke-linecap:butt;stroke-linejoin:miter;stroke-opacity:1" id="path228" d="m 403.10896,1405.8071 231.7877,-74.3224 20.833,56.2251 -216.60166,92.6884 z" data-cv-key="Y6"/><path style="fill:none;stroke:none;stroke-width:1px;stroke-linecap:butt;stroke-linejoin:miter;stroke-opacity:1" id="path230" d="m 502.883,1610.4138 18.52,24.843 -131.98,98.5586 -35.39,-31.1022 z m 4.824,-18.9571 -171.37,95.7039 -30.737,-37.3106 175.79241,-93.576 z" data-cv-key="Y4"/><path style="fill:none;stroke:none;stroke-width:1px;stroke-linecap:butt;stroke-linejoin:miter;stroke-opacity:1" id="path232" d="m 436.018,1509.7776 -172.82,89.7778 -26.98,-37.828 182.73,-85.456 z M 403.10896,1405.8071 188.33,1476.488 l 34.818,66.9134 204.84,-84.9091 z" data-cv-key="Y8"/><path style="fill:none;stroke:none;stroke-width:1px;stroke-linecap:butt;stroke-linejoin:miter;stroke-opacity:1" id="path234" d="m 185.78833,1476.9963 -29.47533,-69.7953 227.47,-53.6746 -6.29467,-18.3004 237.17167,-65.322 20.23666,61.5807 z" data-cv-key="Z1"/><path style="fill:none;stroke:none;stroke-width:1px;stroke-linecap:butt;stroke-linejoin:miter;stroke-opacity:1" id="path236" d="m 141.295,1352.8796 11.813,40.4936 210.93,-51.5088 -8.163,-32.0656 z m -17.965,-70.2356 231.24,-41.3727 10.76,51.893 -230.06,39.1157 z" data-cv-key="Z2"/><path style="fill:none;stroke:none;stroke-width:1px;stroke-linecap:butt;stroke-linejoin:miter;stroke-opacity:1" id="path238" d="m 107.611,1167.6988 217.44,-19.1982 3.32,32.732 -217.28,27.9496 z m 8.41,63.945 230.09,-37.1518 8.459,46.7793 -231.24,41.3727 z" data-cv-key="Z3"/><path style="fill:none;stroke:none;stroke-width:1px;stroke-linecap:butt;stroke-linejoin:miter;stroke-opacity:1" id="path240" d="m 109.01,1093.896 477.56,-22.834 4.468,61.7625 -249.11,22.1676 -1.797,-20.3232 -233.35,11.9305 z" data-cv-key="Z4"/><path style="fill:none;stroke:none;stroke-width:1px;stroke-linecap:butt;stroke-linejoin:miter;stroke-opacity:1" id="path242" d="m 343.651,1171.8932 2.46,22.5988 8.459,46.7793 10.76,51.893 8.953,24.8038 191.538,-42.8201 -22.14167,-129.7571 z" data-cv-key="LOGE"/><path style="fill:none;stroke:none;stroke-width:1px;stroke-linecap:butt;stroke-linejoin:miter;stroke-opacity:1" id="path244" d="m 339.025,1009.4092 244.605,-10.1812 2.94,71.834 -250.05281,11.4446 z" data-cv-key="A1"/><path style="fill:none;stroke:none;stroke-width:1px;stroke-linecap:butt;stroke-linejoin:miter;stroke-opacity:1" id="path246" d="m 120.917,981.4067 202.77,2.5284 -1.36,33.2739 -209.22,6.2172 7.81,-42.0195 m -8.22,64.8652 225.68,-14.1365 -1.85981,50.3712 -227.50719,11.3894 3.687,-47.6241" data-cv-key="A3"/><path style="fill:none;stroke:none;stroke-width:1px;stroke-linecap:butt;stroke-linejoin:miter;stroke-opacity:1" id="path248" d="m 139.33,910.9986 207.35387,14.43279 -5.09687,47.91677 -217.3,-13.3182 z" data-cv-key="A4"/><path style="fill:none;stroke:none;stroke-width:1px;stroke-linecap:butt;stroke-linejoin:miter;stroke-opacity:1" id="path250" d="m 346.68387,925.43139 239.68447,15.86489 -2.46534,52.84748 -242.91,-3.95528 z" data-cv-key="A2"/><path style="fill:none;stroke:none;stroke-width:1px;stroke-linecap:butt;stroke-linejoin:miter;stroke-opacity:1" id="path252" d="M 157.424,846.93992 357.474,872.9844 346.68387,925.43139 139.33,910.9986 Z m 7.94,-20.50748 177.59,29.988 10.094,-31.16694 -173.54,-30.67106 z" data-cv-key="B3"/><path style="fill:none;stroke:none;stroke-width:1px;stroke-linecap:butt;stroke-linejoin:miter;stroke-opacity:1" id="path254" d="m 362.054,853.34716 226.72,30.67204 -2.40566,57.27708 -239.68447,-15.86489 z" data-cv-key="B1"/><path style="fill:none;stroke:none;stroke-width:1px;stroke-linecap:butt;stroke-linejoin:miter;stroke-opacity:1" id="path256" d="M 389.89227,770.38949 522.65,806.21406 537.637,774.19158 601.551,817.81138 589.6,878.9918 368.269,834.00784 Z" data-cv-key="B2"/><path style="fill:none;stroke:none;stroke-width:1px;stroke-linecap:butt;stroke-linejoin:miter;stroke-opacity:1" id="path258" d="m 218.8,723.064 171.09227,47.32549 -16.08593,46.71335 -185.36334,-43.855 z" data-cv-key="B4"/><path style="fill:none;stroke:none;stroke-width:1px;stroke-linecap:butt;stroke-linejoin:miter;stroke-opacity:1" id="path260" d="m 418.728,702.14198 134.05,39.50576 -30.128,64.56632 -132.75773,-35.82457 z" data-cv-key="C1"/><path style="fill:none;stroke:none;stroke-width:1px;stroke-linecap:butt;stroke-linejoin:miter;stroke-opacity:1" id="path262" d="m 285.474,628.44598 130.52,46.7754 -14.606,27.195 -140.27,-44.5214 z m -34.756,48.4512 161.08334,42.973 -21.90907,50.51931 L 218.8,723.064 Z" data-cv-key="C3"/><path style="fill:none;stroke:none;stroke-width:1px;stroke-linecap:butt;stroke-linejoin:miter;stroke-opacity:1" id="path264" d="m 340.27,568.9296 125.36405,57.60133 -29.09705,42.88885 -137.77,-56.3304 z" data-cv-key="C4"/><path style="fill:none;stroke:none;stroke-width:1px;stroke-linecap:butt;stroke-linejoin:miter;stroke-opacity:1" id="path266" d="M 465.63405,626.53093 581.78,679.5324 554.93,734.5594 427.854,683.38478 Z" data-cv-key="C2"/><path style="fill:none;stroke:none;stroke-width:1px;stroke-linecap:butt;stroke-linejoin:miter;stroke-opacity:1" id="path268" d="m 423.411,493.87532 81.96,56.8792 -17.88,21.54334 -89.08,-59.44974 z m -42.73,33.565 111.695,63.32058 -26.74195,35.77003 L 340.27,568.9296 Z" data-cv-key="D3"/><path style="fill:none;stroke:none;stroke-width:1px;stroke-linecap:butt;stroke-linejoin:miter;stroke-opacity:1" id="path270" d="M 502.207,577.7741 666.297,685.4761 640.47,727.5524 567.688,707.53884 581.78,679.5324 465.63405,626.53093 Z" data-cv-key="D1"/><path style="fill:none;stroke:none;stroke-width:1px;stroke-linecap:butt;stroke-linejoin:miter;stroke-opacity:1" id="path272" d="m 496.51,443.9992 68.14,66.1402 -38.424,40.57171 -85.815,-68.38019 z" data-cv-key="D4"/><path style="fill:none;stroke:none;stroke-width:1px;stroke-linecap:butt;stroke-linejoin:miter;stroke-opacity:1" id="path274" d="m 564.65,510.1394 139.66,133.917 -33.489,34.57538 -155.55,-116.0418 z" data-cv-key="D2"/><path style="fill:none;stroke:none;stroke-width:1px;stroke-linecap:butt;stroke-linejoin:miter;stroke-opacity:1" id="path276" d="M 557.87,407.1904 744.12833,610.13313 704.31,644.0564 496.51,443.9992 Z" data-cv-key="E1"/><path style="fill:none;stroke:none;stroke-width:1px;stroke-linecap:butt;stroke-linejoin:miter;stroke-opacity:1" id="path278" d="M 574.82,399.46506 746.67,609.11646 789.39,582.1204 651.19,367.5886 Z" data-cv-key="E2"/><path style="fill:none;stroke:none;stroke-width:1px;stroke-linecap:butt;stroke-linejoin:miter;stroke-opacity:1" id="path280" d="m 651.19,367.5886 77.8,-26.2248 105.63,222.411 -45.23,18.3456 z" data-cv-key="F1"/><path style="fill:none;stroke:none;stroke-width:1px;stroke-linecap:butt;stroke-linejoin:miter;stroke-opacity:1" id="path282" d="m 749.75,337.36246 68.41,-9.85586 65.987,220.7058 -45.44533,14.16312 z" data-cv-key="F2"/><path style="fill:none;stroke:none;stroke-width:1px;stroke-linecap:butt;stroke-linejoin:miter;stroke-opacity:1" id="path284" d="m 890.95,320.1174 43.14,222.411 -49.943,5.684 -65.987,-220.7058 z" data-cv-key="G1"/><path style="fill:none;stroke:none;stroke-width:1px;stroke-linecap:butt;stroke-linejoin:miter;stroke-opacity:1" id="path286" d="m 918.082,319.86946 69.998,3.09974 -10.23,219.716 -39.17,0.47726 z" data-cv-key="G2"/><path style="fill:none;stroke:none;stroke-width:1px;stroke-linecap:butt;stroke-linejoin:miter;stroke-opacity:1" id="path288" d="m 988.08,322.9692 70.61,10.3978 -25.393,217.9912 -55.447,-8.673 z" data-cv-key="H1"/><path style="fill:none;stroke:none;stroke-width:1px;stroke-linecap:butt;stroke-linejoin:miter;stroke-opacity:1" id="path290" d="m 1086.725,338.42086 73.865,21.54334 -84.402,202.5954 -38.301,-10.56734 z" data-cv-key="H2"/><path style="fill:none;stroke:none;stroke-width:1px;stroke-linecap:butt;stroke-linejoin:miter;stroke-opacity:1" id="path292" d="m 1160.59,359.9642 62.57,25.7152 -93.47,202.4778 -53.502,-25.5976 z" data-cv-key="I1"/><path style="fill:none;stroke:none;stroke-width:1px;stroke-linecap:butt;stroke-linejoin:miter;stroke-opacity:1" id="path294" d="m 1223.16,385.6794 87.83,42.1106 -131,196.0784 -50.3,-35.7112 z" data-cv-key="I2"/></g><g id="layer2" style="display:inline"><path style="fill:none;stroke:#000;stroke-width:4.03900003" id="path6076" d="m 786.46,2178 c 0,0 -18.827,-2.84 -21.784,-12.695 -7.956,-26.514 -32.75,-48.972 -56.863,-60.04 -24.114,-11.068 -30.378,-9.524 -58.236,-13.492 -12.326,1.262 -45.598,1.77 -62.45,-26.45 -42.166,-79.986 -147.84,-90.94 -165.03,-89.755 0,0 -15.928,-3.04 -15.048,-12.557 -6.8,-75.58 -92.67,-127.64 -127.63,-150.69 -6.11,-4.19 -16.71,-17.72 -19.76,-22.65 -16.54,-62.53 -64.83,-106.29 -119.29,-127.02 0,0 -14.91,-14.9 -12.19,-23.84 14.64,-48.24 -4.94,-137.98 -37,-168.39 -6.47,-10.87 -8.87,-24.18 -11.39,-35.41 -10.65,-56.59 -1.94,-136.22 -64.94,-174.6 -3.55,-13.37 -4.39,-37.27 1.22,-44.61 63.11,-82.55 0.58,-126.71 24.54,-224.57 13.95,-55.02 21.92,-105.5 -4.31,-171.52 0.89,-10.66 3.08,-24.2 13.9,-30.12 36.27,-19.85 79.46,-70.79 91.31,-148.54 11.49,-27.54 9.91,-29.77 26.6,-57.14 40.44,-23.25 66.66,-120.36 64.04,-143.76 0,0 14.87,-19.31 24.01,-20.66 C 379.75,388.62 375.07,296.79 453,275.16 c 25.746,-7.14 42.61,-18.46 47.126,-19.69 50.424,-48.09 49.8,-60.63 63.55,-93.12 5.284,-4.564 9.7,-11.65 14.38,-10.065 28.83,9.766 47.98,7.07 67.412,0.354 30.34,-4.47 115.81,-58.57 148.26,-59.76 46.24,-3.35 102.71,5.77 145.3,-49.55 8.11,-9.74 19.043,-11.38 31.03,-5.98 29.682,13.39 67.683,19.54 91.274,18.67 22.79,-0.84 38.57,-34.27 66.505,-23.59 67.9,42.19 107.35,-13.29 128.03,-19.4 -6.715,81.14 26.03,88.66 35.24,99.08 -32.087,66.8 -25.57,129.81 52.073,160.71 -46.62,1.56 -96.68,40.75 -72.96,104.34 -1030.3,101.66 -906.25,1334.1 -108.4,1447.4 -30.04,45.98 -4.425,128.16 29.013,172.6 -42.56,-8.05 -111.57,-14.04 -106.32,94.41 -87.28,-16.16 -78.18,52.47 -78.18,52.47 -93.824,-23.23 -147.63,-12.99 -219.84,33.96 h -0.068 z" transform="matrix(1,0,0,0.98,-0.01,-0.96)"/><path id="path6082" d="m 387.9,1074.33 h -9.258 l -1.46,4.185 h -5.954 l 8.506,-22.964 h 7.06 l 8.505,22.97 h -5.96 l -1.45,-4.18 z m -7.782,-4.26 h 6.29 l -3.137,-9.135 -3.15,9.136 z m 19.006,4.35 h 5.23 v -14.842 l -5.368,1.108 v -4.03 l 5.337,-1.108 h 5.63 v 18.872 h 5.23 v 4.092 h -16.06 v -4.092 z m -6.048,-89.414 h -9.26 l -1.46,4.184 h -5.953 l 8.506,-22.964 h 7.06 l 8.5,22.964 h -5.95 l -1.45,-4.184 z m -7.783,-4.26 h 6.29 l -3.137,-9.136 -3.153,9.135 z m 24.397,4.098 h 10.105 v 4.353 h -16.688 v -4.353 l 8.383,-7.398 q 1.123,-1.015 1.66,-1.984 0.54,-0.97 0.54,-2.015 0,-1.615 -1.093,-2.6 -1.076,-0.984 -2.876,-0.984 -1.38,0 -3.03,0.6 -1.64,0.584 -3.52,1.753 v -5.045 q 2,-0.66 3.96,-1 1.96,-0.35 3.83,-0.35 4.12,0 6.4,1.82 2.3,1.82 2.3,5.06 0,1.88 -0.97,3.51 -0.97,1.62 -4.07,4.34 l -4.9,4.31 z m -9.054,-71.974 q 1.4,0 2.123,-0.614 0.72,-0.615 0.72,-1.815 0,-1.18 -0.72,-1.8 -0.73,-0.63 -2.13,-0.63 h -3.28 v 4.86 h 3.27 z m 0.2,10.045 q 1.784,0 2.676,-0.754 0.908,-0.75 0.908,-2.27 0,-1.49 -0.892,-2.23 -0.893,-0.75 -2.692,-0.75 h -3.476 v 6.02 h 3.476 z m 5.506,-8.26 q 1.908,0.554 2.953,2.046 1.046,1.5 1.046,3.67 0,3.32 -2.24,4.95 -2.24,1.63 -6.83,1.63 h -9.82 v -22.96 h 8.89 q 4.79,0 6.92,1.45 2.16,1.45 2.16,4.63 0,1.68 -0.78,2.86 -0.78,1.17 -2.28,1.74 z m 9.89,8.197 h 5.23 V 908.01 l -5.367,1.107 v -4.03 l 5.337,-1.108 h 5.63 v 18.87 h 5.23 v 4.09 h -16.06 v -4.09 z m 5.618,-89.757 q 1.4,0 2.122,-0.615 0.722,-0.615 0.722,-1.815 0,-1.184 -0.722,-1.8 -0.723,-0.63 -2.123,-0.63 h -3.28 v 4.86 h 3.27 z m 0.2,10.044 q 1.783,0 2.675,-0.76 0.908,-0.76 0.908,-2.28 0,-1.5 -0.892,-2.23 -0.89,-0.76 -2.69,-0.76 h -3.47 v 6.01 h 3.48 z m 5.505,-8.26 q 1.908,0.55 2.953,2.04 1.046,1.49 1.046,3.66 0,3.32 -2.245,4.95 -2.245,1.63 -6.83,1.63 h -9.83 V 824.2 h 8.89 q 4.78,0 6.92,1.447 2.15,1.446 2.15,4.63 0,1.676 -0.79,2.86 -0.79,1.17 -2.28,1.74 z m 15.273,7.94 h 10.105 v 4.35 h -16.688 v -4.36 l 8.383,-7.4 q 1.123,-1.02 1.66,-1.99 0.54,-0.97 0.54,-2.02 0,-1.62 -1.093,-2.6 -1.076,-0.99 -2.876,-0.99 -1.39,0 -3.03,0.6 -1.65,0.58 -3.53,1.75 v -5.05 q 2,-0.66 3.95,-1 1.95,-0.36 3.83,-0.36 4.12,0 6.39,1.81 2.29,1.81 2.29,5.06 0,1.87 -0.97,3.5 -0.97,1.61 -4.08,4.33 l -4.91,4.3 z m 12.285,-67.95 q -1.63,0.84 -3.4,1.27 -1.768,0.43 -3.69,0.43 -5.738,0 -9.09,-3.2 -3.354,-3.22 -3.354,-8.71 0,-5.51 3.35,-8.71 3.35,-3.22 9.09,-3.22 1.92,0 3.69,0.43 1.77,0.43 3.4,1.28 v 4.75 q -1.65,-1.13 -3.25,-1.65 -1.6,-0.52 -3.37,-0.52 -3.17,0 -4.98,2.03 -1.81,2.03 -1.82,5.6 0,3.55 1.81,5.58 1.81,2.03 4.98,2.03 1.76,0 3.36,-0.53 1.6,-0.53 3.24,-1.65 v 4.75 z m 5.724,-2.83 h 5.23 V 757.2 l -5.37,1.11 v -4.03 l 5.34,-1.108 h 5.628 v 18.873 h 5.23 v 4.09 h -16.058 v -4.09 z M 497,699.42 q -1.63,0.85 -3.4,1.28 -1.77,0.43 -3.692,0.43 -5.737,0 -9.09,-3.2 -3.353,-3.212 -3.353,-8.703 0,-5.51 3.353,-8.71 3.353,-3.22 9.09,-3.22 1.923,0 3.692,0.43 1.77,0.43 3.4,1.277 v 4.752 q -1.647,-1.125 -3.246,-1.647 -1.6,-0.53 -3.37,-0.53 -3.167,0 -4.982,2.03 -1.815,2.03 -1.815,5.6 0,3.55 1.815,5.58 1.815,2.03 4.983,2.03 1.77,0 3.37,-0.52 1.598,-0.53 3.244,-1.65 v 4.75 z m 11.105,-3.082 h 10.105 v 4.354 h -16.688 v -4.353 l 8.383,-7.4 q 1.123,-1.02 1.66,-1.99 0.54,-0.97 0.54,-2.02 0,-1.62 -1.093,-2.6 -1.076,-0.99 -2.876,-0.99 -1.384,0 -3.03,0.6 -1.646,0.58 -3.522,1.75 v -5.05 q 2,-0.66 3.953,-1 1.953,-0.36 3.83,-0.36 4.122,0 6.398,1.81 2.292,1.82 2.292,5.06 0,1.88 -0.97,3.51 -0.968,1.61 -4.075,4.34 l -4.907,4.3 z m 8.595,-64.394 v 14.012 h 2.123 q 3.63,0 5.537,-1.8 1.922,-1.8 1.922,-5.23 0,-3.413 -1.907,-5.198 -1.907,-1.79 -5.552,-1.79 H 516.7 Z m -5.922,-4.476 h 6.245 q 5.23,0 7.783,0.75 2.568,0.74 4.4,2.52 1.614,1.55 2.398,3.58 0.784,2.03 0.784,4.6 0,2.6 -0.784,4.645 -0.784,2.03 -2.4,3.584 -1.845,1.782 -4.43,2.535 -2.583,0.74 -7.75,0.74 h -6.246 V 627.46 Z m 26.982,18.87 h 5.23 V 631.5 l -5.368,1.11 v -4.03 l 5.337,-1.11 h 5.62 v 18.874 h 5.23 v 4.09 h -16.05 v -4.09 z m 25.74,-74.84 v 14.01 h 2.123 q 3.63,0 5.537,-1.8 1.922,-1.8 1.922,-5.23 0,-3.414 -1.907,-5.198 -1.907,-1.784 -5.552,-1.784 H 563.5 Z m -5.922,-4.478 h 6.245 q 5.23,0 7.783,0.754 2.568,0.732 4.4,2.52 1.614,1.55 2.398,3.58 0.785,2.03 0.785,4.6 0,2.6 -0.79,4.644 -0.79,2.03 -2.4,3.584 -1.85,1.784 -4.43,2.537 -2.59,0.74 -7.75,0.74 h -6.25 v -22.96 z m 32.292,18.615 h 10.105 v 4.352 h -16.688 v -4.356 l 8.383,-7.4 q 1.123,-1.01 1.66,-1.98 0.54,-0.97 0.54,-2.01 0,-1.61 -1.093,-2.6 -1.076,-0.98 -2.876,-0.98 -1.38,0 -3.03,0.6 -1.64,0.58 -3.52,1.75 v -5.04 q 2,-0.66 3.96,-1 1.96,-0.35 3.83,-0.35 4.12,0 6.4,1.82 2.3,1.82 2.3,5.06 0,1.88 -0.97,3.51 -0.97,1.62 -4.07,4.34 l -4.9,4.31 z M 552.16,471.532 h 15.98 v 4.476 h -10.06 v 4.277 h 9.46 v 4.474 h -9.46 v 5.26 h 10.4 v 4.48 h -16.32 v -22.96 z m 22.32,18.872 h 5.23 v -14.84 l -5.368,1.107 v -4.03 l 5.337,-1.1 h 5.62 v 18.87 h 5.23 v 4.09 h -16.05 v -4.09 z m 56.79,-60.444 h 15.98 v 4.476 h -10.06 v 4.275 h 9.46 v 4.47 h -9.46 v 5.26 h 10.4 v 4.48 h -16.32 v -22.96 z m 27.72,18.613 h 10.105 v 4.35 h -16.688 v -4.352 l 8.383,-7.4 q 1.123,-1.02 1.66,-1.98 0.54,-0.97 0.54,-2.01 0,-1.61 -1.093,-2.6 -1.076,-0.98 -2.876,-0.98 -1.38,0 -3.03,0.6 -1.64,0.59 -3.52,1.76 v -5.04 q 2,-0.66 3.96,-1 1.96,-0.35 3.83,-0.35 4.12,0 6.4,1.82 2.3,1.82 2.3,5.06 0,1.88 -0.97,3.51 -0.97,1.62 -4.07,4.34 l -4.91,4.31 z m 37.17,-43.86 h 15.98 v 4.477 h -10.06 v 4.276 h 9.46 v 4.474 h -9.46 v 9.73 h -5.92 v -22.96 z m 22.32,18.874 h 5.23 v -14.84 l -5.368,1.11 v -4.03 l 5.337,-1.11 h 5.62 v 18.87 h 5.23 v 4.09 h -16.05 v -4.09 z m 62.1,-38.505 h 15.98 v 4.476 H 786.5 v 4.27 h 9.46 v 4.476 h -9.46 v 9.735 h -5.92 v -22.96 z m 27.72,18.603 h 10.105 v 4.353 h -16.688 v -4.36 l 8.383,-7.396 q 1.123,-1.014 1.66,-1.983 0.54,-0.97 0.54,-2.02 0,-1.62 -1.093,-2.6 -1.076,-0.99 -2.876,-0.99 -1.38,0 -3.03,0.6 -1.64,0.58 -3.52,1.75 V 386 q 2,-0.66 3.96,-1 1.96,-0.353 3.83,-0.353 4.12,0 6.4,1.817 2.3,1.815 2.3,5.06 0,1.877 -0.97,3.507 -0.97,1.62 -4.07,4.34 l -4.9,4.31 z m 60.57,-5.77 q -2.215,1.08 -4.6,1.616 -2.383,0.54 -4.92,0.54 -5.738,0 -9.09,-3.2 -3.354,-3.21 -3.354,-8.7 0,-5.55 3.415,-8.73 3.42,-3.19 9.36,-3.19 2.29,0 4.39,0.43 2.11,0.43 3.97,1.28 v 4.75 q -1.92,-1.09 -3.83,-1.63 -1.89,-0.53 -3.79,-0.53 -3.54,0 -5.46,1.99 -1.91,1.97 -1.91,5.65 0,3.65 1.85,5.63 1.85,1.98 5.25,1.99 0.93,0 1.71,-0.11 0.8,-0.12 1.43,-0.37 v -4.46 h -3.61 v -3.97 h 9.23 v 11.05 z m 6.03,-2.376 h 5.23 V 380.7 l -5.368,1.106 v -4.03 l 5.337,-1.108 h 5.62 v 18.872 h 5.23 v 4.092 H 874.9 v -4.09 z m 80.01,-0.43 q -2.215,1.07 -4.6,1.61 -2.383,0.54 -4.92,0.54 -5.738,0 -9.09,-3.2 -3.354,-3.22 -3.354,-8.71 0,-5.56 3.415,-8.74 3.415,-3.18 9.36,-3.19 2.29,0 4.39,0.43 2.11,0.43 3.97,1.27 v 4.75 q -1.92,-1.1 -3.83,-1.63 -1.89,-0.54 -3.79,-0.54 -3.54,0 -5.46,1.98 -1.91,1.97 -1.91,5.64 0,3.64 1.85,5.63 1.85,1.99 5.25,1.98 0.93,0 1.71,-0.11 0.8,-0.12 1.43,-0.37 V 388 h -3.62 v -3.962 h 9.23 v 11.05 z m 11.34,-2.65 h 10.105 v 4.35 h -16.688 v -4.36 l 8.383,-7.4 q 1.123,-1.02 1.66,-1.99 0.54,-0.97 0.54,-2.02 0,-1.62 -1.093,-2.6 -1.076,-0.99 -2.876,-0.99 -1.38,0 -3.03,0.6 -1.64,0.59 -3.52,1.76 v -5.04 q 2,-0.66 3.96,-1 1.96,-0.36 3.83,-0.36 4.12,0 6.4,1.81 2.3,1.82 2.3,5.06 0,1.88 -0.97,3.51 -0.97,1.61 -4.07,4.34 l -4.9,4.3 z m 31.59,-13.01 h 5.922 v 8.75 h 8.736 v -8.76 h 5.922 v 22.96 h -5.922 v -9.73 h -8.736 v 9.73 h -5.922 v -22.96 z m 27.18,18.87 h 5.23 V 383.5 l -5.368,1.11 v -4.03 l 5.336,-1.11 h 5.63 v 18.874 h 5.23 v 4.09 h -16.058 v -4.09 z m 62.19,-4.85 h 5.92 v 8.75 h 8.738 v -8.75 h 5.922 v 22.96 h -5.922 v -9.73 h -8.737 v 9.73 h -5.92 V 393.5 Z m 32.49,18.61 h 10.105 v 4.35 h -16.688 v -4.35 l 8.383,-7.4 q 1.123,-1.02 1.66,-1.98 0.54,-0.97 0.54,-2.02 0,-1.62 -1.093,-2.6 -1.076,-0.99 -2.876,-0.99 -1.38,0 -3.03,0.6 -1.64,0.58 -3.52,1.75 v -5.04 q 2,-0.66 3.96,-1 1.96,-0.35 3.83,-0.35 4.12,0 6.4,1.81 2.3,1.81 2.3,5.06 0,1.88 -0.97,3.51 -0.97,1.62 -4.07,4.34 l -4.9,4.31 z m 37.17,3.82 h 5.922 v 22.97 h -5.922 v -22.96 z m 12.6,18.87 h 5.23 v -14.83 l -5.368,1.1 v -4.03 l 5.337,-1.11 h 5.62 v 18.87 h 5.23 v 4.09 h -16.06 v -4.09 z m 59.31,11.98 h 5.922 v 22.96 l -5.922,0.01 v -22.96 z m 17.91,18.61 h 10.105 v 4.35 h -16.688 v -4.34 l 8.383,-7.4 q 1.123,-1.02 1.66,-1.99 0.54,-0.97 0.54,-2.02 0,-1.62 -1.093,-2.6 -1.076,-0.99 -2.876,-0.99 -1.38,0 -3.03,0.6 -1.64,0.58 -3.52,1.75 v -5.05 q 2,-0.66 3.96,-1 1.96,-0.36 3.83,-0.36 4.12,0 6.4,1.81 2.3,1.81 2.3,5.06 0,1.88 -0.97,3.51 -0.97,1.61 -4.07,4.33 l -4.9,4.3 z m 56.79,17.85 h 5.922 v 20.73 q 0,4.29 -2.338,6.41 -2.323,2.12 -7.045,2.12 h -1.2 V 508 h 0.92 q 1.84,0 2.78,-1.03 0.95,-1.03 0.95,-3.03 v -20.72 z m 12.6,18.87 h 5.23 v -14.84 l -5.368,1.1 v -4.03 l 5.337,-1.11 h 5.62 v 18.87 h 5.23 v 4.09 h -16.06 v -4.09 z m 59.85,34.52 h 5.922 v 20.73 q 0,4.29 -2.338,6.41 -2.323,2.12 -7.045,2.12 h -1.2 v -4.48 h 0.92 q 1.84,0 2.78,-1.03 0.95,-1.03 0.95,-3.03 V 536.6 Z m 17.91,18.61 h 10.105 v 4.35 h -16.688 v -4.36 l 8.383,-7.4 q 1.123,-1.02 1.66,-1.99 0.54,-0.97 0.54,-2.02 0,-1.62 -1.093,-2.6 -1.076,-0.99 -2.876,-0.99 -1.38,0 -3.03,0.6 -1.64,0.58 -3.52,1.75 v -5.05 q 2,-0.66 3.96,-1 1.96,-0.35 3.83,-0.35 4.12,0 6.4,1.81 2.3,1.81 2.3,5.06 0,1.88 -0.97,3.51 -0.97,1.61 -4.07,4.33 l -4.9,4.31 z m 32.94,37.47 h 5.922 v 8.38 l 8.536,-8.39 h 6.875 l -11.06,10.88 12.198,12.09 h -7.41 l -9.13,-9.04 v 9.04 h -5.92 V 592.7 Z m 25.2,18.87 h 5.23 v -14.82 l -5.368,1.11 v -4.03 l 5.337,-1.11 h 5.62 v 18.88 h 5.23 v 4.09 h -16.06 v -4.09 z m 34.11,54.05 h 5.922 v 8.4 l 8.536,-8.38 h 6.875 l -11.06,10.88 12.198,12.09 h -7.41 l -9.13,-9.05 v 9.04 h -5.92 v -22.96 z m 30.6,18.61 h 10.105 v 4.35 h -16.688 v -4.35 l 8.383,-7.4 q 1.123,-1.01 1.66,-1.98 0.54,-0.97 0.54,-2.02 0,-1.61 -1.093,-2.6 -1.076,-0.98 -2.876,-0.98 -1.38,0 -3.03,0.6 -1.64,0.58 -3.52,1.75 v -5.04 q 2,-0.66 3.96,-1 1.96,-0.36 3.83,-0.36 4.12,0 6.4,1.81 2.3,1.81 2.3,5.06 0,1.88 -0.97,3.51 -0.97,1.61 -4.07,4.33 l -4.9,4.31 z m 11.88,40.28 h 5.922 V 743 h 10.397 v 4.48 h -16.32 v -22.96 z m 20.88,18.87 h 5.23 v -14.84 l -5.368,1.1 v -4.03 l 5.337,-1.11 h 5.62 v 18.88 h 5.23 v 4.09 h -16.06 v -4.09 z m 20.07,68.07 h 5.922 V 830 h 10.397 v 4.477 h -16.32 v -22.964 z m 26.28,18.61 h 10.105 v 4.36 h -16.688 v -4.36 l 8.383,-7.4 q 1.123,-1.02 1.66,-1.99 0.54,-0.97 0.54,-2.02 0,-1.62 -1.093,-2.6 -1.076,-0.99 -2.876,-0.99 -1.38,0 -3.03,0.6 -1.64,0.58 -3.52,1.75 v -5.04 q 2,-0.66 3.96,-1 1.96,-0.35 3.83,-0.35 4.12,0 6.4,1.81 2.3,1.81 2.3,5.06 0,1.87 -0.97,3.5 -0.97,1.62 -4.07,4.34 l -4.9,4.31 z m -4.95,51.5 h 7.537 l 5.23,12.29 5.26,-12.29 h 7.52 v 22.97 h -5.598 v -16.78 l -5.3,12.38 h -3.76 l -5.29,-12.38 v 16.79 h -5.62 V 881.6 Z m 32.22,18.88 h 5.23 V 885.6 l -5.368,1.11 v -4.03 l 5.337,-1.1 h 5.62 v 18.88 h 5.23 v 4.09 h -16.06 v -4.09 z m -5.22,73.68 h 7.537 l 5.23,12.29 5.26,-12.29 h 7.52 v 22.96 h -5.598 V 980.3 l -5.3,12.38 h -3.76 l -5.29,-12.38 v 16.79 h -5.62 v -22.95 z m 37.62,18.61 h 10.105 v 4.35 h -16.688 v -4.35 l 8.383,-7.4 q 1.123,-1.02 1.66,-1.99 0.54,-0.97 0.54,-2.01 0,-1.62 -1.093,-2.6 -1.076,-0.99 -2.876,-0.99 -1.38,0 -3.03,0.6 -1.64,0.58 -3.52,1.75 v -5.05 q 2,-0.66 3.96,-1 1.96,-0.36 3.83,-0.36 4.12,0 6.4,1.81 2.3,1.81 2.3,5.06 0,1.88 -0.97,3.51 -0.97,1.61 -4.07,4.34 l -4.9,4.31 z m -24.57,51.5 h 6.614 l 8.352,15.75 v -15.75 h 5.614 v 22.96 l -6.614,0.01 -8.352,-15.75 v 15.75 h -5.614 v -22.95 z m 27.18,18.87 h 5.23 v -14.84 l -5.368,1.11 v -4.03 l 5.337,-1.11 h 5.62 v 18.87 h 5.23 v 4.09 h -16.06 v -4.09 z m -16.38,70.93 h 6.614 l 8.352,15.75 v -15.75 h 5.614 V 1157 h -6.614 l -8.352,-15.75 V 1157 h -5.614 v -22.95 z m 32.58,18.54 h 10.105 v 4.35 h -16.688 v -4.35 l 8.383,-7.4 q 1.123,-1.02 1.66,-1.99 0.54,-0.97 0.54,-2.02 0,-1.62 -1.093,-2.6 -1.076,-0.99 -2.876,-0.99 -1.38,0 -3.03,0.6 -1.64,0.58 -3.52,1.75 v -5.05 q 2,-0.66 3.96,-1 1.96,-0.35 3.83,-0.35 4.12,0 6.4,1.81 2.3,1.81 2.3,5.06 0,1.87 -0.97,3.5 -0.97,1.62 -4.07,4.34 l -4.9,4.31 z m -17.46,58.59 q -2.707,0 -4.2,2 -1.49,2 -1.49,5.63 0,3.61 1.49,5.61 1.493,2 4.2,2 2.722,0 4.214,-2 1.492,-2 1.492,-5.61 0,-3.63 -1.492,-5.63 -1.492,-2 -4.214,-2 z m 0,-4.29 q 5.537,0 8.675,3.16 3.138,3.17 3.138,8.75 0,5.56 -3.138,8.73 -3.138,3.17 -8.675,3.17 -5.522,0 -8.675,-3.17 -3.137,-3.17 -3.137,-8.74 0,-5.58 3.137,-8.75 3.153,-3.17 8.675,-3.17 z m 17.1,19.23 h 5.23 v -14.84 l -5.368,1.11 v -4.03 l 5.337,-1.11 h 5.62 v 18.87 h 5.23 v 4.09 h -16.06 v -4.09 z m -25.2,80.19 q -2.707,0 -4.2,2 -1.49,2 -1.49,5.63 0,3.61 1.49,5.61 1.493,2 4.2,2 2.722,0 4.214,-2 1.492,-2 1.492,-5.61 0,-3.63 -1.492,-5.63 -1.492,-2 -4.214,-2 z m 0,-4.29 q 5.537,0 8.675,3.16 3.138,3.17 3.138,8.75 0,5.56 -3.138,8.73 -3.138,3.17 -8.675,3.17 -5.522,0 -8.675,-3.17 -3.137,-3.17 -3.137,-8.74 0,-5.58 3.137,-8.75 3.153,-3.17 8.675,-3.17 z m 22.5,19.05 h 10.105 v 4.35 h -16.688 v -4.35 l 8.383,-7.4 q 1.123,-1.02 1.66,-1.99 0.54,-0.97 0.54,-2.02 0,-1.62 -1.093,-2.6 -1.076,-0.99 -2.876,-0.99 -1.38,0 -3.03,0.6 -1.64,0.58 -3.52,1.75 v -5.05 q 2,-0.66 3.96,-1 1.96,-0.35 3.83,-0.35 4.12,0 6.4,1.81 2.3,1.81 2.3,5.06 0,1.87 -0.97,3.5 -0.97,1.62 -4.07,4.34 l -4.9,4.31 z m -46.98,56.79 h 9.828 q 4.384,0 6.72,1.95 2.355,1.94 2.355,5.54 0,3.61 -2.354,5.56 -2.34,1.94 -6.73,1.94 h -3.91 v 7.96 h -5.92 v -22.96 z m 5.922,4.29 v 6.41 h 3.276 q 1.722,0 2.66,-0.83 0.94,-0.85 0.94,-2.39 0,-1.54 -0.94,-2.37 -0.938,-0.83 -2.66,-0.83 h -3.276 z m 17.928,14.52 h 5.23 v -14.84 l -5.368,1.11 v -4.03 l 5.337,-1.11 h 5.62 v 18.87 h 5.23 v 4.09 h -16.06 v -4.09 z m -49.5,68.4 h 9.828 q 4.384,0 6.72,1.95 2.355,1.94 2.355,5.54 0,3.61 -2.354,5.56 -2.34,1.94 -6.73,1.94 h -3.91 v 7.97 h -5.92 v -22.96 z m 5.922,4.29 v 6.41 h 3.276 q 1.722,0 2.66,-0.83 0.94,-0.85 0.94,-2.39 0,-1.54 -0.94,-2.37 -0.938,-0.83 -2.66,-0.83 h -3.276 z m 23.328,14.34 h 10.105 v 4.35 h -16.688 v -4.35 l 8.383,-7.4 q 1.123,-1.02 1.66,-1.99 0.54,-0.97 0.54,-2.02 0,-1.62 -1.093,-2.6 -1.076,-0.99 -2.876,-0.99 -1.38,0 -3.03,0.6 -1.64,0.58 -3.52,1.75 V 1466 q 2,-0.66 3.96,-1 1.96,-0.35 3.83,-0.35 4.12,0 6.4,1.81 2.3,1.81 2.3,5.06 0,1.87 -0.97,3.5 -0.97,1.616 -4.07,4.338 l -4.9,4.31 z m -53.73,72.18 h -0.46 q -5.677,0 -8.83,-3.14 -3.153,-3.14 -3.153,-8.74 0,-5.59 3.138,-8.75 3.153,-3.17 8.674,-3.17 5.58,0 8.69,3.14 3.12,3.14 3.12,8.78 0,3.87 -1.66,6.67 -1.65,2.8 -4.76,4.22 l 4.63,5.17 h -5.65 l -3.76,-4.18 z m -0.63,-19.51 q -2.708,0 -4.2,2 -1.492,2 -1.492,5.63 0,3.69 1.462,5.66 1.46,1.95 4.23,1.95 2.722,0 4.214,-2 1.492,-2 1.492,-5.62 0,-3.63 -1.492,-5.63 -1.492,-2 -4.215,-2 z m 17.1,15 h 5.23 v -14.84 l -5.368,1.11 v -4.03 l 5.337,-1.11 h 5.62 v 18.87 h 5.23 v 4.09 h -16.06 v -4.09 z m -64.26,83.88 h -0.46 q -5.677,0 -8.83,-3.14 -3.153,-3.14 -3.153,-8.74 0,-5.59 3.138,-8.75 3.153,-3.17 8.674,-3.17 5.58,0 8.69,3.13 3.12,3.14 3.12,8.78 0,3.88 -1.66,6.67 -1.65,2.8 -4.76,4.22 l 4.63,5.17 h -5.65 l -3.76,-4.185 z m -0.63,-19.51 q -2.708,0 -4.2,2 -1.492,2 -1.492,5.63 0,3.69 1.462,5.66 1.46,1.95 4.23,1.95 2.722,0 4.214,-2 1.492,-2 1.492,-5.62 0,-3.63 -1.492,-5.63 -1.492,-2 -4.215,-2 z m 22.5,14.73 h 10.105 v 4.35 h -16.688 v -4.36 l 8.383,-7.4 q 1.123,-1.01 1.66,-1.98 0.54,-0.97 0.54,-2.01 0,-1.62 -1.093,-2.6 -1.076,-0.99 -2.876,-0.99 -1.38,0 -3.03,0.6 -1.64,0.58 -3.52,1.75 v -5.05 q 2,-0.66 3.96,-1 1.96,-0.36 3.83,-0.36 4.12,0 6.4,1.82 2.3,1.81 2.3,5.06 0,1.87 -0.97,3.5 -0.97,1.62 -4.07,4.34 l -4.9,4.31 z m -64.35,43.11 q 1.86,0 2.66,-0.7 0.816,-0.69 0.816,-2.28 0,-1.56 -0.815,-2.24 -0.8,-0.68 -2.66,-0.68 h -2.49 v 5.89 h 2.49 z m -2.492,4.09 v 8.69 h -5.92 v -22.96 h 9.043 q 4.54,0 6.65,1.52 2.12,1.53 2.12,4.82 0,2.27 -1.1,3.73 -1.09,1.46 -3.3,2.15 1.22,0.28 2.17,1.26 0.97,0.97 1.96,2.95 l 3.22,6.52 h -6.3 l -2.8,-5.71 q -0.84,-1.72 -1.72,-2.35 -0.86,-0.63 -2.3,-0.63 h -1.67 z m 19.142,4.55 h 5.23 v -14.83 l -5.368,1.11 v -4.03 l 5.337,-1.11 h 5.62 v 18.87 h 5.23 v 4.09 h -16.06 v -4.09 z m -78.84,58.77 q 1.86,0 2.66,-0.7 0.816,-0.69 0.816,-2.28 0,-1.56 -0.815,-2.24 -0.8,-0.68 -2.66,-0.68 h -2.49 v 5.89 h 2.49 z m -2.492,4.09 v 8.69 h -5.92 v -22.96 h 9.043 q 4.54,0 6.65,1.52 2.13,1.53 2.13,4.82 0,2.27 -1.11,3.74 -1.09,1.46 -3.3,2.15 1.22,0.27 2.17,1.26 0.97,0.97 1.96,2.95 l 3.22,6.52 h -6.3 l -2.8,-5.71 q -0.84,-1.72 -1.72,-2.35 -0.86,-0.63 -2.3,-0.63 h -1.68 z m 24.542,4.37 h 10.105 v 4.35 h -16.688 v -4.36 l 8.383,-7.4 q 1.123,-1.01 1.66,-1.98 0.54,-0.97 0.54,-2.01 0,-1.62 -1.093,-2.6 -1.076,-0.99 -2.876,-0.99 -1.38,0 -3.03,0.6 -1.64,0.58 -3.52,1.75 v -5.05 q 2,-0.66 3.96,-1 1.96,-0.36 3.83,-0.36 4.12,0 6.4,1.82 2.3,1.81 2.3,5.06 0,1.87 -0.97,3.5 -0.97,1.62 -4.07,4.34 l -4.9,4.31 z m -64.53,21.96 v 4.86 q -1.892,-0.85 -3.69,-1.28 -1.8,-0.43 -3.4,-0.43 -2.123,0 -3.138,0.58 -1.015,0.59 -1.015,1.82 0,0.92 0.676,1.44 0.692,0.51 2.492,0.88 l 2.522,0.5 q 3.83,0.77 5.445,2.34 1.615,1.57 1.615,4.46 0,3.8 -2.26,5.66 -2.246,1.84 -6.876,1.84 -2.18,0 -4.38,-0.42 -2.2,-0.41 -4.4,-1.23 v -4.99 q 2.2,1.17 4.25,1.77 2.06,0.58 3.97,0.58 1.94,0 2.97,-0.65 1.03,-0.65 1.03,-1.85 0,-1.08 -0.7,-1.66 -0.69,-0.586 -2.78,-1.05 l -2.29,-0.5 q -3.44,-0.74 -5.04,-2.36 -1.58,-1.62 -1.58,-4.36 0,-3.43 2.21,-5.28 2.21,-1.844 6.37,-1.844 1.9,0 3.9,0.29 2,0.28 4.14,0.85 z m 7.47,18.18 h 5.23 v -14.84 l -5.368,1.1 v -4.03 l 5.337,-1.11 h 5.62 v 18.88 h 5.23 v 4.09 h -16.06 v -4.09 z m -75.6,27.81 v 4.86 q -1.892,-0.85 -3.69,-1.28 -1.8,-0.43 -3.4,-0.43 -2.123,0 -3.138,0.58 -1.015,0.59 -1.015,1.82 0,0.92 0.676,1.44 0.692,0.51 2.492,0.88 l 2.522,0.5 q 3.83,0.77 5.445,2.34 1.615,1.57 1.615,4.46 0,3.8 -2.26,5.66 -2.246,1.84 -6.876,1.84 -2.18,0 -4.38,-0.42 -2.2,-0.41 -4.4,-1.23 v -4.99 q 2.2,1.17 4.25,1.77 2.06,0.58 3.97,0.58 1.94,0 2.97,-0.647 1.03,-0.647 1.03,-1.85 0,-1.08 -0.7,-1.66 -0.69,-0.59 -2.78,-1.05 l -2.29,-0.508 q -3.44,-0.74 -5.04,-2.35 -1.58,-1.616 -1.58,-4.35 0,-3.43 2.21,-5.277 2.21,-1.85 6.37,-1.85 1.9,0 3.9,0.295 2,0.28 4.14,0.85 z m 12.96,17.91 h 10.105 v 4.35 h -16.688 v -4.36 l 8.383,-7.4 q 1.123,-1.01 1.66,-1.98 0.54,-0.97 0.54,-2.01 0,-1.62 -1.093,-2.6 -1.076,-0.99 -2.876,-0.99 -1.38,0 -3.03,0.6 -1.64,0.58 -3.52,1.75 v -5.05 q 2,-0.66 3.96,-1 1.96,-0.36 3.83,-0.36 4.12,0 6.4,1.82 2.3,1.81 2.3,5.06 0,1.87 -0.97,3.5 -0.97,1.62 -4.07,4.34 l -4.9,4.31 z m -92.34,17.55 h 21.164 v 4.47 h -7.613 v 18.49 h -5.92 v -18.49 h -7.63 v -4.47 z m 25.02,18.81 h 5.23 v -14.84 l -5.368,1.11 v -4.03 l 5.337,-1.11 h 5.62 v 18.87 h 5.23 v 4.09 h -16.06 v -4.09 z m -92.43,5.04 h 21.164 v 4.47 h -7.613 v 18.49 h -5.92 v -18.49 h -7.63 v -4.47 z m 30.42,18.63 h 10.105 v 4.35 h -16.688 v -4.36 l 8.383,-7.4 q 1.123,-1.01 1.66,-1.98 0.54,-0.97 0.54,-2.01 0,-1.62 -1.093,-2.6 -1.076,-0.99 -2.876,-0.99 -1.38,0 -3.03,0.6 -1.64,0.58 -3.52,1.75 v -5.05 q 2,-0.66 3.96,-1 1.96,-0.36 3.83,-0.36 4.12,0 6.4,1.82 2.3,1.81 2.3,5.06 0,1.87 -0.97,3.5 -0.97,1.62 -4.07,4.34 l -4.9,4.31 z m -102.51,2.43 h 5.922 v 13.76 q 0,2.85 0.923,4.08 0.938,1.22 3.045,1.22 2.122,0 3.045,-1.21 0.94,-1.23 0.94,-4.07 v -13.77 h 5.922 v 13.77 q 0,4.87 -2.445,7.26 -2.446,2.38 -7.46,2.38 -5,0 -7.444,-2.39 -2.444,-2.39 -2.446,-7.26 z m 26.37,18.81 h 5.23 v -14.84 l -5.368,1.11 v -4.03 l 5.337,-1.11 h 5.62 v 18.87 h 5.23 v 4.09 h -16.06 v -4.09 z m -103.23,-3.96 h 5.922 v 13.76 q 0,2.84 0.923,4.07 0.938,1.22 3.045,1.22 2.122,0 3.045,-1.22 0.94,-1.23 0.94,-4.07 v -13.77 h 5.922 v 13.76 q 0,4.87 -2.445,7.26 -2.445,2.39 -7.46,2.38 -5,0 -7.444,-2.38 -2.446,-2.38 -2.446,-7.26 v -13.76 z m 31.77,18.63 h 10.105 v 4.35 h -16.688 v -4.36 l 8.383,-7.4 q 1.123,-1.01 1.66,-1.98 0.54,-0.97 0.54,-2.01 0,-1.62 -1.093,-2.6 -1.076,-0.99 -2.876,-0.99 -1.38,0 -3.03,0.6 -1.64,0.58 -3.52,1.75 v -5.05 q 2,-0.66 3.96,-1 1.96,-0.36 3.83,-0.36 4.12,0 6.4,1.82 2.3,1.81 2.3,5.06 0,1.87 -0.97,3.5 -0.97,1.62 -4.07,4.34 l -4.9,4.31 z m -107.46,-10.44 h 5.952 l 6.09,16.95 6.077,-16.95 h 5.95 l -8.51,22.96 h -7.06 l -8.55,-22.95 z m 27.9,18.81 h 5.23 v -14.83 l -5.368,1.11 v -4.03 l 5.337,-1.11 h 5.62 v 18.87 h 5.23 v 4.09 h -16.05 v -4.09 z m -119.79,-27 h 5.952 l 6.09,16.95 6.077,-16.95 h 5.95 l -8.51,22.96 h -7.06 l -8.51,-22.97 z m 33.3,18.63 h 10.105 v 4.35 h -16.688 v -4.36 l 8.383,-7.4 q 1.123,-1.01 1.66,-1.98 0.54,-0.97 0.54,-2.01 0,-1.62 -1.093,-2.6 -1.076,-0.99 -2.876,-0.99 -1.38,0 -3.03,0.6 -1.64,0.58 -3.52,1.75 v -5.05 q 2,-0.66 3.96,-1 1.96,-0.36 3.83,-0.36 4.12,0 6.4,1.82 2.3,1.81 2.3,5.06 0,1.87 -0.97,3.5 -0.97,1.62 -4.07,4.34 l -4.9,4.31 z m -75.06,-126.9 h 5.675 l 3.97,16.68 3.936,-16.69 h 5.71 l 3.94,16.69 3.97,-16.69 h 5.63 l -5.41,22.96 h -6.83 l -4.17,-17.45 -4.12,17.45 h -6.83 l -5.46,-22.96 z m 37.53,18.9 h 5.23 v -14.84 l -5.368,1.11 v -4.03 l 5.337,-1.11 h 5.62 v 18.87 h 5.23 v 4.09 h -16.05 v -4.09 z m -108.45,-48.78 h 5.675 l 3.97,16.68 3.936,-16.69 h 5.71 l 3.94,16.69 3.97,-16.69 h 5.63 l -5.41,22.96 h -6.83 l -4.17,-17.44 -4.12,17.45 h -6.83 l -5.46,-22.96 z m 42.93,18.54 h 10.105 v 4.35 H 771.387 V 1793 l 8.383,-7.4 q 1.123,-1.01 1.66,-1.98 0.54,-0.97 0.54,-2.016 0,-1.617 -1.093,-2.6 -1.076,-0.986 -2.876,-0.986 -1.38,0 -3.03,0.6 -1.64,0.58 -3.52,1.75 v -5.046 q 2,-0.66 3.96,-1 1.96,-0.357 3.83,-0.357 4.12,0 6.4,1.815 2.3,1.81 2.3,5.06 0,1.87 -0.97,3.5 -0.97,1.618 -4.07,4.34 l -4.9,4.3 z m -70.83,-39.6 7.967,11.72 h -6.167 l -5.368,-7.85 -5.322,7.84 h -6.2 l 7.97,-11.72 -7.66,-11.25 h 6.182 l 5.03,7.4 5.014,-7.4 h 6.214 l -7.66,11.24 z m 12.33,7.56 h 5.23 v -14.84 l -5.368,1.11 v -4.03 l 5.337,-1.11 h 5.62 v 18.9 h 5.23 v 4.09 h -16.05 V 1761 Z m -78.39,-47.25 7.967,11.72 h -6.167 l -5.368,-7.85 -5.322,7.85 h -6.2 l 7.97,-11.72 -7.66,-11.25 h 6.182 l 5.03,7.4 5.014,-7.4 h 6.214 l -7.66,11.24 z m 17.73,7.38 h 10.105 v 4.35 h -16.688 v -4.36 l 8.383,-7.4 q 1.123,-1.01 1.66,-1.98 0.54,-0.97 0.54,-2.01 0,-1.62 -1.093,-2.6 -1.076,-0.99 -2.876,-0.99 -1.38,0 -3.03,0.6 -1.64,0.58 -3.52,1.75 v -5.05 q 2,-0.66 3.96,-1 1.96,-0.36 3.83,-0.36 4.12,0 6.4,1.82 2.3,1.81 2.3,5.06 0,1.87 -0.97,3.5 -0.97,1.62 -4.07,4.34 l -4.9,4.31 z m -87.84,-66.24 h 6.475 l 5.23,8.18 5.23,-8.19 h 6.49 l -8.752,13.29 v 9.68 h -5.92 v -9.68 l -8.753,-13.29 z m 26.82,18.9 h 5.23 v -14.84 l -5.368,1.11 v -4 l 5.337,-1.11 h 5.62 v 18.87 h 5.23 v 4.09 h -16.05 v -4.09 z m -74.61,-90.27 h 6.475 l 5.23,8.18 5.23,-8.19 h 6.49 l -8.752,13.29 v 9.68 h -5.92 v -9.68 l -8.753,-13.29 z m 32.22,18.63 h 10.105 v 4.35 h -16.688 v -4.36 l 8.383,-7.4 q 1.123,-1.01 1.66,-1.98 0.54,-0.97 0.54,-2.01 0,-1.62 -1.093,-2.6 -1.076,-0.99 -2.876,-0.99 -1.38,0 -3.03,0.6 -1.64,0.58 -3.52,1.75 v -5.05 q 2,-0.66 3.96,-1 1.96,-0.36 3.83,-0.36 4.12,0 6.4,1.82 2.3,1.81 2.3,5.06 0,1.87 -0.97,3.5 -0.97,1.62 -4.07,4.34 l -4.9,4.31 z m -132.642,-229.3 h 19.303 v 3.58 l -12.32,14.9 h 12.68 v 4.48 h -20.01 v -3.59 l 12.32,-14.91 h -11.97 v -4.48 z m 24.742,18.9 h 5.228 v -14.84 l -5.368,1.1 v -4.03 l 5.338,-1.11 h 5.63 v 18.87 h 5.23 v 4.09 h -16.06 v -4.09 z m -269.857,-77.04 h 19.303 v 3.58 l -12.32,14.9 H 197.3 v 4.48 h -20.01 v -3.59 l 12.32,-14.91 h -11.967 v -4.48 z m 30.132,18.63 h 10.105 v 4.35 h -16.69 v -4.36 l 8.384,-7.4 q 1.123,-1.01 1.66,-1.98 0.54,-0.97 0.54,-2.02 0,-1.617 -1.093,-2.6 -1.07,-0.986 -2.87,-0.986 -1.38,0 -3.03,0.6 -1.64,0.58 -3.52,1.75 v -5.05 q 2,-0.66 3.96,-1 1.96,-0.36 3.83,-0.36 4.12,0 6.4,1.81 2.3,1.81 2.3,5.06 0,1.87 -0.97,3.5 -0.97,1.62 -4.07,4.34 l -4.9,4.3 z m 173.457,-72.3 h 5.922 v 18.48 h 10.397 v 4.48 h -16.31 V 1261 Z m 29.438,3.87 q -2.706,0 -4.198,2 -1.492,2 -1.492,5.63 0,3.61 1.492,5.61 1.492,2 4.2,2 2.72,0 4.213,-2 1.492,-2 1.492,-5.62 0,-3.63 -1.492,-5.63 -1.492,-2 -4.214,-2 z m 0,-4.29 q 5.538,0 8.676,3.16 3.138,3.16 3.138,8.75 0,5.56 -3.138,8.73 -3.138,3.17 -8.675,3.17 -5.52,0 -8.67,-3.17 -3.13,-3.17 -3.13,-8.74 0,-5.59 3.14,-8.76 3.16,-3.17 8.68,-3.17 z m 36.92,21.66 q -2.216,1.07 -4.6,1.61 -2.384,0.54 -4.922,0.54 -5.737,0 -9.09,-3.2 -3.353,-3.22 -3.353,-8.71 0,-5.56 3.415,-8.74 3.414,-3.19 9.352,-3.19 2.29,0 4.383,0.43 2.107,0.43 3.968,1.28 v 4.75 q -1.922,-1.09 -3.83,-1.63 -1.89,-0.54 -3.798,-0.54 -3.538,0 -5.46,1.98 -1.908,1.97 -1.908,5.64 0,3.64 1.846,5.63 1.846,1.99 5.245,1.98 0.923,0 1.707,-0.11 0.8,-0.13 1.43,-0.37 v -4.46 h -3.614 v -3.97 h 9.23 v 11.04 z m 5.192,-21.24 h 15.98 v 4.47 h -10.06 v 4.27 h 9.46 v 4.473 h -9.46 v 5.26 h 10.4 v 4.474 h -16.32 V 1261 Z m -234.54,178.65 h 19.303 v 3.58 l -12.32,14.9 H 237.9 v 4.48 H 217.888 V 1459 l 12.32,-14.907 h -11.966 v -4.47 z m 24.74,18.9 h 5.23 v -14.84 l -5.37,1.1 v -4.03 l 5.34,-1.11 h 5.63 v 18.88 h 5.23 v 4.09 h -16.058 v -4.09 z M 173.53,1094.1 h -9.26 l -1.46,4.183 h -5.952 l 8.505,-22.966 h 7.06 l 8.506,22.96 h -5.96 l -1.45,-4.19 z m -7.782,-4.26 h 6.29 l -3.137,-9.137 -3.15,9.134 z m 29.994,-3.94 q 2.323,0.6 3.523,2.09 1.215,1.476 1.215,3.768 0,3.416 -2.615,5.2 -2.615,1.77 -7.63,1.77 -1.768,0 -3.552,-0.293 -1.77,-0.277 -3.507,-0.847 v -4.57 q 1.66,0.83 3.292,1.26 1.645,0.41 3.23,0.41 2.353,0 3.6,-0.82 1.26,-0.82 1.26,-2.34 0,-1.57 -1.292,-2.37 -1.277,-0.82 -3.784,-0.82 h -2.368 v -3.82 h 2.49 q 2.232,0 3.324,-0.7 1.092,-0.71 1.092,-2.14 0,-1.33 -1.062,-2.05 -1.06,-0.72 -3,-0.72 -1.43,0 -2.89,0.32 -1.462,0.32 -2.907,0.95 v -4.34 q 1.76,-0.49 3.48,-0.74 1.72,-0.25 3.39,-0.25 4.48,0 6.69,1.47 2.23,1.46 2.23,4.41 0,2.014 -1.06,3.31 -1.06,1.28 -3.13,1.8 z m -5.328,-117.01 h -9.26 l -1.46,4.183 h -5.952 l 8.505,-22.964 h 7.06 l 8.506,22.96 h -5.953 l -1.446,-4.18 z m -7.782,-4.26 h 6.29 l -3.137,-9.137 -3.153,9.136 z m 26.916,-9.646 -6.49,9.613 h 6.49 v -9.61 z m -0.984,-4.876 h 6.583 v 14.49 h 3.276 v 4.3 h -3.276 v 4.19 h -5.6 v -4.18 h -10.18 v -5.07 l 9.198,-13.7 z m -1.834,-53.71 q 1.4,0 2.124,-0.61 0.723,-0.61 0.723,-1.81 0,-1.18 -0.723,-1.8 -0.723,-0.63 -2.123,-0.63 h -3.27 v 4.86 h 3.28 z m 0.2,10.05 q 1.786,0 2.678,-0.75 0.907,-0.75 0.907,-2.27 0,-1.49 -0.892,-2.23 -0.892,-0.75 -2.692,-0.75 h -3.47 v 6.02 h 3.48 z m 5.508,-8.25 q 1.907,0.56 2.953,2.05 1.05,1.5 1.05,3.66 0,3.33 -2.24,4.96 -2.24,1.63 -6.83,1.63 h -9.83 v -22.97 h 8.89 q 4.79,0 6.92,1.45 2.16,1.44 2.16,4.63 0,1.67 -0.78,2.86 -0.78,1.17 -2.27,1.74 z m 20.87,-0.09 q 2.323,0.6 3.523,2.09 1.22,1.48 1.22,3.77 0,3.42 -2.61,5.2 -2.61,1.77 -7.63,1.77 -1.77,0 -3.55,-0.29 -1.77,-0.27 -3.5,-0.84 v -4.57 q 1.66,0.83 3.29,1.26 1.65,0.42 3.23,0.42 2.36,0 3.6,-0.82 1.26,-0.81 1.26,-2.34 0,-1.57 -1.29,-2.37 -1.27,-0.81 -3.78,-0.81 h -2.37 v -3.82 h 2.49 q 2.24,0 3.33,-0.69 1.09,-0.71 1.09,-2.14 0,-1.32 -1.06,-2.04 -1.06,-0.72 -3,-0.72 -1.43,0 -2.89,0.32 -1.46,0.32 -2.91,0.95 v -4.37 q 1.75,-0.49 3.48,-0.74 1.73,-0.25 3.39,-0.25 4.48,0 6.69,1.48 2.23,1.46 2.23,4.42 0,2.02 -1.06,3.31 -1.06,1.28 -3.14,1.8 z m 19.162,-118.56 q 1.4,0 2.122,-0.61 0.723,-0.61 0.723,-1.81 0,-1.19 -0.723,-1.8 -0.723,-0.63 -2.123,-0.63 h -3.28 v 4.86 h 3.27 z m 0.2,10.05 q 1.784,0 2.676,-0.75 0.907,-0.76 0.907,-2.28 0,-1.49 -0.892,-2.23 -0.89,-0.76 -2.69,-0.76 h -3.47 v 6.01 h 3.48 z m 5.506,-8.26 q 1.907,0.56 2.953,2.05 1.04,1.49 1.04,3.66 0,3.32 -2.25,4.95 -2.25,1.63 -6.83,1.63 h -9.83 v -22.96 h 8.89 q 4.78,0 6.92,1.44 2.15,1.45 2.15,4.63 0,1.68 -0.79,2.86 -0.79,1.17 -2.28,1.74 z m 17.792,-5.8 -6.49,9.62 h 6.49 v -9.61 z m -0.984,-4.87 h 6.583 v 14.49 h 3.276 v 4.29 h -3.276 v 4.18 h -5.6 v -4.18 h -10.18 v -5.08 l 9.198,-13.71 z m 23.88,-32.57 q -1.63,0.85 -3.4,1.28 -1.767,0.43 -3.69,0.43 -5.737,0 -9.09,-3.2 -3.353,-3.22 -3.353,-8.71 0,-5.51 3.36,-8.71 3.36,-3.22 9.09,-3.22 1.92,0 3.69,0.43 1.77,0.43 3.4,1.28 v 4.75 q -1.64,-1.127 -3.24,-1.65 -1.6,-0.52 -3.37,-0.52 -3.16,0 -4.98,2.03 -1.81,2.03 -1.81,5.6 0,3.55 1.82,5.58 1.82,2.03 4.99,2.03 1.77,0 3.37,-0.527 1.6,-0.527 3.25,-1.64 v 4.75 z m 16.704,-11.1 q 2.323,0.6 3.523,2.09 1.22,1.48 1.22,3.77 0,3.412 -2.61,5.2 -2.61,1.77 -7.63,1.77 -1.77,0 -3.55,-0.29 -1.77,-0.28 -3.5,-0.85 v -4.57 q 1.66,0.83 3.29,1.26 1.65,0.414 3.23,0.414 2.36,0 3.6,-0.816 1.26,-0.82 1.26,-2.34 0,-1.57 -1.29,-2.37 -1.27,-0.82 -3.78,-0.82 h -2.37 v -3.81 h 2.49 q 2.24,0 3.33,-0.7 1.09,-0.71 1.09,-2.14 0,-1.32 -1.06,-2.05 -1.06,-0.73 -3,-0.72 -1.43,0 -2.89,0.32 -1.46,0.32 -2.91,0.95 v -4.33 q 1.75,-0.49 3.48,-0.74 1.73,-0.25 3.39,-0.25 4.48,0 6.69,1.48 2.23,1.46 2.23,4.41 0,2.01 -1.06,3.3 -1.06,1.27 -3.14,1.8 z m 59.462,-84.88 q -1.63,0.85 -3.398,1.28 -1.77,0.43 -3.69,0.43 -5.738,0 -9.09,-3.2 -3.354,-3.216 -3.354,-8.706 0,-5.51 3.353,-8.707 3.36,-3.214 9.09,-3.214 1.93,0 3.7,0.43 1.77,0.44 3.4,1.28 v 4.75 q -1.64,-1.12 -3.24,-1.64 -1.6,-0.52 -3.37,-0.52 -3.17,0 -4.98,2.03 -1.81,2.03 -1.81,5.6 0,3.55 1.82,5.58 1.82,2.03 4.99,2.03 1.77,0 3.37,-0.52 1.6,-0.52 3.25,-1.65 v 4.76 z m 13.636,-16.83 -6.49,9.612 h 6.49 z m -0.984,-4.877 h 6.583 v 14.49 h 3.276 v 4.29 h -3.27 v 4.19 h -5.6 v -4.18 h -10.18 v -5.08 l 9.2,-13.7 z m 12.585,-38.45 v 14.01 h 2.123 q 3.63,0 5.537,-1.8 1.923,-1.8 1.923,-5.23 0,-3.41 -1.908,-5.2 -1.907,-1.78 -5.552,-1.78 z m -5.92,-4.47 h 6.243 q 5.23,0 7.783,0.76 2.57,0.74 4.4,2.52 1.614,1.56 2.398,3.59 0.79,2.03 0.79,4.6 0,2.6 -0.78,4.65 -0.78,2.03 -2.4,3.59 -1.84,1.79 -4.43,2.54 -2.58,0.74 -7.75,0.74 h -6.24 V 577.5 Z m 37.933,10.59 q 2.323,0.6 3.523,2.1 1.215,1.48 1.215,3.77 0,3.42 -2.615,5.2 -2.615,1.77 -7.63,1.77 -1.768,0 -3.552,-0.29 -1.76,-0.27 -3.5,-0.84 v -4.57 q 1.66,0.83 3.29,1.26 1.65,0.42 3.23,0.42 2.36,0 3.6,-0.81 1.26,-0.81 1.26,-2.33 0,-1.57 -1.29,-2.37 -1.27,-0.82 -3.78,-0.82 h -2.36 v -3.82 h 2.49 q 2.23,0 3.33,-0.69 1.09,-0.7 1.09,-2.13 0,-1.32 -1.06,-2.05 -1.06,-0.72 -3,-0.72 -1.43,0 -2.89,0.33 -1.46,0.32 -2.91,0.95 v -4.34 q 1.76,-0.49 3.48,-0.74 1.72,-0.25 3.38,-0.25 4.48,0 6.69,1.48 2.23,1.46 2.23,4.41 0,2.02 -1.06,3.31 -1.06,1.28 -3.14,1.8 z m 62.874,-86.3 v 14.01 h 2.123 q 3.63,0 5.537,-1.79 1.923,-1.8 1.923,-5.23 0,-3.41 -1.908,-5.2 -1.91,-1.78 -5.56,-1.78 h -2.13 z m -5.92,-4.47 h 6.243 q 5.23,0 7.783,0.76 2.57,0.74 4.4,2.52 1.614,1.55 2.398,3.58 0.785,2.03 0.785,4.6 0,2.6 -0.785,4.65 -0.784,2.03 -2.4,3.59 -1.845,1.79 -4.43,2.54 -2.583,0.74 -7.75,0.74 h -6.245 V 497.3 Z m 34.846,4.88 -6.49,9.62 h 6.49 v -9.61 z m -0.984,-4.87 h 6.583 v 14.49 h 3.27 v 4.29 h -3.28 v 4.19 h -5.6 v -4.18 h -10.18 V 511 l 9.2,-13.705 v -0.002 z M 768.33,1901.5 h 5.677 l 3.968,16.688 3.938,-16.688 h 5.706 l 3.93,16.688 3.97,-16.688 h 5.63 l -5.42,22.964 h -6.83 l -4.17,-17.458 -4.13,17.458 h -6.83 l -5.46,-22.964 z m 48.493,10.53 q 2.323,0.6 3.523,2.092 1.215,1.476 1.215,3.768 0,3.415 -2.61,5.2 -2.61,1.768 -7.63,1.768 -1.77,0 -3.55,-0.293 -1.77,-0.276 -3.5,-0.846 v -4.57 q 1.66,0.83 3.29,1.26 1.65,0.41 3.23,0.41 2.36,0 3.6,-0.82 1.26,-0.82 1.26,-2.34 0,-1.57 -1.29,-2.37 -1.28,-0.82 -3.78,-0.82 h -2.37 v -3.82 h 2.49 q 2.23,0 3.33,-0.7 1.09,-0.71 1.09,-2.14 0,-1.33 -1.06,-2.05 -1.06,-0.72 -3,-0.72 -1.43,0 -2.89,0.32 -1.46,0.32 -2.9,0.95 V 1902 q 1.76,-0.495 3.48,-0.74 1.72,-0.248 3.38,-0.248 4.48,0 6.7,1.477 2.23,1.46 2.23,4.41 0,2.01 -1.06,3.3 -1.06,1.28 -3.14,1.8 z m -156.59,-44.55 h 5.675 l 3.968,16.688 3.938,-16.688 h 5.706 l 3.938,16.688 3.968,-16.688 h 5.63 l -5.415,22.963 h -6.82 l -4.17,-17.457 -4.12,17.457 h -6.83 l -5.46,-22.963 z m 45.413,4.95 -6.49,9.613 h 6.49 z m -0.984,-4.876 h 6.583 v 14.49 h 3.276 v 4.29 h -3.27 v 4.184 h -5.6 v -4.183 h -10.18 v -5.076 l 9.2,-13.71 z m -80.295,-13.844 7.968,11.72 h -6.168 l -5.368,-7.844 -5.33,7.844 h -6.2 l 7.96,-11.72 -7.66,-11.244 h 6.18 l 5.03,7.4 5.01,-7.4 H 632 l -7.66,11.244 z m 23.283,-0.72 q 2.323,0.6 3.523,2.092 1.215,1.476 1.215,3.768 0,3.415 -2.615,5.2 -2.615,1.768 -7.63,1.768 -1.768,0 -3.552,-0.293 -1.76,-0.276 -3.5,-0.846 v -4.57 q 1.66,0.83 3.29,1.26 1.65,0.41 3.23,0.41 2.36,0 3.6,-0.82 1.26,-0.82 1.26,-2.34 0,-1.57 -1.29,-2.37 -1.27,-0.82 -3.78,-0.82 h -2.36 v -3.82 h 2.49 q 2.23,0 3.33,-0.7 1.09,-0.71 1.09,-2.14 0,-1.33 -1.06,-2.05 -1.06,-0.72 -3,-0.72 -1.43,0 -2.89,0.32 -1.46,0.32 -2.91,0.95 v -4.34 q 1.76,-0.49 3.48,-0.74 1.72,-0.25 3.38,-0.25 4.48,0 6.69,1.47 2.23,1.46 2.23,4.41 0,2.01 -1.06,3.3 -1.06,1.27 -3.14,1.8 z m -120.06,-58.95 7.968,11.72 h -6.168 l -5.368,-7.844 -5.322,7.844 h -6.198 l 7.967,-11.72 -7.66,-11.244 h 6.18 l 5.03,7.4 5.01,-7.4 h 6.21 l -7.66,11.244 z m 20.205,-6.39 -6.49,9.613 h 6.49 z m -0.984,-4.876 h 6.59 v 14.49 h 3.28 v 4.29 h -3.28 v 4.184 h -5.6 v -4.184 h -10.18 v -5.075 l 9.2,-13.71 z m -83.24,-33.104 h 6.48 l 5.23,8.183 5.23,-8.183 H 487 l -8.75,13.29 v 9.674 h -5.924 v -9.675 l -8.752,-13.29 z m 37.8,10.62 q 2.33,0.6 3.53,2.092 1.22,1.476 1.22,3.768 0,3.414 -2.61,5.2 -2.61,1.768 -7.63,1.768 -1.77,0 -3.55,-0.293 -1.77,-0.276 -3.5,-0.846 v -4.57 q 1.66,0.83 3.29,1.26 1.65,0.41 3.23,0.41 2.36,0 3.6,-0.82 1.26,-0.82 1.26,-2.34 0,-1.57 -1.29,-2.37 -1.28,-0.82 -3.78,-0.82 h -2.36 v -3.82 h 2.49 q 2.23,0 3.32,-0.7 1.1,-0.71 1.1,-2.14 0,-1.33 -1.06,-2.05 -1.06,-0.72 -3,-0.72 -1.43,0 -2.89,0.32 -1.46,0.32 -2.9,0.95 v -4.34 q 1.75,-0.49 3.48,-0.74 1.72,-0.25 3.38,-0.25 4.48,0 6.69,1.47 2.23,1.46 2.23,4.41 0,2.01 -1.06,3.3 -1.06,1.27 -3.13,1.8 z m -137.22,-94.5 h 6.48 l 5.23,8.183 5.23,-8.183 h 6.49 l -8.75,13.29 v 9.674 h -5.93 v -9.675 l -8.75,-13.29 z m 34.73,4.95 -6.49,9.613 h 6.49 z m -0.98,-4.876 h 6.58 v 14.49 h 3.28 v 4.29 h -3.27 v 4.184 h -5.6 v -4.183 H 388.7 v -5.076 l 9.2,-13.71 z M 164.68,1260.79 h 19.304 v 3.584 l -12.32,14.904 h 12.673 v 4.476 h -20.01 v -3.584 l 12.32,-14.904 H 164.68 Z m 35.73,10.62 q 2.323,0.6 3.523,2.092 1.213,1.476 1.213,3.768 0,3.415 -2.613,5.2 -2.615,1.768 -7.63,1.768 -1.77,0 -3.552,-0.293 -1.77,-0.276 -3.5,-0.846 v -4.57 q 1.66,0.83 3.3,1.26 1.65,0.41 3.23,0.41 2.35,0 3.6,-0.82 1.26,-0.82 1.26,-2.34 0,-1.57 -1.29,-2.37 -1.28,-0.82 -3.78,-0.82 h -2.37 v -3.82 h 2.49 q 2.23,0 3.33,-0.7 1.09,-0.71 1.09,-2.14 0,-1.33 -1.06,-2.05 -1.06,-0.72 -3,-0.72 -1.43,0 -2.89,0.32 -1.46,0.32 -2.91,0.95 v -4.34 q 1.76,-0.5 3.48,-0.74 1.72,-0.24 3.38,-0.25 4.48,0 6.69,1.47 2.23,1.46 2.23,4.41 0,2.01 -1.06,3.31 -1.06,1.28 -3.14,1.8 z m 173.7,-135.82 h 19.304 v 3.585 l -12.32,14.904 h 12.673 v 4.47 h -20.01 v -3.59 l 12.32,-14.91 H 374.11 v -4.48 z m 32.652,4.86 -6.49,9.614 h 6.49 v -9.613 z m -0.984,-4.875 h 6.585 v 14.49 h 3.275 v 4.29 h -3.273 v 4.184 h -5.6 v -4.19 h -10.18 v -5.08 l 9.2,-13.71 z m -248.7,-2.055 h 19.303 v 3.585 l -12.32,14.904 h 12.68 v 4.47 h -20.01 v -3.59 l 12.32,-14.91 h -11.97 v -4.48 z m 32.65,4.86 -6.49,9.614 h 6.49 v -9.613 z m -0.983,-4.875 h 6.584 v 14.49 h 3.27 v 4.29 h -3.28 v 4.184 h -5.6 v -4.19 h -10.18 v -5.08 l 9.19,-13.71 z m 293.3,396.305 h 6.476 l 5.23,8.183 5.23,-8.183 h 6.49 l -8.75,13.29 v 9.674 h -5.92 v -9.675 l -8.75,-13.29 z m 26.47,0 h 14.72 v 4.353 h -10 v 3.553 q 0.678,-0.185 1.355,-0.277 0.692,-0.11 1.43,-0.11 4.2,0 6.537,2.1 2.337,2.09 2.337,5.84 0,3.72 -2.553,5.83 -2.54,2.1 -7.06,2.1 -1.95,0 -3.87,-0.39 -1.9,-0.37 -3.8,-1.14 v -4.66 q 1.88,1.07 3.56,1.61 1.7,0.54 3.19,0.54 2.15,0 3.39,-1.05 1.24,-1.06 1.24,-2.86 0,-1.82 -1.24,-2.86 -1.23,-1.05 -3.38,-1.05 -1.28,0 -2.72,0.34 -1.45,0.32 -3.11,1.01 v -12.92 z m -61.77,-76.41 h 6.478 l 5.23,8.183 5.23,-8.183 h 6.49 l -8.75,13.29 v 9.674 h -5.92 v -9.675 l -8.754,-13.29 z m 34.527,11.61 q -1.554,0 -2.34,1.015 -0.77,1 -0.77,3.015 0,2.015 0.77,3.03 0.784,1 2.338,1 1.57,0 2.338,-1 0.784,-1.015 0.784,-3.03 0,-2.015 -0.785,-3.015 -0.77,-1.015 -2.338,-1.015 z m 7.32,-11.028 v 4.245 q -1.46,-0.692 -2.753,-1.015 -1.3,-0.338 -2.53,-0.338 -2.65,0 -4.12,1.476 -1.48,1.462 -1.72,4.353 1.01,-0.753 2.2,-1.122 1.18,-0.38 2.58,-0.38 3.52,0 5.67,2.06 2.17,2.06 2.17,5.4 0,3.69 -2.42,5.92 -2.42,2.22 -6.48,2.22 -4.48,0 -6.94,-3.01 -2.45,-3.03 -2.45,-8.58 0,-5.69 2.86,-8.93 2.88,-3.26 7.87,-3.26 1.58,0 3.08,0.25 1.5,0.25 2.95,0.74 z M 330.05,1626.02 h 6.475 l 5.23,8.183 5.23,-8.183 h 6.49 l -8.75,13.29 v 9.674 h -5.92 v -9.675 l -8.75,-13.29 z m 25.244,0 H 372.6 v 3.338 l -8.95,19.626 h -5.77 l 8.475,-18.61 h -11.06 v -4.354 z M 246.4,1510.01 h 6.475 l 5.23,8.183 5.23,-8.183 h 6.49 l -8.752,13.29 v 9.674 h -5.92 v -9.675 l -8.753,-13.29 z m 34.1,12.69 q -1.66,0 -2.552,0.907 -0.892,0.908 -0.892,2.6 0,1.692 0.892,2.6 0.892,0.89 2.553,0.89 1.65,0 2.53,-0.89 0.88,-0.908 0.88,-2.6 0,-1.707 -0.87,-2.6 -0.87,-0.907 -2.52,-0.907 z m -4.32,-1.953 q -2.093,-0.63 -3.154,-1.938 -1.06,-1.31 -1.06,-3.27 0,-2.91 2.167,-4.43 2.17,-1.53 6.368,-1.53 4.17,0 6.34,1.52 2.17,1.5 2.17,4.43 0,1.95 -1.08,3.26 -1.06,1.31 -3.15,1.94 2.34,0.64 3.52,2.1 1.2,1.44 1.2,3.66 0,3.41 -2.27,5.17 -2.26,1.74 -6.72,1.74 -4.47,0 -6.76,-1.74 -2.27,-1.76 -2.27,-5.17 0,-2.22 1.19,-3.66 1.2,-1.46 3.54,-2.11 z m 1.383,-4.6 q 0,1.37 0.754,2.108 0.77,0.738 2.184,0.738 1.39,0 2.14,-0.738 0.75,-0.738 0.76,-2.107 0.01,-1.369 -0.75,-2.092 -0.75,-0.738 -2.14,-0.738 -1.41,0 -2.18,0.738 -0.75,0.738 -0.75,2.092 z" transform="matrix(1,0,0,0.98,-0.01,-0.96)"/><path style="opacity:.4;fill:#c8c4b7;stroke:gray;stroke-width:4.03900003" id="path6064" d="m 786.46,2178 c 0,0 -18.827,-2.84 -21.784,-12.695 -7.956,-26.514 -32.75,-48.972 -56.863,-60.04 -24.114,-11.068 -30.378,-9.524 -58.236,-13.492 -12.326,1.262 -45.598,1.77 -62.45,-26.45 -42.166,-79.986 -147.84,-90.94 -165.03,-89.755 0,0 -13.6,-1.555 -15.048,-12.557 -6.8,-75.58 -92.67,-127.64 -127.63,-150.69 -6.11,-4.19 -16.71,-17.72 -19.76,-22.65 -16.54,-62.53 -64.83,-106.29 -119.29,-127.02 0,0 -14.91,-14.9 -12.19,-23.84 14.64,-48.24 -4.94,-137.98 -37,-168.39 -6.47,-10.87 -8.87,-24.18 -11.39,-35.41 -10.65,-56.59 -1.94,-136.22 -64.94,-174.6 -3.55,-13.37 -4.39,-37.27 1.22,-44.61 63.11,-82.55 0.58,-126.71 24.54,-224.57 13.95,-55.02 21.92,-105.5 -4.31,-171.52 0.89,-10.66 3.08,-24.2 13.9,-30.12 36.27,-19.85 79.46,-70.79 91.31,-148.54 11.49,-27.54 9.91,-29.77 26.6,-57.14 40.44,-23.25 66.66,-120.36 64.04,-143.76 0,0 14.87,-19.31 24.01,-20.66 C 379.75,388.62 375.07,296.79 453,275.16 c 25.746,-7.14 42.61,-18.46 47.126,-19.69 50.424,-48.09 49.8,-60.63 63.55,-93.12 5.284,-4.564 9.7,-11.65 14.38,-10.065 28.83,9.766 47.98,7.07 67.412,0.354 30.34,-4.47 115.81,-58.57 148.26,-59.76 46.24,-3.35 102.71,5.77 145.3,-49.55 8.11,-9.74 19.043,-11.38 31.03,-5.98 29.682,13.39 67.683,19.54 91.274,18.67 22.79,-0.84 38.57,-34.27 66.505,-23.59 67.9,42.19 107.35,-13.29 128.03,-19.4 -6.715,81.14 26.03,88.66 35.24,99.08 -32.087,66.8 -25.57,129.81 52.073,160.71 -46.62,1.56 -96.68,40.75 -72.96,104.34 -1030.3,101.66 -906.25,1334.1 -108.4,1447.4 -30.04,45.98 -4.425,128.16 29.013,172.6 -42.56,-8.05 -111.57,-14.04 -106.32,94.41 -87.28,-16.16 -78.18,52.47 -78.18,52.47 -93.824,-23.23 -147.63,-12.99 -219.84,33.96 h -0.068 z" transform="matrix(1,0,0,0.98,-0.01,-0.96)"/><path id="b" d="m 1178.594,575.958 2.79,10.416 -2.5,4.33 -2.103,-7.855 -8.27,14.33 -3.25,-1.88 8.28,-14.33 -7.85,2.1 2.5,-4.33 10.42,-2.79 z" transform="matrix(1,0,0,0.98,-0.01,-0.96)"/><use id="use6236" width="1800" height="2210" x="0" y="0" transform="matrix(0.99953891,0.02975678,-0.03098374,0.99953895,75.817309,5.18181)" xlink:href="#b"/><use id="use6238" width="1800" height="2210" x="0" y="0" transform="matrix(0.70735356,-0.69272271,0.72128562,0.70735356,-86.71479,2147.5616)" xlink:href="#b"/><use id="use6240" width="1800" height="2210" x="0" y="0" transform="matrix(0.93,0.3626,0.37755102,-0.93,-207.89825,1845.2548)" xlink:href="#b"/></g></svg>